SplineFontDB: 1.0
FontName: DBThaiText-Oblique
FullName: DBThaiText Oblique
FamilyName: DBThaiText
Weight: Medium
Copyright: Typeface (c) The Monotype Corporation plc. Data (c) The Monotype Corporation plc/Type Solutions Inc. 1990-1992. All Rights Reserved\n\nModified by TLWG
Version: 2.0 : Dec 10, 2003
ItalicAngle: -12
UnderlinePosition: -50
UnderlineWidth: 40
Ascent: 800
Descent: 200
NeedsXUIDChange: 1
FSType: 0
PfmFamily: 33
TTFWeight: 500
TTFWidth: 5
Panose: 2 0 6 3 0 0 0 0 0 0
LineGap: 184
VLineGap: 0
ScriptLang: 3
 1 DFLT 1 dflt 
 1 thai 1 dflt 
 1 latn 1 dflt 
LangName: 1033 "" "" "" "PfaEdit : DBThaiText : 13-0-2003" 
Encoding: compacted
OldEncoding: iso8859_1
UnicodeInterp: none
DisplaySize: -72
AntiAlias: 1
FitToEm: 1
WinInfo: 144 8 2
BeginPrivate: 10
BlueValues 25 [ -35 0 315 346 437 445 ]
OtherBlues 13 [ -133 -131 ]
BlueScale 7 0.02857
BlueShift 1 7
BlueFuzz 1 1
StdHW 6 [ 31 ]
StdVW 6 [ 38 ]
ForceBold 5 false
StemSnapH 9 [ 31 36 ]
StemSnapV 9 [ 38 42 ]
EndPrivate
TeXData: 1 10485760 0 295936 147968 98645 381440 -1048576 98645 783286 444596 497025 792723 393216 433062 380633 303038 157286 324010 404750 52429 2506097 1059062 262144
BeginChars: 290 257
StartChar: .notdef
Encoding: 0 -1 0
OldEncoding: 0
Width: 798
VWidth: 2048
Flags: W
HStem: -39 105<178 685> 1280 104<351 858>
DStem: 351 1384 436 1280 49 -39 178 66 858 1280 987 1384 600 66 685 -39
Fore
49 -39 m 1
 351 1384 l 1
 987 1384 l 1
 685 -39 l 1
 49 -39 l 1
178 66 m 1
 600 66 l 1
 858 1280 l 1
 436 1280 l 1
 178 66 l 1
EndSplineSet
EndChar
StartChar: exclam
Encoding: 33 33 3
OldEncoding: 33
Width: 282
Flags: W
HStem: 0 21G<126 212>
DStem: 148 105 234 105 126 0 212 0 284 741 370 741 206 376 292 376
Fore
226 170 m 1
 183 170 l 1
 206 376 l 1
 284 741 l 1
 370 741 l 1
 292 376 l 1
 226 170 l 1
148 105 m 1
 234 105 l 1
 212 0 l 1
 126 0 l 1
 148 105 l 1
EndSplineSet
EndChar
StartChar: quotedbl
Encoding: 34 34 4
OldEncoding: 34
Width: 339
VWidth: 2048
Flags: W
DStem: 203 741 288 741 178 626 263 626 362 741 448 741 337 626 423 626
Fore
171 492 m 1
 178 626 l 1
 203 741 l 1
 288 741 l 1
 263 626 l 1
 213 492 l 1
 171 492 l 1
330 492 m 1
 337 626 l 1
 362 741 l 1
 448 741 l 5
 423 626 l 1
 372 492 l 1
 330 492 l 1
EndSplineSet
EndChar
StartChar: numbersign
Encoding: 35 35 5
OldEncoding: 35
Width: 565
Flags: W
HStem: -21 21G<74 150 280 356> 194 80<71 157 268 362 474 559> 430 82<160 250 359 454 567 641>
DStem: 157 194 236 194 74 -21 150 -21 250 430 328 430 188 274 268 274 361 710 439 710 281 512 359 512 362 194 440 194 280 -21 356 -21 454 430 533 430 394 274 474 274 565 710 645 710 487 512 567 512
Fore
361 710 m 1
 439 710 l 1
 359 512 l 1
 487 512 l 1
 565 710 l 1
 645 710 l 1
 567 512 l 1
 659 512 l 1
 641 430 l 1
 533 430 l 1
 474 274 l 1
 576 274 l 1
 559 194 l 1
 440 194 l 1
 356 -21 l 1
 280 -21 l 1
 362 194 l 1
 236 194 l 1
 150 -21 l 1
 74 -21 l 1
 157 194 l 1
 55 194 l 1
 72 274 l 1
 188 274 l 1
 250 430 l 1
 143 430 l 1
 161 512 l 1
 281 512 l 1
 361 710 l 1
328 430 m 1
 268 274 l 1
 394 274 l 1
 454 430 l 1
 328 430 l 1
EndSplineSet
EndChar
StartChar: dollar
Encoding: 36 36 6
OldEncoding: 36
Width: 565
Flags: W
HStem: 654 129<414 465.16>
DStem: 243 -24 304 -22 221 -128 282 -128 317 324 376 314 258 48 320 50 387 656 448 654 336 414 395 405
Fore
619 530 m 1
 536 530 l 1
 538.137 542.82 539.386 554.879 539.386 565.951 c 0
 539.386 585.971 535.302 602.766 525 615 c 1
 512 640 487 654 448 654 c 1
 395 405 l 1
 445 390 482 376 505 364 c 0
 528 354 545 336 561 308 c 0
 569.936 291.246 573.881 271.996 573.881 249.903 c 0
 573.881 232.436 571.415 213.193 567 192 c 0
 556 140 530 93 489 56 c 0
 444 16 403 -4 361 -12 c 2
 304 -22 l 1
 282 -128 l 1
 221 -128 l 1
 243 -24 l 1
 204 -15 170 -8 147 2 c 0
 123 12 101 34 84 66 c 0
 74.5421 84.3595 69.727 107.362 69.727 135.352 c 0
 69.727 157.671 72.7889 183.163 79 212 c 1
 157 212 l 1
 155.586 190.787 154.172 171.574 154.172 155.775 c 0
 154.172 149.23 154.414 143.272 155 138 c 0
 155 118 163 100 177 82 c 0
 194 68 220 56 258 48 c 1
 317 324 l 1
 301 328 283 336 263 342 c 0
 242 350 224 357 210 368 c 0
 194 376 182 388 173 400 c 1
 162.601 418.488 157.208 442.316 157.208 471.871 c 0
 157.208 493.472 160.088 518.131 166 546 c 1
 184 604 216 650 258 678 c 0
 298 706 349 724 403 729 c 1
 414 783 l 1
 475 783 l 1
 464 729 l 1
 518 724 562 705 590 675 c 0
 609 656 619 634 623 608 c 0
 623.236 600.918 623.361 594.059 623.361 587.423 c 0
 623.361 565.947 622.056 546.807 619 530 c 1
336 414 m 1
 387 656 l 1
 357 654 327 644 299 624 c 0
 270 602 250 576 244 548 c 0
 241.15 536.598 239.804 525.898 239.804 515.837 c 0
 239.804 494.132 246.067 475.399 257 459 c 0
 274 435 299 420 336 414 c 1
376 314 m 1
 320 50 l 1
 337 51 356 56 377 64 c 0
 396 70 418 84 440 106 c 0
 459 128 474 154 481 190 c 0
 483.7 202 485.05 212.92 485.05 222.733 c 0
 485.05 245.63 477.7 262.5 463 273 c 0
 442 290 412 302 376 314 c 1
EndSplineSet
EndChar
StartChar: percent
Encoding: 37 37 7
OldEncoding: 37
Width: 903
Flags: W
HStem: -21 72<696 713> 256 71<752 770> 350 70<277 295> 626 70<335 352>
DStem: 771 720 841 720 214 -21 282 -21
Fore
771 720 m 1
 841 720 l 1
 282 -21 l 1
 214 -21 l 1
 771 720 l 1
139 522 m 0
 150 572 176 612 217 646 c 0
 261 680 304 696 352 696 c 0
 400 696 437 680 464 646 c 0
 483.956 621.768 493.752 594.489 493.752 562.714 c 0
 493.752 549.905 492.16 536.365 489 522 c 0
 479 474 454 434 411 400 c 0
 369 366 324 350 278 350 c 0
 232 350 195 366 166 400 c 0
 145.368 425.053 135.053 453.363 135.053 485.731 c 0
 135.053 497.291 136.368 509.368 139 522 c 0
558 154 m 0
 568 201 595 243 635 276 c 0
 676 310 721 327 770 327 c 0
 802 327 828 318 850 303 c 0
 874 288 891 268 900 240 c 0
 906.294 224.894 909.815 207.412 909.815 188.55 c 0
 909.815 177.444 908.594 165.859 906 154 c 0
 895 105 870 64 828 30 c 0
 787 -3 743 -21 696 -21 c 0
 648 -21 611 -3 582 30 c 0
 563.813 54.7345 553.564 83.1737 553.564 115.703 c 0
 553.564 127.888 555.002 140.647 558 154 c 0
211 522 m 0
 209.364 514.364 208.545 507.025 208.545 500.024 c 0
 208.545 481.355 214.364 465.091 226 452 c 0
 243 430 263 420 293 420 c 0
 321 420 349 430 374 452 c 0
 397 470 413 494 419 522 c 0
 420.373 528.177 421.039 534.589 421.039 540.913 c 0
 421.039 553.019 418.598 564.804 414 574 c 0
 410 590 400 603 386 612 c 0
 372 621 355 626 337 626 c 0
 307 626 283 616 257 597 c 0
 230 574 217 550 211 522 c 0
630 154 m 0
 628.343 146.267 627.525 138.686 627.525 131.363 c 0
 627.525 112.172 633.143 94.7523 644 81 c 0
 661 62 681 51 711 51 c 0
 740 51 766 62 789 81 c 0
 813 100 828 126 834 154 c 0
 835.726 162.34 836.624 170.267 836.624 177.756 c 0
 836.624 196.308 831.111 212.177 819 225 c 0
 804 246 782 256 754 256 c 0
 724 256 700 246 675 225 c 0
 652 207 636 183 630 154 c 0
EndSplineSet
EndChar
StartChar: ampersand
Encoding: 38 38 8
OldEncoding: 38
Width: 678
Flags: W
HStem: -24 81<251 284> 0 21G<536 648> 319 20G<573 656> 651 71<440 463>
DStem: 334 340 418 386 455 138 517 220
Fore
648 0 m 1
 536 0 l 1
 488 75 l 1
 483 70 474 64 459 54 c 0
 447 42 433 34 420 26 c 0
 403 15 389 8 370 -2 c 1
 327 -16 286 -24 251 -24 c 0
 211 -24 177 -15 149 3 c 0
 105.95 32.2418 83.3525 72.6999 83.3525 125.982 c 0
 83.3525 138.297 84.5595 151.296 87 165 c 0
 96 212 115 250 140 282 c 0
 165 312 198 340 237 364 c 2
 298 400 l 1
 275 448 l 2
 261.082 477.383 251.349 505.57 251.349 535.335 c 0
 251.349 544.065 252.186 552.929 254 562 c 0
 266 615 300 662 355 693 c 0
 390 714 426 722 463 722 c 0
 509 722 544 706 570 678 c 0
 590.523 652.156 601.224 625.156 601.224 594.365 c 0
 601.224 584.648 600.159 574.554 598 564 c 0
 592 536 578 508 556 483 c 0
 532 456 508 434 479 418 c 2
 418 386 l 1
 517 220 l 1
 548 264 565 303 573 339 c 1
 656 339 l 1
 650 312 636 282 616 246 c 0
 597 210 576 180 555 154 c 1
 648 0 l 1
511 609 m 0
 510 622 502 632 490 639 c 0
 478 648 462 651 442 651 c 0
 423 651 403 646 385 634 c 0
 368 622 355 608 346 585 c 1
 342.098 566.605 340.06 551.627 340.06 539.548 c 0
 340.06 529.959 341.345 522.196 344 516 c 0
 349 501 363 480 383 447 c 1
 407 456 434 470 461 490 c 0
 489 510 507 536 513 564 c 0
 514.309 570.547 515.047 577.095 515.047 583.642 c 0
 515.047 592.095 513.818 600.547 511 609 c 0
455 138 m 1
 334 340 l 1
 323 336 310 327 292 316 c 0
 275 308 259 296 244 284 c 0
 229 270 214 252 202 232 c 0
 189 212 180 190 175 166 c 1
 174.815 163.966 174.724 161.915 174.724 159.846 c 0
 174.724 139.545 183.479 117.596 198 94 c 0
 215 69 244 57 284 57 c 0
 309 57 334 63 358 74 c 0
 381 81 414 104 455 138 c 1
EndSplineSet
EndChar
StartChar: quotesingle
Encoding: 39 39 9
OldEncoding: 39
Width: 181
VWidth: 2048
Flags: W
DStem: 203 741 288 741 178 626 263 626
Fore
171 492 m 1
 178 626 l 1
 203 741 l 1
 288 741 l 5
 263 626 l 1
 213 492 l 1
 171 492 l 1
EndSplineSet
EndChar
StartChar: parenleft
Encoding: 40 40 10
OldEncoding: 40
Width: 339
Flags: W
Fore
396 741 m 1
 455 741 l 1
 388 657 334 576 297 494 c 0
 257 410 230 332 215 262 c 0
 203.293 208.929 197.677 150.376 197.677 87.7672 c 0
 197.677 70.1552 198.122 52.2222 199 34 c 0
 201 -50 220 -134 251 -218 c 1
 192 -218 l 1
 178 -186 163 -152 150 -112 c 0
 138 -75 128 -34 122 10 c 0
 117.817 40.6779 116.064 71.8419 116.064 102.136 c 0
 116.064 115.292 116.394 128.283 117 141 c 0
 117 184 123 225 131 262 c 0
 143 318 162 375 188 432 c 0
 217 492 246 548 284 600 c 0
 321 654 357 702 396 741 c 1
EndSplineSet
EndChar
StartChar: parenright
Encoding: 41 41 11
OldEncoding: 41
Width: 339
Flags: W
VStem: 249 80<430 482>
Fore
197 741 m 1
 252 741 l 1
 277 699 293 652 308 600 c 0
 322 548 328 490 329 430 c 0
 330.217 415.394 330.782 401.084 330.782 387.027 c 0
 330.782 343.341 325.322 302.098 317 262 c 0
 305 208 288 153 258 94 c 0
 232 36 202 -21 164 -74 c 0
 127 -126 91 -174 48 -218 c 1
 -7 -218 l 1
 40 -160 78 -104 111 -44 c 0
 144 12 170 66 190 118 c 0
 208 171 224 219 233 262 c 0
 240 298 245 332 248 368 c 0
 249.743 388.921 250.811 410.18 250.811 432.365 c 0
 250.811 448.355 250.257 464.827 249 482 c 0
 249 520 243 564 235 612 c 0
 224 660 212 702 197 741 c 1
EndSplineSet
EndChar
StartChar: asterisk
Encoding: 42 42 12
OldEncoding: 42
Width: 394
Flags: W
DStem: 273 586 313 555 185 496 227 460 313 555 363 586 356 459 413 495 322 753 385 753 302 639 358 639
Fore
171 618 m 1
 204 678 l 1
 302 639 l 1
 322 753 l 1
 385 753 l 1
 358 639 l 1
 471 676 l 1
 481 614 l 1
 363 586 l 1
 413 495 l 1
 356 459 l 1
 313 555 l 1
 227 460 l 1
 185 496 l 1
 273 586 l 1
 171 618 l 1
EndSplineSet
EndChar
StartChar: plus
Encoding: 43 43 13
OldEncoding: 43
Width: 592
Flags: W
HStem: 328 72<135 331 417 613>
DStem: 331 328 402 328 286 118 357 118 391 610 462 610 346 400 417 400
Fore
391 610 m 5
 462 610 l 5
 417 400 l 5
 628 400 l 5
 613 328 l 5
 402 328 l 5
 357 118 l 5
 286 118 l 5
 331 328 l 5
 121 328 l 5
 136 400 l 5
 346 400 l 5
 391 610 l 5
EndSplineSet
EndChar
StartChar: comma
Encoding: 44 44 14
OldEncoding: 44
Width: 282
Flags: W
Fore
227 51 m 0
 217 4 194 -32 162 -57 c 0
 129 -82 97 -96 62 -102 c 0
 48.0607 -102 41.8936 -99.4093 41.8936 -94.2279 c 0
 41.8936 -93.8336 41.9293 -93.4243 42 -93 c 0
 42 -92 44 -88 48 -84 c 1
 64 -80 84 -69 108 -56 c 0
 133 -42 148 -26 157 -3 c 1
 153 -4 147 -4 142 -8 c 0
 138 -9 130 -10 124 -10 c 0
 86.5 -5 67.75 11.1111 67.75 41.8056 c 0
 67.75 47.9444 68.5 54.6667 70 62 c 0
 74 81 85 99 100 112 c 0
 115 126 133 132 156 132 c 0
 204.112 132 228.502 111.34 228.502 70.0191 c 0
 228.502 64.1029 228.002 57.7632 227 51 c 0
EndSplineSet
EndChar
StartChar: hyphen
Encoding: 45 45 15
OldEncoding: 45
Width: 339
Flags: W
HStem: 244 74<115 340>
Fore
356 318 m 1
 340 244 l 1
 100 244 l 1
 116 318 l 1
 356 318 l 1
EndSplineSet
EndChar
StartChar: period
Encoding: 46 46 16
OldEncoding: 46
Width: 282
Flags: W
Fore
71 78 m 0
 74 96 86 114 103 129 c 0
 123 144 140 152 160 152 c 0
 172 152 183 147 192 141 c 0
 202 134 210 126 214 114 c 0
 216.667 106 218 98 218 90 c 0
 218 86 217.667 82 217 78 c 0
 213 60 203 42 184 27 c 0
 168 12 148 4 129 4 c 0
 109 4 95 12 82 27 c 0
 73.7944 38.1895 69.484 51.0484 69.484 64.3314 c 0
 69.484 68.8548 69.9839 73.4274 71 78 c 0
EndSplineSet
EndChar
StartChar: slash
Encoding: 47 47 17
OldEncoding: 47
Width: 282
Flags: W
HStem: -22 21G<-14 43>
DStem: 385 720 441 720 -14 -22 43 -22
Fore
-14 -22 m 1
 385 720 l 1
 441 720 l 1
 43 -22 l 1
 -14 -22 l 1
EndSplineSet
EndChar
StartChar: zero
Encoding: 48 48 18
OldEncoding: 48
Width: 580
Flags: W
HStem: -26 88<280 301> 651 90<423 444>
Fore
280 -26 m 0
 244 -26 213 -16 183 2 c 0
 151 20 133 50 116 86 c 0
 107.752 114.043 102.225 147.529 102.225 187.58 c 0
 102.225 196.087 102.474 204.89 103 214 c 0
 107 266 111 312 122 360 c 0
 131 405 146 453 165 504 c 0
 184 555 207 598 233 633 c 1
 264 668 295 694 335 714 c 0
 372 732 408 741 444 741 c 0
 485 741 518 732 548 714 c 0
 577 694 598 668 611 633 c 0
 621.164 603.96 626.643 567.892 626.643 524.456 c 0
 626.643 478.149 620.416 423.467 607 360 c 0
 580 236 541 146 494 86 c 0
 467 50 433 20 394 2 c 0
 357 -16 320 -26 280 -26 c 0
299 62 m 0
 351 62 398 86 435 138 c 0
 443 147 455 164 464 188 c 0
 473 208 482 236 492 267 c 0
 503 297 511 328 517 357 c 0
 522 382 528 414 530 447 c 0
 533 477 536 504 536 526 c 0
 536.106 528.534 536.155 530.99 536.155 533.368 c 0
 536.155 553.523 532.578 568.161 529 578 c 0
 513 628 476 651 424 651 c 0
 404 651 379 646 357 633 c 0
 333 621 311 603 293 578 c 0
 278 560 266 530 247 484 c 0
 232 440 216 396 208 357 c 0
 200 318 196 274 193 231 c 0
 191.333 216.667 190.556 203.556 190.556 191.778 c 0
 190.556 168.222 193.667 150 199 138 c 0
 207 112 220 94 239 81 c 0
 257 68 279 62 299 62 c 0
EndSplineSet
EndChar
StartChar: one
Encoding: 49 49 19
OldEncoding: 49
Width: 580
Flags: W
HStem: 0 21G<274 363>
DStem: 385 522 521 741 274 0 363 0
Fore
363 0 m 1
 274 0 l 1
 385 522 l 1
 217 522 l 1
 233 596 l 1
 286 602 324 610 349 616 c 0
 373 626 390 638 405 654 c 0
 417 672 435 699 460 741 c 1
 521 741 l 5
 363 0 l 1
EndSplineSet
EndChar
StartChar: two
Encoding: 50 50 20
OldEncoding: 50
Width: 580
Flags: W
HStem: 0 86<150 530> 660 81<434 470>
Fore
452 303 m 2
 317 240 l 2
 290 226 258 207 220 176 c 0
 179 146 157 116 150 86 c 1
 548 86 l 1
 530 0 l 1
 34 0 l 1
 55 60 72 102 85 130 c 0
 97 158 120 188 152 218 c 0
 183 249 232 282 292 312 c 2
 420 375 l 2
 492 410 537 458 550 512 c 0
 552.782 524.318 553.984 536.321 553.984 547.82 c 0
 553.984 565.258 551.218 581.537 547 596 c 0
 536 616 521 633 500 645 c 0
 479 654 456 660 434 660 c 0
 380 658 337 642 308 612 c 0
 279 580 258 538 244 484 c 1
 154 484 l 1
 165 532 184 572 201 606 c 0
 217 640 244 668 285 692 c 1
 313 711 342 724 369 729 c 0
 396 736 431 741 470 741 c 0
 529 738 576 723 606 690 c 0
 635 657 650 615 651 567 c 0
 650 548 649 532 646 519 c 0
 637 474 612 432 574 394 c 0
 534 354 492 321 452 303 c 2
EndSplineSet
EndChar
StartChar: three
Encoding: 51 51 21
OldEncoding: 51
Width: 580
Flags: W
HStem: -26 86<255 278> 320 20G<337 372.5> 658 83<406 432>
Fore
79 216 m 1
 168 216 l 1
 167 207 165 194 165 176 c 0
 164.172 168.958 163.686 162.26 163.686 155.407 c 0
 163.686 145.716 164.657 135.716 167 124 c 0
 171 106 182 93 197 81 c 1
 214 68 237 60 267 60 c 0
 269.183 59.9636 271.351 59.9454 273.504 59.9454 c 0
 389.71 59.9454 462.346 112.91 481 216 c 0
 483.709 228.461 485.023 239.894 485.023 250.3 c 0
 485.023 278.309 475.499 298.876 458 312 c 0
 434 330 399 340 346 340 c 0
 328 340 314 340 304 338 c 1
 321 420 l 1
 387 422 436 429 466 442 c 0
 495 458 518 490 527 542 c 0
 529.709 554.461 531.023 565.967 531.023 576.421 c 0
 531.023 604.557 521.499 625.063 504 636 c 0
 482 650 449 658 406 658 c 1
 372 651 345 645 324 632 c 0
 304 620 287 604 279 590 c 0
 268 573 259 556 254 538 c 0
 249 520 246 508 244 501 c 1
 158 502 l 1
 174 579 204 636 255 680 c 0
 300 720 362 741 432 741 c 0
 476 741 513 732 545 718 c 0
 576 704 601 680 614 648 c 0
 621.324 627.86 625.668 606.229 625.668 581.517 c 0
 625.668 565.739 623.897 548.705 620 530 c 0
 612 492 599 464 578 444 c 0
 558 424 530 405 501 382 c 1
 537 364 562 340 571 314 c 0
 576.23 297.728 579.434 278.754 579.434 257.079 c 0
 579.434 241.456 577.77 224.43 574 206 c 0
 566 158 541 116 509 80 c 0
 477 42 435 12 381 -3 c 0
 343 -16 309 -22 278 -26 c 0
 246 -26 227 -20 212 -18 c 0
 152 -3 114 20 94 62 c 0
 83.0589 91.1763 75.842 126.737 75.842 167.906 c 0
 75.842 183.179 76.8353 199.223 79 216 c 1
EndSplineSet
EndChar
StartChar: four
Encoding: 52 52 22
OldEncoding: 52
Width: 580
Flags: W
HStem: 0 21G<348 435> 174 87<166 385 490 580>
DStem: 385 174 472 174 348 0 435 0 474 594 593 741 403 261 490 261 524 741 474 594 86 273 166 261
Fore
385 174 m 1
 65 174 l 1
 86 273 l 1
 524 741 l 1
 593 741 l 1
 490 261 l 1
 598 261 l 1
 580 174 l 1
 472 174 l 1
 435 0 l 1
 348 0 l 1
 385 174 l 1
403 261 m 1
 474 594 l 1
 166 261 l 1
 403 261 l 1
EndSplineSet
EndChar
StartChar: five
Encoding: 53 53 23
OldEncoding: 53
Width: 580
Flags: W
HStem: -26 89<292 309> 336 21G<131 215> 400 88<369 395> 650 91<274 639>
DStem: 274 741 328 650 131 336 253 444
Fore
215 336 m 1
 131 336 l 1
 274 741 l 1
 659 741 l 1
 639 650 l 1
 328 650 l 1
 253 444 l 1
 295 474 342 488 395 488 c 0
 432 488 465 483 490 472 c 0
 559.635 443.372 595.147 388.404 595.147 308.486 c 0
 595.147 285.113 592.11 259.606 586 232 c 0
 574 178 547 132 515 94 c 0
 486 58 448 28 408 9 c 0
 377 -6 341 -16 294 -26 c 1
 256 -26 222 -20 193 -12 c 0
 162 -2 135 15 118 34 c 0
 99 52 90 69 85 88 c 0
 80 106 76 124 76 144 c 0
 76 162 75 174 74 180 c 1
 168 180 l 1
 172 148 184 123 201 98 c 0
 220 76 253 63 309 63 c 1
 396 75 452 120 478 204 c 1
 483.876 231.7 487.109 256.758 487.109 278.951 c 0
 487.109 309.638 480.927 334.85 467 354 c 0
 445 386 412 400 369 400 c 0
 316 400 264 380 215 336 c 1
EndSplineSet
EndChar
StartChar: six
Encoding: 54 54 24
OldEncoding: 54
Width: 580
Flags: W
HStem: -26 83<285 308> 380 80<375 407>
Fore
636 548 m 1
 546 548 l 1
 548.071 556.63 549.189 565.26 549.189 573.603 c 0
 549.189 589.426 545.167 604.214 536 616 c 0
 521 636 500 650 470 657 c 1
 392 657 333 624 289 560 c 0
 248 502 224 448 214 400 c 0
 212.536 394.144 211.608 387.215 211.608 381.177 c 0
 211.608 378.967 211.732 376.876 212 375 c 1
 231 390 247 400 260 412 c 0
 273 423 283 430 300 438 c 0
 316 444 332 452 347 456 c 0
 364 459 382 460 407 460 c 0
 446 460 482 453 509 438 c 0
 537 422 559 398 571 372 c 0
 582.389 346.374 591.076 318.947 591.076 289.719 c 0
 591.076 288.151 591.051 286.578 591 285 c 1
 591.427 281.367 591.626 277.643 591.626 273.798 c 0
 591.626 259.651 588.932 243.871 585 225 c 0
 580 204 575 183 566 170 c 1
 549 129 528 96 501 69 c 0
 467 36 435 12 406 -2 c 0
 375 -16 332 -26 285 -26 c 0
 248 -26 216 -16 188 0 c 0
 157 15 137 36 125 63 c 1
 106.385 98.5385 97.0769 134.077 97.0769 172.645 c 0
 97.0769 179.657 97.3846 186.769 98 194 c 0
 101 240 109 302 125 378 c 0
 138 438 157 494 185 546 c 0
 224 614 265 663 318 693 c 0
 368 724 419 741 470 741 c 0
 524 741 568 723 599 688 c 0
 616 668 628 648 634 628 c 0
 637.487 617.539 639.623 603.702 639.623 587.272 c 0
 639.623 575.43 638.513 562.241 636 548 c 1
446 122 m 0
 469 146 481 176 489 214 c 0
 492.739 229.788 494.752 245.749 494.752 261.81 c 0
 494.752 284.407 490.768 307.204 482 330 c 0
 469 363 433 380 377 380 c 0
 354 380 332 375 309 364 c 0
 283 354 265 344 250 328 c 0
 218 302 198 268 189 225 c 0
 186.333 212.667 185 200 185 187.407 c 0
 185 162.222 190.333 137.333 201 116 c 0
 223 78 255 57 308 57 c 0
 312.185 56.5897 316.35 56.3882 320.491 56.3882 c 0
 366.817 56.3882 410.2 81.6105 446 122 c 0
EndSplineSet
EndChar
StartChar: seven
Encoding: 55 55 25
OldEncoding: 55
Width: 580
Flags: W
HStem: 0 21G<144 242> 654 87<207 586>
Fore
189 654 m 1
 208 741 l 1
 701 741 l 1
 684 663 l 1
 576 546 l 2
 537 502 494 447 445 380 c 0
 366 268 296 141 242 0 c 1
 144 0 l 1
 186 94 223 164 248 208 c 0
 272 252 308 304 358 372 c 0
 391 414 436 470 489 537 c 0
 542 603 576 642 586 654 c 1
 189 654 l 1
EndSplineSet
EndChar
StartChar: eight
Encoding: 56 56 26
OldEncoding: 56
Width: 580
Flags: W
HStem: 348 78<348 365> 660 81<426 450>
Fore
292 698 m 0
 337 726 384 741 437 741 c 0
 496 741 549 728 589 698 c 0
 609 682 618 658 626 630 c 0
 628.884 616.539 630.382 602.616 630.382 588.564 c 0
 630.382 573.387 628.635 558.059 625 543 c 0
 617 502 601 472 579 452 c 1
 559 430 531 410 499 390 c 1
 522 386 543 364 564 328 c 0
 576.788 304.342 583.444 276.186 583.444 244.579 c 0
 583.444 226.755 581.327 207.832 577 188 c 1
 556 122 514 68 450 26 c 1
 395.476 -8.07767 337.16 -26.0395 276.897 -26.0395 c 0
 275.266 -26.0395 273.634 -26.0264 272 -26 c 0
 242 -26 213 -16 183 -6 c 0
 155 3 133 20 115 42 c 0
 89.2577 68.4778 77.5801 102.529 77.5801 142.562 c 0
 77.5801 156.959 79.0904 172.13 82 188 c 0
 91 248 114 291 144 318 c 1
 155 336 188 362 241 390 c 1
 226 405 216 412 211 420 c 0
 204 424 197 430 194 440 c 0
 189 447 185 456 180 466 c 0
 178.111 476.387 177.115 488.111 177.115 500.437 c 0
 177.115 514.217 178.361 528.748 181 543 c 0
 195 606 233 658 292 698 c 0
510 633 m 0
 492 651 467 660 428 660 c 0
 389 660 356 650 328 630 c 0
 301 610 281 580 273 543 c 0
 271.608 535.342 269.731 525.262 269.731 512.758 c 0
 269.731 507.3 270.088 501.381 271 495 c 0
 279 453 310 426 365 426 c 0
 368.021 425.894 371.006 425.841 373.953 425.841 c 0
 426.619 425.841 467.484 442.643 494 472 c 0
 515 494 530 519 535 543 c 0
 536.985 552.179 537.985 561.05 537.985 569.522 c 0
 537.985 595.2 528.798 617.21 510 633 c 0
473 296 m 0
 451.459 327.844 415.883 348.284 366.272 348.284 c 0
 362.912 348.284 359.488 348.19 356 348 c 0
 300 348 258 328 221 294 c 0
 198 268 182 236 174 196 c 0
 173.371 187.193 173.006 178.913 173.006 171.162 c 0
 173.006 141.946 178.194 120.226 194 106 c 1
 207 86 239 72 287 62 c 1
 325 63 361 72 396 86 c 1
 446 114 474 154 484 201 c 0
 486.981 214.715 488.896 226.652 488.896 237.023 c 0
 488.896 244.044 488.019 250.348 486 256 c 0
 484 273 483 285 473 296 c 0
EndSplineSet
EndChar
StartChar: nine
Encoding: 57 57 27
OldEncoding: 57
Width: 580
Flags: W
HStem: -26 89<262 273> 252 78<352 359> 657 84<418 443>
Fore
87 164 m 1
 181 164 l 1
 179.765 158.073 179.14 152.146 179.14 146.31 c 0
 179.14 128.512 184.951 111.555 197 98 c 0
 213 80 236 68 263 63 c 1
 340 63 400 93 441 153 c 0
 457 176 469 204 485 234 c 0
 497 262 508 288 513 312 c 0
 514 315 514.25 319 514.25 323.5 c 0
 514.25 328 514 333 514 338 c 1
 488 310 455 286 420 270 c 0
 404 262 382 256 358 252 c 1
 327 252 302 254 279 256 c 0
 232 262 198 284 173 316 c 0
 150 346 138 382 136 426 c 0
 138 441 140 460 146 488 c 0
 149 502 155 522 162 550 c 1
 177 588 200 620 227 646 c 0
 265 681 296 706 325 720 c 0
 356 732 394 741 443 741 c 0
 444.229 741.015 445.451 741.023 446.667 741.023 c 0
 525.602 741.023 577.41 709.09 604 650 c 0
 620 618.667 627.111 576.667 627.111 523.407 c 0
 627.111 496.778 625.333 467.333 622 435 c 0
 622 422 617 398 610 366 c 0
 603 336 599 314 594 300 c 0
 581 258 565 216 543 170 c 0
 509 100 462 46 402 16 c 0
 362 -6 317 -18 273 -26 c 1
 234 -26 204 -20 181 -15 c 0
 158 -6 139 6 122 26 c 0
 96.2789 56.6994 85.7031 94.9715 85.7031 137.389 c 0
 85.7031 146.095 86.1486 154.975 87 164 c 1
285 596 m 0
 261 570 244 537 236 500 c 0
 233.091 485.091 231.636 470.711 231.636 456.523 c 0
 231.636 431.694 236.091 407.455 245 382 c 0
 261.221 349.558 292.008 329.863 344.312 329.863 c 0
 346.825 329.863 349.387 329.908 352 330 c 0
 374 330 400 338 422 348 c 0
 446 360 465 372 478 386 c 1
 511 412 529 444 538 486 c 0
 541.115 499.846 542.673 513.453 542.673 526.737 c 0
 542.673 551.828 537.115 575.769 526 598 c 0
 521 615 508 630 487 640 c 0
 468 650 449 657 424 657 c 0
 366 657 323 636 285 596 c 0
EndSplineSet
EndChar
StartChar: colon
Encoding: 58 58 28
OldEncoding: 58
Width: 282
Flags: W
HStem: 12 146<150 181> 440 145<241 271>
Fore
93 84 m 0
 97 104 107 120 125 135 c 0
 144 152 163 158 181 158 c 0
 194 158 205 154 214 147 c 0
 225 142 232 132 236 120 c 0
 238.683 113.56 239.639 107.12 239.639 100.68 c 0
 239.639 95.1198 238.927 89.5599 238 84 c 0
 234 66 224 50 205 34 c 0
 187 18 169 12 150 12 c 0
 132 12 116 18 103 34 c 0
 95.0812 45.5182 91.3083 57.0365 91.3083 69.3009 c 0
 91.3083 74.073 91.8796 78.958 93 84 c 0
184 512 m 0
 188 531 198 549 216 564 c 0
 235 578 253 585 271 585 c 0
 292 585 307 578 320 564 c 1
 327.143 553.286 330.714 541.041 330.714 527.994 c 0
 330.714 522.775 330.143 517.429 329 512 c 0
 325 494 314 477 296 460 c 0
 278 446 260 440 241 440 c 0
 223 440 207 446 194 460 c 0
 185.633 471.853 182.128 483.706 182.128 495.897 c 0
 182.128 501.192 182.789 506.55 184 512 c 0
EndSplineSet
EndChar
StartChar: semicolon
Encoding: 59 59 29
OldEncoding: 59
Width: 282
Flags: W
HStem: -10 142<130 162> 432 146<212 243>
Fore
233 51 m 0
 223 4 201 -32 168 -57 c 0
 136 -82 103 -96 70 -102 c 0
 54.9961 -102 47.9065 -99.3619 47.9065 -94.0858 c 0
 47.9065 -93.7355 47.9377 -93.3735 48 -93 c 0
 48 -92 50 -88 56 -84 c 1
 71 -80 90 -69 116 -56 c 0
 139 -42 156 -26 164 -3 c 1
 159 -4 155 -4 150 -8 c 0
 142 -9 136 -10 130 -10 c 0
 93.3561 -5.00311 74.7453 11.0911 74.7453 41.7484 c 0
 74.7453 47.9027 75.4953 54.6439 77 62 c 0
 81 81 91 99 106 112 c 0
 121 126 140 132 162 132 c 0
 210.348 132 234.843 111.875 234.843 71.6243 c 0
 234.843 65.2537 234.23 58.3789 233 51 c 0
156 506 m 0
 159 524 169 540 187 556 c 0
 206 572 225 578 243 578 c 0
 255 578 266 574 277 568 c 0
 287 561 295 552 298 540 c 0
 301.417 533.85 302.966 526.298 302.966 517.984 c 0
 302.966 514.132 302.633 510.116 302 506 c 0
 297 486 286 470 268 454 c 0
 250 440 232 432 212 432 c 0
 194 432 178 440 166 454 c 0
 157.679 465.094 153.686 476.188 153.686 488.615 c 0
 153.686 494.111 154.467 499.868 156 506 c 0
EndSplineSet
EndChar
StartChar: less
Encoding: 60 60 30
OldEncoding: 60
Width: 592
Flags: W
DStem: 116 330 219 366 569 120 586 201 673 612 656 531 131 402 219 366
Fore
673 612 m 5
 656 531 l 5
 219 366 l 5
 586 201 l 5
 569 120 l 5
 116 330 l 5
 131 402 l 5
 673 612 l 5
EndSplineSet
EndChar
StartChar: equal
Encoding: 61 61 31
OldEncoding: 61
Width: 592
Flags: W
HStem: 243 71<117 595> 416 70<153 631>
Fore
154 486 m 5
 646 486 l 5
 631 416 l 5
 139 416 l 5
 154 486 l 5
118 314 m 5
 610 314 l 5
 595 243 l 5
 103 243 l 5
 118 314 l 5
EndSplineSet
EndChar
StartChar: greater
Encoding: 62 62 32
OldEncoding: 62
Width: 592
Flags: W
DStem: 164 531 181 612 526 366 633 402 526 366 618 330 94 201 77 120
Fore
633 402 m 5
 618 330 l 5
 77 120 l 5
 94 201 l 5
 526 366 l 5
 164 531 l 5
 181 612 l 5
 633 402 l 5
EndSplineSet
EndChar
StartChar: question
Encoding: 63 63 33
OldEncoding: 63
Width: 565
Flags: W
HStem: 0 21G<244 338> 674 78<442 468>
DStem: 266 105 360 105 244 0 338 0
Fore
380 198 m 1
 286 198 l 1
 299 260 l 2
 305 288 319 315 344 339 c 0
 367 364 392 387 421 408 c 0
 435 418 445 428 455 435 c 0
 486 460 l 0
 496 471 504 482 510 490 c 0
 528 518 541 540 545 561 c 0
 546.888 569.682 547.777 577.653 547.777 585.071 c 0
 547.777 597.305 545.357 608.04 541 618 c 0
 534 636 524 650 506 660 c 0
 490 668 469 674 445 674 c 0
 413 674 385 666 363 654 c 0
 340 642 323 626 311 608 c 0
 297 588 291 570 287 550 c 0
 281 532 279 520 275 512 c 1
 187 512 l 1
 196 556 211 597 234 632 c 0
 256 668 286 694 324 717 c 0
 364 740 410 752 468 752 c 0
 482 752 494 752 501 748 c 0
 545 744 577 730 597 708 c 0
 618 688 633 664 637 638 c 0
 639.386 624.638 640.634 611.731 640.634 598.845 c 0
 640.634 584.729 639.137 570.638 636 556 c 0
 631 532 621 510 611 488 c 0
 595 456 547 410 469 351 c 0
 449 336 432 322 419 308 c 0
 404 291 396 272 390 246 c 2
 380 198 l 1
244 0 m 1
 266 105 l 1
 360 105 l 1
 338 0 l 1
 244 0 l 1
EndSplineSet
EndChar
StartChar: at
Encoding: 64 64 34
OldEncoding: 64
Width: 1032
Flags: W
HStem: -148 74<462 499> 54 72<703 745> 60 63<442 485> 456 75<620 643> 674 74<665 719>
DStem: 784 507 868 507 748 440 706 201
Fore
868 507 m 1
 706 201 l 2
 697 186 694 177 692 171 c 0
 691.535 168.908 691.34 166.817 691.34 164.725 c 0
 691.34 157.817 693.465 150.908 695 144 c 0
 702 132 719 126 745 126 c 1
 775 132 803 144 829 162 c 0
 857 182 877 200 893 220 c 0
 930 268 955 326 970 393 c 1
 970.1 395.7 970.15 398.41 970.15 401.135 c 0
 970.15 425.66 966.1 451.4 958 482 c 0
 949 513 938 538 925 558 c 0
 909 578 882 600 844 622 c 0
 806 644 767 660 726 668 c 0
 704 670 686 674 665 674 c 0
 620 674 573 664 528 648 c 0
 482 630 441 609 403 584 c 0
 360 552 322 518 288 478 c 0
 254 440 230 405 215 376 c 0
 201 344 188 312 182 282 c 0
 176.231 254.598 173.236 227.889 173.236 201.873 c 0
 173.236 173.773 176.73 146.482 184 120 c 0
 191 88 212 57 242 28 c 0
 272 -2 306 -28 351 -50 c 0
 390 -66 431 -74 480 -74 c 0
 542 -74 611 -62 688 -38 c 1
 704 -105 l 1
 618 -134 539 -148 464 -148 c 0
 410 -148 357 -141 308 -123 c 0
 273 -110 230 -84 184 -48 c 0
 138 -10 107 32 93 80 c 0
 84.6132 108.83 80.3478 139.857 80.3478 172.939 c 0
 80.3478 202.969 83.8626 234.692 91 268 c 0
 99 308 111 340 126 369 c 0
 152 418 184 470 224 519 c 0
 265 568 314 612 374 650 c 0
 403 668 437 687 475 702 c 0
 514 717 554 729 595 738 c 0
 627.012 744.246 659.633 749.273 691.912 749.273 c 0
 700.976 749.273 710.012 748.877 719 748 c 0
 769 747 822 732 879 706 c 0
 935 681 974 646 1004 603 c 0
 1022 576 1040 546 1047 508 c 0
 1052.33 485.478 1055.21 463.659 1055.21 442.334 c 0
 1055.21 427.679 1053.85 413.256 1051 399 c 0
 1043 351 1030 314 1015 286 c 0
 1001 261 983 232 961 204 c 0
 942 178 918 152 888 123 c 0
 859 99 823 76 782 64 c 0
 754 56 728 54 703 54 c 0
 680 54 664 56 655 60 c 0
 638 64 625 75 616 90 c 0
 607.9 102.6 603.85 114.39 603.85 126.099 c 0
 603.85 127.4 603.9 128.7 604 130 c 1
 579 110 l 0
 571 102 560 94 549 88 c 0
 535 80 517 74 497 68 c 0
 481 63 461 60 442 60 c 0
 421 60 403 63 389 69 c 0
 361 81 344 96 336 114 c 0
 327 129 319 148 315 172 c 0
 313.532 180.441 312.872 189.017 312.872 197.728 c 0
 312.872 212.751 314.835 228.175 318 244 c 0
 323 266 329 285 337 303 c 0
 371 376 422 440 493 483 c 0
 545 518 596 531 643 531 c 0
 656 531 668 530 678 525 c 0
 698 519 716 507 728 490 c 0
 739 471 747 454 748 440 c 1
 784 507 l 1
 868 507 l 1
697 382 m 0
 698.077 389.178 698.638 395.712 698.638 401.648 c 0
 698.638 412.252 696.847 420.948 693 428 c 0
 687 438 673 446 652 452 c 0
 645 454 634 456 622 456 c 0
 598 456 573 448 548 435 c 0
 525 422 504 406 487 388 c 0
 470 369 455 346 442 318 c 0
 426 292 417 268 412 244 c 0
 409.55 233.15 408.325 222.79 408.325 212.877 c 0
 408.325 194.467 412.55 177.6 421 162 c 0
 434 138 456 123 485 123 c 0
 494 123 504 126 511 128 c 0
 542 135 573 156 603 192 c 1
 623 212 639 240 659 279 c 0
 677 316 691 351 697 382 c 0
EndSplineSet
EndChar
StartChar: A
Encoding: 65 65 35
OldEncoding: 65
Width: 678
Flags: W
HStem: 0 21G<16 118 558 664> 222 80<288 529>
DStem: 444 741 477 626 16 0 288 302 444 741 245 222 16 0 118 0 477 626 562 741 518 302 664 0 529 222 562 741 558 0 664 0
Fore
245 222 m 1
 118 0 l 1
 16 0 l 1
 444 741 l 1
 562 741 l 1
 664 0 l 1
 558 0 l 1
 529 222 l 1
 245 222 l 1
477 626 m 1
 288 302 l 1
 518 302 l 1
 477 626 l 1
EndSplineSet
EndChar
StartChar: B
Encoding: 66 66 36
OldEncoding: 66
Width: 678
Flags: W
HStem: 0 84<195 448> 339 84<267 466> 657 84<238 497>
DStem: 238 741 317 657 80 0 267 423 238 741 249 339 80 0 195 84
Fore
446 0 m 2
 80 0 l 1
 238 741 l 1
 566 741 l 2
 592 741 616 735 640 724 c 0
 663 712 681 699 695 680 c 0
 713.474 658.167 724.192 631.398 724.192 597.916 c 0
 724.192 591.526 723.801 584.891 723 578 c 1
 702 482 659 420 591 393 c 1
 601 388 612 382 623 376 c 0
 633 369 645 360 656 346 c 0
 667 332 676 314 680 290 c 0
 682.435 279.447 683.553 268.564 683.553 256.951 c 0
 683.553 239.952 681.159 221.388 677 200 c 0
 665 156 646 118 617 90 c 0
 589 62 558 39 527 24 c 0
 496 9 468 0 446 0 c 2
317 657 m 1
 267 423 l 1
 464 423 l 2
 512 423 550 435 575 459 c 0
 598 484 614 519 623 561 c 1
 623.118 563.118 623.176 565.197 623.176 567.239 c 0
 623.176 599.91 608.118 622.941 578 638 c 0
 544 651 515 657 490 657 c 2
 317 657 l 1
249 339 m 1
 195 84 l 1
 434 84 l 2
 476 84 511 99 535 128 c 0
 563 156 579 192 588 234 c 1
 588.785 240.595 589.176 246.82 589.176 252.687 c 0
 589.176 284.183 577.917 305.355 556 318 c 0
 530 332 489 339 435 339 c 2
 249 339 l 1
EndSplineSet
EndChar
StartChar: C
Encoding: 67 67 37
OldEncoding: 67
Width: 733
Flags: W
HStem: -24 87<367 393> 668 86<512 536>
Fore
784 512 m 1
 685 512 l 1
 678 548 670 574 658 597 c 0
 649 612 637 626 621 636 c 0
 606 648 591 656 575 662 c 0
 559 666 541 668 520 668 c 0
 490 668 459 662 428 650 c 0
 397 638 369 621 345 597 c 0
 316 570 291 536 270 495 c 0
 249 453 233 408 223 364 c 0
 216.906 334.884 214.48 305.767 214.48 277.272 c 0
 214.48 263.684 215.031 250.238 216 237 c 0
 221 195 229 160 246 134 c 0
 274 87 322 63 391 63 c 0
 455 63 512 87 559 134 c 0
 574 148 591 170 607 195 c 0
 625 220 638 246 649 272 c 1
 746 272 l 1
 713 182 661 108 589 52 c 0
 568 36 536 18 494 2 c 0
 451 -15 409 -24 369 -24 c 0
 325 -24 288 -15 252 2 c 0
 216 16 191 34 177 52 c 0
 146 92 124 140 117 195 c 0
 114.816 212.157 113.801 229.605 113.801 247.194 c 0
 113.801 285.99 118.743 325.469 127 364 c 0
 140 423 159 480 190 536 c 0
 220 591 262 639 310 678 c 0
 332 696 365 714 407 729 c 0
 449 744 490 754 534 754 c 0
 574 754 612 744 649 729 c 0
 684 714 708 696 722 678 c 0
 757 639 776 584 784 512 c 1
EndSplineSet
EndChar
StartChar: D
Encoding: 68 68 38
OldEncoding: 68
Width: 733
Flags: W
HStem: 0 84<204 429> 657 84<248 523>
DStem: 248 741 326 657 90 0 204 84
Fore
429 0 m 2
 90 0 l 1
 248 741 l 1
 534 741 l 2
 614 741 676 714 720 662 c 0
 755.394 619.527 772.847 563.445 772.847 496.673 c 0
 772.847 478.55 771.562 459.639 769 440 c 0
 764 405 759 381 756 368 c 0
 733 261 689 174 623 110 c 0
 588 74 550 46 514 28 c 0
 479 10 452 0 429 0 c 2
508 657 m 2
 326 657 l 1
 204 84 l 1
 411 84 l 2
 436 84 463 90 491 100 c 0
 507 106 530 123 555 148 c 0
 584 177 598 198 607 218 c 0
 630 268 650 318 662 368 c 0
 671.372 409.926 675.878 446.986 675.878 479.06 c 0
 675.878 512.013 671.122 539.703 662 562 c 0
 637 626 586 657 508 657 c 2
EndSplineSet
EndChar
StartChar: E
Encoding: 69 69 39
OldEncoding: 69
Width: 678
Flags: W
HStem: 0 84<204 624> 339 84<276 662> 657 84<250 748>
DStem: 250 741 326 657 92 0 276 423 250 741 258 339 92 0 204 84
Fore
92 0 m 1
 250 741 l 1
 766 741 l 1
 748 657 l 1
 326 657 l 1
 276 423 l 1
 680 423 l 1
 662 339 l 1
 258 339 l 1
 204 84 l 1
 642 84 l 1
 624 0 l 1
 92 0 l 1
EndSplineSet
EndChar
StartChar: F
Encoding: 70 70 40
OldEncoding: 70
Width: 621
Flags: W
HStem: 0 21G<92 186> 339 84<276 610> 657 84<250 728>
DStem: 250 741 326 657 92 0 276 423 250 741 258 339 92 0 186 0
Fore
92 0 m 1
 250 741 l 1
 746 741 l 1
 728 657 l 1
 326 657 l 1
 276 423 l 1
 628 423 l 1
 610 339 l 1
 258 339 l 1
 186 0 l 1
 92 0 l 1
EndSplineSet
EndChar
StartChar: G
Encoding: 71 71 41
OldEncoding: 71
Width: 790
Flags: W
HStem: -24 84<371 417> -3 21G<659 719> 309 84<493 702> 668 86<540 566>
Fore
476 309 m 1
 494 393 l 1
 804 393 l 1
 719 -3 l 1
 659 -3 l 1
 657 88 l 1
 607 51 561 22 523 3 c 0
 485 -15 435 -24 371 -24 c 0
 337 -24 301 -15 266 0 c 0
 229 15 202 30 184 48 c 0
 147 87 125 135 116 192 c 0
 111.995 216.92 109.772 241.839 109.772 267.023 c 0
 109.772 298.433 113.23 330.255 121 363 c 0
 129 400 144 438 161 474 c 0
 177 512 198 549 224 585 c 0
 250 621 282 651 318 678 c 0
 344 696 378 714 425 729 c 0
 470 744 516 754 564 754 c 0
 568.934 754.145 573.773 754.217 578.518 754.217 c 0
 639.166 754.217 684.394 742.549 715 724 c 0
 764 694 795 663 808 627 c 0
 818.053 596.842 822.491 567.386 822.491 536.28 c 0
 822.491 530.254 822.325 524.167 822 518 c 1
 728 518 l 1
 728.763 523.189 729.153 528.424 729.153 533.688 c 0
 729.153 562.918 717.116 593.036 690 621 c 0
 658 652 608 668 546 668 c 0
 511 668 477 662 441 650 c 0
 408 638 376 621 349 597 c 0
 318 572 292 537 267 495 c 0
 243 453 228 408 218 363 c 0
 212.188 333.941 208.878 306.133 208.878 278.769 c 0
 208.878 263.757 209.875 248.878 212 234 c 0
 219 192 230 158 250 130 c 0
 285 82 340 60 417 60 c 0
 469 60 513 70 552 94 c 0
 584 114 607 132 629 153 c 0
 646 171 662 192 671 212 c 0
 681 231 689 248 692 262 c 0
 695 276 698 291 702 309 c 1
 476 309 l 1
EndSplineSet
EndChar
StartChar: H
Encoding: 72 72 42
OldEncoding: 72
Width: 733
Flags: W
HStem: 0 21G<84 180 560 654> 339 84<270 632>
DStem: 242 741 338 741 84 0 270 423 242 741 252 339 84 0 180 0 632 339 812 741 560 0 654 0 718 741 812 741 650 423 654 0
Fore
560 0 m 1
 632 339 l 1
 252 339 l 1
 180 0 l 1
 84 0 l 1
 242 741 l 1
 338 741 l 1
 270 423 l 1
 650 423 l 1
 718 741 l 1
 812 741 l 1
 654 0 l 1
 560 0 l 1
EndSplineSet
EndChar
StartChar: I
Encoding: 73 73 43
OldEncoding: 73
Width: 282
Flags: W
HStem: 0 21G<102 196>
DStem: 260 741 354 741 102 0 196 0
Fore
102 0 m 1
 260 741 l 1
 354 741 l 5
 196 0 l 1
 102 0 l 1
EndSplineSet
EndChar
StartChar: J
Encoding: 74 74 44
OldEncoding: 74
Width: 508
Flags: W
DStem: 496 741 592 741 388 237 467 154
Fore
66 236 m 1
 164 236 l 1
 148 160 l 2
 146.146 150.729 145.117 142.009 145.117 133.787 c 0
 145.117 119.838 148.079 107.325 155 96 c 0
 165 80 182 68 203 63 c 0
 214 62 225 60 231 60 c 0
 269 60 304 75 334 104 c 0
 354 123 374 168 388 237 c 2
 496 741 l 1
 592 741 l 1
 467 154 l 1
 442 88 401 38 341 3 c 0
 311.507 -13.5899 265.874 -24.2336 206.45 -24.2336 c 0
 201.399 -24.2336 196.249 -24.1567 191 -24 c 0
 129 -22 88 2 69 40 c 0
 53.476 68.9312 46.4166 96.8665 46.4166 124.157 c 0
 46.4166 135.542 47.6451 146.814 50 158 c 2
 66 236 l 1
EndSplineSet
EndChar
StartChar: K
Encoding: 75 75 45
OldEncoding: 75
Width: 678
Flags: W
HStem: 0 21G<80 177 556 666>
DStem: 238 741 335 741 80 0 257 375 238 741 231 252 80 0 177 0 377 374 457 440 556 0 666 0 702 741 827 741 257 375 457 440
Fore
238 741 m 1
 335 741 l 1
 257 375 l 1
 702 741 l 1
 827 741 l 1
 457 440 l 1
 666 0 l 1
 556 0 l 1
 377 374 l 1
 231 252 l 1
 177 0 l 1
 80 0 l 1
 238 741 l 1
EndSplineSet
EndChar
StartChar: L
Encoding: 76 76 46
OldEncoding: 76
Width: 565
Flags: W
HStem: 0 84<195 543>
DStem: 239 741 335 741 81 0 195 84
Fore
239 741 m 1
 335 741 l 1
 195 84 l 1
 561 84 l 1
 543 0 l 1
 81 0 l 1
 239 741 l 1
EndSplineSet
EndChar
StartChar: M
Encoding: 77 77 47
OldEncoding: 77
Width: 847
Flags: W
HStem: 0 21G<76 174 376 474 676 774>
DStem: 234 741 302 602 76 0 174 0 302 602 370 741 376 0 449 110 797 741 804 602 449 110 474 0 804 602 932 741 676 0 774 0
Fore
474 0 m 1
 376 0 l 1
 302 602 l 1
 174 0 l 1
 76 0 l 1
 234 741 l 1
 370 741 l 1
 449 110 l 1
 797 741 l 1
 932 741 l 1
 774 0 l 1
 676 0 l 1
 804 602 l 1
 474 0 l 1
EndSplineSet
EndChar
StartChar: N
Encoding: 78 78 48
OldEncoding: 78
Width: 733
Flags: W
HStem: 0 21G<78 172 548 657>
DStem: 236 741 298 594 78 0 172 0 298 594 348 741 548 0 591 141 719 741 815 741 591 141 657 0
Fore
657 0 m 1
 548 0 l 1
 298 594 l 1
 172 0 l 1
 78 0 l 1
 236 741 l 1
 348 741 l 1
 591 141 l 1
 719 741 l 1
 815 741 l 1
 657 0 l 1
EndSplineSet
EndChar
StartChar: O
Encoding: 79 79 49
OldEncoding: 79
Width: 790
Flags: W
HStem: -24 87<389 411> 668 86<530 558>
Fore
556 754 m 0
 602 754 646 744 686 729 c 0
 725 714 752 696 768 678 c 0
 804 639 826 591 836 536 c 0
 840.242 512.247 842.324 488.314 842.324 464.125 c 0
 842.324 431.286 838.486 397.974 831 364 c 0
 819 308 797 250 763 195 c 0
 732 140 689 92 635 52 c 0
 612 36 577 18 531 2 c 0
 485 -15 437 -24 391 -24 c 0
 346 -24 305 -15 264 2 c 0
 225 16 199 34 181 52 c 0
 143 92 122 140 111 195 c 0
 107.605 218.344 105.83 242.228 105.83 266.27 c 0
 105.83 298.873 109.093 331.768 116 364 c 0
 124 400 137 438 153 477 c 0
 172 516 192 552 219 588 c 0
 246 622 280 652 314 678 c 0
 340 696 374 714 419 729 c 0
 466 744 511 754 556 754 c 0
538 668 m 0
 505 668 471 662 436 650 c 0
 402 638 370 621 345 597 c 0
 314 572 286 537 263 495 c 0
 241 454 222 410 212 364 c 0
 206.666 336.737 203.791 310.879 203.791 286.009 c 0
 203.791 268.918 205.149 252.293 208 236 c 0
 212 195 226 160 246 134 c 0
 279 87 334 63 409 63 c 0
 485 63 550 87 604 134 c 0
 636 159 662 194 686 236 c 0
 709 276 725 318 734 364 c 0
 740.533 394.052 744.079 423.251 744.079 451.317 c 0
 744.079 466.211 743.08 480.786 741 495 c 0
 735 537 724 572 703 597 c 0
 686 618 666 638 634 650 c 0
 606 662 574 668 538 668 c 0
EndSplineSet
EndChar
StartChar: P
Encoding: 80 80 50
OldEncoding: 80
Width: 678
Flags: W
HStem: 0 21G<93 188> 314 85<273 517> 657 84<251 558>
DStem: 251 741 328 657 93 0 273 399 251 741 255 314 93 0 188 0
Fore
93 0 m 1
 251 741 l 1
 562 741 l 2
 617 741 663 728 699 700 c 0
 732.422 677.132 745.732 638.019 745.732 584.021 c 0
 745.732 576.626 745.482 568.951 745 561 c 0
 744 552 741 538 738 524 c 0
 724 456 694 404 642 368 c 0
 593 332 547 314 501 314 c 2
 255 314 l 1
 188 0 l 1
 93 0 l 1
328 657 m 1
 273 399 l 1
 515 399 l 2
 533 399 557 410 587 432 c 0
 616 454 636 488 645 536 c 0
 647.026 546.357 647.988 555.903 647.988 564.683 c 0
 647.988 594.901 636.596 616.053 618 630 c 0
 597 650 570 657 542 657 c 2
 328 657 l 1
EndSplineSet
EndChar
StartChar: Q
Encoding: 81 81 51
OldEncoding: 81
Width: 790
Flags: W
HStem: -24 87<389 409> 668 86<530 558>
DStem: 473 152 530 208 535 90 607 134 597 27 667 78 683 -60 746 0
Fore
667 78 m 1
 746 0 l 1
 683 -60 l 1
 597 27 l 1
 529 -4 457 -22 391 -24 c 0
 346 -24 305 -15 264 2 c 0
 225 16 199 34 181 52 c 0
 143 92 122 140 111 195 c 0
 107.605 218.344 105.83 242.228 105.83 266.27 c 0
 105.83 298.873 109.093 331.768 116 364 c 0
 124 400 137 438 153 477 c 0
 172 516 192 552 219 588 c 0
 246 622 280 652 314 678 c 0
 340 696 374 714 419 729 c 0
 466 744 511 754 556 754 c 0
 602 754 646 744 686 729 c 0
 725 714 752 696 768 678 c 0
 804 639 826 591 836 536 c 0
 840.242 512.247 842.324 488.314 842.324 464.125 c 0
 842.324 431.286 838.486 397.974 831 364 c 0
 820 312 801 260 773 208 c 0
 746 158 710 114 667 78 c 1
535 90 m 1
 473 152 l 1
 530 208 l 1
 607 134 l 1
 628 152 645 171 663 196 c 0
 679 222 695 248 709 276 c 0
 719 304 728 334 734 364 c 0
 740.533 394.052 744.079 423.251 744.079 451.317 c 0
 744.079 466.211 743.08 480.786 741 495 c 0
 735 537 724 572 703 597 c 0
 686 618 666 638 634 650 c 0
 606 662 574 668 538 668 c 0
 505 668 471 662 436 650 c 0
 402 638 370 621 345 597 c 0
 314 572 286 537 263 495 c 0
 241 454 222 410 212 364 c 0
 206.666 336.737 203.791 310.879 203.791 286.009 c 0
 203.791 268.918 205.149 252.293 208 236 c 0
 212 195 226 160 246 134 c 0
 279 87 334 63 409 63 c 0
 453 63 495 70 535 90 c 1
EndSplineSet
EndChar
StartChar: R
Encoding: 82 82 52
OldEncoding: 82
Width: 733
Flags: W
HStem: 0 21G<94 190 576 690> 318 86<276 527> 657 84<252 591>
DStem: 252 741 330 657 94 0 276 404 252 741 258 318 94 0 190 0
Fore
94 0 m 1
 252 741 l 1
 584 741 l 2
 653 741 707 730 746 705 c 0
 771.803 687.306 785.106 653.85 785.106 607.037 c 0
 785.106 590.352 783.416 571.97 780 552 c 0
 772 506 757 470 736 444 c 0
 717 420 686 394 642 366 c 1
 676 342 695 321 700 300 c 0
 700.721 294.712 701.096 288.326 701.096 280.842 c 0
 701.096 257.192 697.356 222.578 689 177 c 0
 680.459 135.149 675.565 103.511 675.565 83.3317 c 0
 675.565 79.8847 675.708 76.7721 676 74 c 0
 675.944 72.7583 675.916 71.5357 675.916 70.3319 c 0
 675.916 50.2066 683.677 35.3227 695 24 c 1
 690 0 l 1
 576 0 l 1
 573.361 11.613 572.115 26.0124 572.115 42.757 c 0
 572.115 57.7338 573.111 74.5867 575 93 c 1
 593 180 l 2
 597.505 199.822 599.575 217.614 599.575 233.559 c 0
 599.575 253.01 596.495 269.713 591 284 c 0
 581 308 551 318 502 318 c 2
 258 318 l 1
 190 0 l 1
 94 0 l 1
569 657 m 2
 330 657 l 1
 276 404 l 1
 515 404 l 2
 598 404 652 441 676 516 c 1
 679.577 532.813 681.363 548.122 681.363 561.927 c 0
 681.363 625.309 643.724 657 569 657 c 2
EndSplineSet
EndChar
StartChar: S
Encoding: 83 83 53
OldEncoding: 83
Width: 678
Flags: W
HStem: -24 87<333 391> 674 80<457 491>
Fore
720 525 m 1
 628 525 l 1
 630.409 536.609 631.619 547.499 631.619 557.721 c 0
 631.619 594.167 616.238 622.133 585 644 c 0
 568 656 549 664 532 668 c 0
 512 670 494 674 469 674 c 0
 416 674 375 662 342 636 c 0
 308 610 286 582 279 549 c 0
 277.757 542.787 277.029 536.574 277.029 530.503 c 0
 277.029 521.917 278.485 513.615 282 506 c 0
 288 492 297 480 310 470 c 0
 334 453 370 444 414 432 c 0
 514 406 570 388 587 382 c 0
 616 370 642 350 661 316 c 0
 674.016 293.584 681.28 270.121 681.28 245.991 c 0
 681.28 236.752 680.215 227.414 678 218 c 0
 670 168 647 123 615 88 c 0
 581 52 539 24 491 4 c 0
 441 -14 389 -24 334 -24 c 0
 279 -22 235 -15 204 -2 c 0
 170 10 139 34 119 69 c 0
 101 99 92 123 91 146 c 0
 90.875 148.75 90.8125 151.625 90.8125 154.625 c 0
 90.8125 175.625 93.875 202.75 100 236 c 1
 188 236 l 1
 185.27 221.961 183.757 208.226 183.757 194.677 c 0
 183.757 173.482 187.46 152.741 196 132 c 0
 208 96 241 75 296 66 c 0
 311 64 341 63 391 63 c 1
 440 68 477 80 504 99 c 0
 543 126 566 158 574 196 c 0
 575.416 203.08 576.136 209.914 576.136 216.519 c 0
 576.136 242.568 564.932 265.057 541 285 c 1
 506 303 457 316 395 332 c 0
 347 342 319 352 308 357 c 0
 296 363 276 369 252 378 c 0
 205.611 393.463 182.099 428.852 182.099 484.167 c 0
 182.099 493.242 182.732 502.853 184 513 c 1
 194 560 212 600 240 638 c 0
 265 674 297 702 340 724 c 0
 382 744 430 754 484 754 c 0
 562 754 618 741 656 716 c 0
 702.068 680.082 725.579 635.019 725.579 577.003 c 0
 725.579 560.717 723.726 543.411 720 525 c 1
EndSplineSet
EndChar
StartChar: T
Encoding: 84 84 54
OldEncoding: 84
Width: 621
Flags: W
HStem: 0 21G<266 362> 657 84<179 406 180 743>
DStem: 406 657 502 657 266 0 362 0
Fore
266 0 m 1
 406 657 l 1
 162 657 l 1
 180 741 l 1
 761 741 l 1
 743 657 l 1
 502 657 l 1
 362 0 l 1
 266 0 l 1
EndSplineSet
EndChar
StartChar: U
Encoding: 85 85 55
OldEncoding: 85
Width: 733
Flags: W
HStem: -24 81<363 384>
DStem: 245 741 340 741 131 207 227 212 719 741 814 741 606 212 700 207
Fore
245 741 m 1
 340 741 l 1
 227 212 l 2
 224.885 201.955 223.819 192.19 223.819 182.63 c 0
 223.819 156.025 232.08 131.013 249 106 c 0
 274 75 316 57 382 57 c 0
 450 57 500 75 539 106 c 0
 576 140 598 174 606 212 c 2
 719 741 l 1
 814 741 l 1
 700 207 l 2
 695 184 685 160 671 135 c 0
 657 110 636 84 610 60 c 0
 581 34 547 15 507 0 c 0
 467 -15 418 -24 365 -24 c 0
 298 -24 245 -12 209 14 c 0
 170 39 147 70 137 106 c 0
 129.502 126.764 126.329 146.197 126.329 165.258 c 0
 126.329 179.246 128.037 193.033 131 207 c 2
 245 741 l 1
EndSplineSet
EndChar
StartChar: V
Encoding: 86 86 56
OldEncoding: 86
Width: 678
Flags: W
HStem: 0 21G<292 394>
DStem: 188 741 290 741 292 0 372 114
Fore
372 114 m 1
 713 741 l 1
 814 741 l 1
 394 0 l 1
 292 0 l 1
 188 741 l 1
 290 741 l 1
 372 114 l 1
EndSplineSet
EndChar
StartChar: W
Encoding: 87 87 57
OldEncoding: 87
Width: 958
Flags: W
HStem: 0 21G<210 314 651 756>
DStem: 588 741 610 603 297 144 314 0 610 603 692 741 651 0 730 144
Fore
730 144 m 1
 996 741 l 1
 1102 741 l 1
 756 0 l 1
 651 0 l 1
 610 603 l 1
 314 0 l 1
 210 0 l 1
 180 741 l 1
 287 741 l 1
 297 144 l 1
 588 741 l 1
 692 741 l 1
 730 144 l 1
EndSplineSet
EndChar
StartChar: X
Encoding: 88 88 58
OldEncoding: 88
Width: 678
Flags: W
HStem: 0 21G<22 141 543 660>
DStem: 198 741 314 741 365 380 441 458 365 380 408 302 22 0 141 0 408 302 483 380 543 0 660 0 692 741 808 741 441 458 483 380
Fore
808 741 m 1
 483 380 l 1
 660 0 l 1
 543 0 l 1
 408 302 l 1
 141 0 l 1
 22 0 l 1
 365 380 l 1
 198 741 l 1
 314 741 l 1
 441 458 l 1
 692 741 l 1
 808 741 l 1
EndSplineSet
EndChar
StartChar: Y
Encoding: 89 89 59
OldEncoding: 89
Width: 678
Flags: W
HStem: 0 21G<297 393>
DStem: 359 290 455 290 297 0 393 0
Fore
172 741 m 1
 288 741 l 1
 425 381 l 1
 714 741 l 1
 832 741 l 1
 455 290 l 1
 393 0 l 1
 297 0 l 1
 359 290 l 1
 172 741 l 1
EndSplineSet
MinimumDistance: x0,4 
EndChar
StartChar: Z
Encoding: 90 90 60
OldEncoding: 90
Width: 621
Flags: W
HStem: 0 84<166 594> 657 84<217 611>
DStem: 611 657 730 654 45 81 166 84
Fore
200 657 m 1
 218 741 l 1
 749 741 l 1
 730 654 l 1
 166 84 l 1
 612 84 l 1
 594 0 l 1
 28 0 l 1
 45 81 l 1
 611 657 l 1
 200 657 l 1
EndSplineSet
EndChar
StartChar: bracketleft
Encoding: 91 91 61
OldEncoding: 91
Width: 282
Flags: W
HStem: -218 77<122 209> 664 77<222 396>
DStem: 222 741 293 664 18 -218 122 -141
Fore
222 741 m 1
 413 741 l 1
 396 664 l 1
 293 664 l 1
 122 -141 l 1
 225 -141 l 1
 209 -218 l 1
 18 -218 l 1
 222 741 l 1
EndSplineSet
EndChar
StartChar: backslash
Encoding: 92 92 62
OldEncoding: 92
Width: 282
Flags: W
HStem: -21 21G<228 284>
DStem: 149 741 206 741 228 -21 284 -21
Fore
228 -21 m 1
 149 741 l 1
 206 741 l 1
 284 -21 l 1
 228 -21 l 1
EndSplineSet
EndChar
StartChar: bracketright
Encoding: 93 93 63
OldEncoding: 93
Width: 282
Flags: W
HStem: -219 77<-7 165> 664 77<181 267>
DStem: 267 664 370 741 96 -142 165 -219
Fore
165 664 m 1
 182 741 l 1
 370 741 l 1
 165 -219 l 1
 -23 -219 l 1
 -6 -142 l 1
 96 -142 l 1
 267 664 l 1
 165 664 l 1
EndSplineSet
EndChar
StartChar: asciicircum
Encoding: 94 94 64
OldEncoding: 94
Width: 475
Flags: W
HStem: 339 21G<116 188 434 504>
DStem: 355 726 373 639 116 339 188 339 373 639 430 726 434 339 504 339
Fore
116 339 m 1
 355 726 l 1
 430 726 l 1
 504 339 l 1
 434 339 l 1
 373 639 l 1
 188 339 l 1
 116 339 l 1
EndSplineSet
EndChar
StartChar: underscore
Encoding: 95 95 65
OldEncoding: 95
Width: 565
Flags: W
HStem: -178 50<-50 550>
Fore
561 -128 m 1
 550 -178 l 1
 -60 -178 l 1
 -49 -128 l 1
 561 -128 l 1
EndSplineSet
EndChar
StartChar: grave
Encoding: 96 96 66
OldEncoding: 96
Width: 273
VWidth: 2048
Flags: W
HStem: 606 135<200 351>
Fore
351 606 m 1
 282 606 l 1
 200 741 l 5
 316 741 l 1
 351 606 l 1
EndSplineSet
EndChar
StartChar: a
Encoding: 97 97 67
OldEncoding: 97
Width: 565
Flags: W
HStem: -24 74<225 235>
DStem: 449 261 577 438 427 154 501 80
Fore
577 438 m 2
 501 80 l 2
 500.702 78.5078 500.559 77.1047 500.559 75.774 c 0
 500.559 68.1871 505.194 62.9555 512 57 c 0
 521 52 536 50 555 50 c 1
 541 -14 l 1
 467 -24 l 1
 429.987 -11.3614 409.273 10.2418 409.273 43.0168 c 0
 409.273 46.5473 409.514 50.2074 410 54 c 1
 372 28 341 10 316 -2 c 0
 293 -14 259 -24 225 -24 c 0
 221.762 -24.1062 218.575 -24.1588 215.439 -24.1588 c 0
 159.486 -24.1588 119.673 -7.40771 96 21 c 0
 78.2032 41.6443 67.5011 68.8764 67.5011 101.614 c 0
 67.5011 114.865 69.2543 129.017 73 144 c 0
 81 184 102 216 126 237 c 0
 151 258 180 273 214 284 c 0
 242 291 267 297 289 300 c 0
 312 303 337 308 366 309 c 0
 393 310 410 312 419 314 c 0
 449 322 465 336 469 354 c 2
 483 418 l 1
 483.039 418.655 483.058 419.31 483.058 419.964 c 0
 483.058 436.295 471.076 452.27 448 459 c 0
 425.439 468.191 397.991 472.495 366.822 472.495 c 0
 360.689 472.495 354.412 472.329 348 472 c 0
 284 471 246 438 227 375 c 1
 148 375 l 1
 158 420 l 1
 169 441 182 460 202 480 c 0
 222 498 243 513 271 525 c 0
 296 537 329 544 372 549 c 1
 414 549 448 546 475 540 c 0
 507 532 537 520 554 501 c 0
 570.125 487.294 578.45 470.337 578.45 451.703 c 0
 578.45 447.225 577.969 442.65 577 438 c 2
427 154 m 2
 449 261 l 1
 429 252 405 248 379 244 c 0
 353 238 324 236 295 231 c 0
 266 225 242 219 227 213 c 0
 215 208 202 200 187 186 c 0
 172 174 164 159 160 141 c 0
 158.03 132.276 157.09 124.265 157.09 116.944 c 0
 157.09 98.2513 163.221 84.0602 174 74 c 0
 189 57 209 50 235 50 c 0
 238.387 49.7947 241.763 49.6948 245.127 49.6948 c 0
 274.537 49.6948 302.976 57.3342 329 69 c 0
 356 82 381 99 399 116 c 0
 416 134 425 146 427 154 c 2
EndSplineSet
EndChar
StartChar: b
Encoding: 98 98 68
OldEncoding: 98
Width: 565
Flags: W
HStem: -24 81<290 311> 0 21G<54 129> 462 87<384 421>
VStem: 501 99<346 352>
DStem: 212 741 299 741 54 0 241 470
Fore
212 741 m 1
 299 741 l 1
 241 470 l 1
 251 486 272 501 300 518 c 0
 318 525 336 534 355 540 c 0
 376 546 399 549 421 549 c 0
 483 549 530 526 562 482 c 0
 576 466 585 446 590 423 c 0
 597 402 600 378 600 352 c 0
 600.074 350.146 600.11 348.269 600.11 346.373 c 0
 600.11 322.703 594.555 295.923 589 270 c 0
 586 252 583 238 580 231 c 0
 568 178 541 132 512 92 c 0
 481 50 443 16 400 -2 c 0
 362 -18 325 -24 291 -24 c 0
 251 -24 222 -16 204 -2 c 0
 170 24 150 44 142 60 c 1
 129 0 l 1
 54 0 l 1
 212 741 l 1
413 106 m 0
 451 148 478 201 492 266 c 0
 498 297 501 326 501 351 c 0
 500 376 494 394 486 410 c 1
 472.031 443.526 442.45 462.308 394.836 462.308 c 0
 391.322 462.308 387.711 462.206 384 462 c 0
 338 462 300 444 270 412 c 0
 255 396 240 376 227 348 c 0
 211 316 201 286 194 255 c 0
 189.616 234.675 187.456 215.144 187.456 196.344 c 0
 187.456 167.971 192.376 141.262 202 116 c 0
 215 81 245 63 290 57 c 1
 342 57 384 75 413 106 c 0
EndSplineSet
EndChar
StartChar: c
Encoding: 99 99 69
OldEncoding: 99
Width: 508
Flags: W
HStem: 471 78<372 387>
Fore
443 184 m 1
 523 184 l 1
 513 141 496 105 472 76 c 0
 447 44 412 18 374 2 c 0
 338.065 -13.664 298.734 -24.2341 260.7 -24.2341 c 0
 257.456 -24.2341 254.222 -24.1572 251 -24 c 0
 211 -24 176 -10 146 9 c 0
 116 27 95 54 87 90 c 0
 80.9643 113.679 77.9464 139.297 77.9464 167.056 c 0
 77.9464 199.085 81.9643 233.964 90 272 c 0
 109 352 149 420 209 477 c 0
 259 524 317 548 385 549 c 0
 415 549 443 546 466 537 c 0
 493 530 512 518 524 501 c 1
 544 490 554 470 559 444 c 0
 562.366 431.498 563.882 418.071 563.882 403.719 c 0
 563.882 388.224 562.115 371.651 559 354 c 1
 475 354 l 1
 475 361 475.062 367.688 475.062 374.016 c 0
 475.062 393 474.5 408.75 470 420 c 0
 466 434 457 446 441 454 c 0
 417 466 392 471 372 471 c 0
 332 470 292 452 254 416 c 0
 227 390 200 346 183 284 c 0
 172.456 242.409 168.088 208.711 168.088 182.905 c 0
 168.088 164.657 170.272 150.355 174 140 c 0
 188.741 84.9658 226.662 56.9741 284.914 56.9741 c 0
 285.937 56.9741 286.965 56.9828 288 57 c 0
 310 57 332 64 355 76 c 0
 376 88 391 100 403 116 c 0
 422 141 434 162 443 184 c 1
EndSplineSet
EndChar
StartChar: d
Encoding: 100 100 70
OldEncoding: 100
Width: 565
Flags: W
HStem: -24 81<259 291> -2 21G<429 504> 460 89<353 379>
DStem: 576 741 662 741 518 470 504 -2
Fore
576 741 m 1
 662 741 l 1
 504 -2 l 1
 429 -2 l 1
 442 62 l 1
 414 36 385 14 355 -3 c 0
 333 -16 299 -24 259 -24 c 0
 219 -24 185 -16 158 -2 c 0
 123 16 102 48 88 90 c 0
 79.3864 118.712 74.8947 151.03 74.8947 186.586 c 0
 74.8947 200.564 75.589 215.043 77 230 c 0
 77 237 81 252 85 272 c 0
 93 312 109 351 128 388 c 0
 148 428 172 458 198 480 c 0
 254 525 311 549 369 549 c 0
 414 549 450 538 479 518 c 0
 498 501 511 486 518 470 c 1
 576 741 l 1
190 105 m 0
 209.471 74.8192 241.265 56.9604 287.226 56.9604 c 0
 288.474 56.9604 289.732 56.9736 291 57 c 0
 314 57 336 64 356 75 c 0
 378 84 395 99 407 116 c 0
 439 156 461 201 472 252 c 0
 477.17 277.113 480.158 301.135 480.158 324.065 c 0
 480.158 332.18 479.784 340.158 479 348 c 0
 476 376 472 399 465 410 c 0
 446 444 414 460 370 460 c 0
 318 460 277 444 246 410 c 0
 214 375 191 326 178 264 c 0
 173.029 239.529 170.544 216.667 170.544 195.413 c 0
 170.544 161.079 177.029 130.941 190 105 c 0
EndSplineSet
EndChar
StartChar: e
Encoding: 101 101 71
OldEncoding: 101
Width: 565
Flags: W
HStem: -24 75<275 295> 232 77<201 571> 480 69<400 420>
Fore
571 232 m 1
 181 232 l 1
 176.833 212 174.75 194.778 174.75 180.333 c 0
 174.75 177.444 174.833 174.667 175 172 c 0
 175 158 178 140 185 117 c 1
 210 74 243 51 293 51 c 0
 319 51 338 54 359 63 c 0
 378 70 393 81 408 93 c 0
 421 105 431 118 440 130 c 0
 447 142 453 153 457 162 c 1
 544 162 l 1
 525 117 500 81 474 56 c 0
 448 30 423 12 388 -2 c 0
 353 -16 316 -24 279 -24 c 0
 241 -24 207 -16 178 -2 c 0
 149 14 124 34 107 63 c 0
 92.7346 89.7475 85.182 124.974 85.182 167 c 0
 85.182 195.679 88.699 227.523 96 262 c 0
 117 352 154 422 206 470 c 0
 265.947 521.102 334.585 549.026 415.712 549.026 c 0
 417.138 549.026 418.567 549.017 420 549 c 0
 441 549 460 544 478 537 c 0
 499 531 515 522 530 510 c 0
 544 498 555 486 560 472 c 0
 575 447 584 423 586 400 c 0
 588.866 382.804 591.219 366.634 591.219 352.227 c 0
 591.219 346.527 590.85 341.103 590 336 c 0
 587 315 580 282 571 232 c 1
201 309 m 1
 495 309 l 1
 497.343 321.302 498.314 335.319 498.314 349.846 c 0
 498.314 360.118 497.828 370.645 497 381 c 0
 492 406 489 423 482 432 c 1
 480 444 472 454 454 462 c 0
 439 471 423 480 400 480 c 0
 397.146 480.106 394.328 480.158 391.546 480.158 c 0
 341.694 480.158 303.362 463.256 274 432 c 1
 263 426 249 408 234 382 c 0
 217 356 208 330 201 309 c 1
EndSplineSet
EndChar
StartChar: f
Encoding: 102 102 72
OldEncoding: 102
Width: 282
Flags: W
HStem: 0 21G<90 177> 456 78<131 187 291 358> 669 75<375 404>
DStem: 187 456 274 456 90 0 177 0
Fore
90 0 m 1
 187 456 l 1
 115 456 l 1
 132 534 l 1
 204 534 l 1
 223 624 l 2
 230 660 248 688 274 710 c 0
 301 730 320 741 335 741 c 0
 342 742 356 744 376 744 c 0
 395 744 410 742 420 741 c 1
 404 669 l 1
 373 669 349 666 335 660 c 0
 321 651 312 636 307 612 c 2
 291 534 l 1
 375 534 l 1
 358 456 l 1
 274 456 l 1
 177 0 l 1
 90 0 l 1
EndSplineSet
EndChar
StartChar: g
Encoding: 103 103 73
OldEncoding: 103
Width: 565
Flags: W
HStem: -222 75<207 235> 456 93<358 379>
Fore
526 534 m 1
 610 534 l 1
 515 90 l 2
 504 38 490 -8 477 -44 c 0
 463 -81 444 -114 418 -142 c 0
 394 -171 365 -190 326 -201 c 0
 293 -212 261 -219 235 -222 c 1
 179 -222 140 -218 116 -207 c 0
 91 -195 69 -182 57 -165 c 0
 44 -147 35 -130 33 -112 c 0
 32.7321 -107.177 32.6077 -102.497 32.6077 -97.923 c 0
 32.6077 -85.4256 33.5359 -73.7128 35 -62 c 1
 121 -62 l 1
 121 -64 123 -69 123 -78 c 0
 123 -81.6 122.84 -84.72 122.84 -87.552 c 0
 122.84 -91.8 123.2 -95.4 125 -99 c 0
 125 -104 130 -110 135 -116 c 0
 142 -122 151 -129 165 -135 c 0
 179 -144 201 -147 229 -147 c 0
 257 -147 285 -142 310 -134 c 1
 334 -122 352 -110 360 -99 c 0
 369 -88 379 -70 390 -48 c 0
 405 -12 418 26 426 64 c 1
 364.971 5.87684 301.126 -24.0938 238.103 -24.0938 c 0
 236.067 -24.0938 234.033 -24.0626 232 -24 c 0
 193 -22 159 -4 131 24 c 1
 105 42 89 70 79 108 c 0
 74.6013 128.894 72.3189 150.392 72.3189 173.16 c 0
 72.3189 191.801 73.8488 211.292 77 232 c 0
 87 276 102 321 121 363 c 0
 140 405 163 441 187 466 c 0
 202 482 228 500 265 520 c 0
 300 538 339 549 377 549 c 0
 434 548 480 522 512 470 c 1
 526 534 l 1
385 99 m 0
 424 132 451 184 466 256 c 0
 472.762 284.74 475.238 312.051 475.238 337.933 c 0
 475.238 342.67 475.155 347.359 475 352 c 0
 473 382 464 405 452 420 c 0
 448 428 436 435 420 444 c 0
 404 453 383 456 365 456 c 0
 309 456 261 430 226 378 c 0
 204 346 187 308 175 258 c 0
 167.985 230.378 164.814 205.639 164.814 183.953 c 0
 164.814 156.177 170.015 133.408 179 116 c 0
 197 80 228 57 270 57 c 0
 271.5 56.9667 272.993 56.95 274.48 56.95 c 0
 317.591 56.95 355.033 70.9667 385 99 c 0
EndSplineSet
EndChar
StartChar: h
Encoding: 104 104 74
OldEncoding: 104
Width: 565
Flags: W
HStem: 0 21G<70 156 408 495> 471 78<373 438>
DStem: 228 741 314 741 70 0 256 470 228 741 230 348 70 0 156 0 485 364 581 405 408 0 495 0
Fore
70 0 m 1
 228 741 l 1
 314 741 l 1
 256 470 l 1
 289 498 324 520 362 536 c 1
 395 544 420 549 438 549 c 0
 467 549 493 540 519 531 c 0
 552 518 571 500 577 472 c 0
 580.875 455.21 583.081 439.672 583.081 425.923 c 0
 583.081 418.38 582.417 411.376 581 405 c 2
 495 0 l 1
 408 0 l 1
 485 364 l 2
 488.09 378.046 489.602 390.514 489.602 401.492 c 0
 489.602 429.592 479.696 447.933 461 458 c 1
 437 466 408 471 373 471 c 1
 347 466 316 452 281 426 c 0
 254 405 237 380 230 348 c 2
 156 0 l 1
 70 0 l 1
EndSplineSet
EndChar
StartChar: i
Encoding: 105 105 75
OldEncoding: 105
Width: 225
Flags: W
HStem: 0 21G<68 153>
DStem: 182 534 267 534 68 0 153 0 226 741 311 741 203 636 288 636
Fore
267 534 m 1
 153 0 l 1
 68 0 l 1
 182 534 l 1
 267 534 l 1
311 741 m 1
 288 636 l 1
 203 636 l 1
 226 741 l 1
 311 741 l 1
EndSplineSet
EndChar
StartChar: j
Encoding: 106 106 76
OldEncoding: 106
Width: 225
Flags: W
DStem: 183 534 270 534 48 -99 131 -117 227 741 314 741 204 636 291 636
Fore
204 636 m 1
 227 741 l 1
 314 741 l 1
 291 636 l 1
 204 636 l 1
-65 -222 m 1
 -49 -147 l 1
 2 -142 l 2
 14 -141 25 -135 35 -126 c 0
 41 -117 46 -106 48 -99 c 2
 183 534 l 1
 270 534 l 1
 131 -117 l 2
 127 -135 119 -154 103 -174 c 0
 87 -194 62 -207 32 -216 c 0
 10 -220 -21 -222 -65 -222 c 1
EndSplineSet
EndChar
StartChar: k
Encoding: 107 107 77
OldEncoding: 107
Width: 508
Flags: W
HStem: 0 21G<60 144 405 510>
DStem: 218 741 302 741 60 0 210 312 218 741 187 200 60 0 144 0 292 285 366 350 405 0 510 0 483 534 594 534 210 312 366 350
Fore
218 741 m 1
 302 741 l 1
 210 312 l 1
 483 534 l 1
 594 534 l 1
 366 350 l 1
 510 0 l 1
 405 0 l 1
 292 285 l 1
 187 200 l 1
 144 0 l 1
 60 0 l 1
 218 741 l 1
EndSplineSet
EndChar
StartChar: l
Encoding: 108 108 78
OldEncoding: 108
Width: 225
Flags: W
HStem: 0 21G<69 154>
DStem: 227 741 312 741 69 0 154 0
Fore
69 0 m 1
 227 741 l 1
 312 741 l 1
 154 0 l 1
 69 0 l 1
EndSplineSet
EndChar
StartChar: m
Encoding: 109 109 79
OldEncoding: 109
Width: 847
Flags: W
HStem: 0 21G<74 158 381 466 690 777> 471 78<384 431 688 726>
DStem: 188 534 231 344 74 0 158 0 462 382 543 363 381 0 466 0 771 381 866 417 690 0 777 0
Fore
74 0 m 1
 188 534 l 1
 272 534 l 1
 257 466 l 1
 286 500 309 520 325 526 c 0
 355 543 391 549 431 549 c 0
 471 549 501 543 517 530 c 0
 535 513 549 495 559 470 c 1
 572 482 583 492 589 498 c 0
 596 506 604 512 614 519 c 0
 624 525 633 531 645 536 c 0
 668 544 695 549 726 549 c 0
 773 549 806 544 821 532 c 0
 830 526 839 519 849 506 c 0
 858 494 862 478 866 462 c 0
 866.608 452.886 867.584 443.771 867.584 434.657 c 0
 867.584 428.771 867.177 422.886 866 417 c 2
 777 0 l 1
 690 0 l 1
 771 381 l 1
 771.258 384.863 771.387 388.602 771.387 392.216 c 0
 771.387 444.739 744.137 471 688 471 c 0
 650 471 620 460 598 441 c 0
 572 420 555 394 543 363 c 1
 466 0 l 1
 381 0 l 1
 462 382 l 2
 463.9 390.771 464.818 398.879 464.818 406.332 c 0
 464.818 449.859 433.521 471 384 471 c 0
 349 471 318 459 288 435 c 0
 262 412 241 381 231 344 c 1
 158 0 l 1
 74 0 l 1
EndSplineSet
EndChar
StartChar: n
Encoding: 110 110 80
OldEncoding: 110
Width: 565
Flags: W
HStem: 0 21G<70 156 410 495> 471 78<403 441>
DStem: 184 534 216 284 70 0 156 0 489 370 583 416 410 0 495 0
Fore
184 534 m 1
 270 534 l 1
 255 466 l 1
 283 496 308 518 330 525 c 1
 351.941 539.31 387.533 549.069 434.172 549.069 c 0
 436.422 549.069 438.698 549.046 441 549 c 0
 480 549 508 544 524 536 c 0
 543 524 560 508 571 494 c 0
 580.167 481.013 584.082 463.358 584.082 439.696 c 0
 584.082 432.384 583.708 424.498 583 416 c 1
 495 0 l 1
 410 0 l 1
 489 370 l 2
 491.019 379.285 491.896 387.593 491.896 395.251 c 0
 491.896 406.563 489.981 416.459 487 426 c 0
 481 441 470 453 454 459 c 0
 439 468 422 471 403 471 c 0
 362 471 323 456 289 428 c 0
 255 399 230 350 216 284 c 2
 156 0 l 1
 70 0 l 1
 184 534 l 1
EndSplineSet
EndChar
StartChar: o
Encoding: 111 111 81
OldEncoding: 111
Width: 565
Flags: W
HStem: -24 87<272 296> 465 84<367 395>
Fore
95 81 m 0
 86.3712 104.856 82.1222 132.062 82.1222 162.747 c 0
 82.1222 192.516 86.1212 225.561 94 262 c 0
 110 339 136 399 172 444 c 0
 202 480 237 508 277 525 c 0
 315 543 354 549 395 549 c 0
 433 549 471 540 503 524 c 0
 536 507 556 480 571 444 c 0
 581.061 418.583 585.794 389.802 585.794 357.359 c 0
 585.794 328.533 582.057 296.816 575 262 c 0
 560 192 534 130 494 81 c 0
 464 46 432 18 392 2 c 0
 353 -15 311 -24 273 -24 c 0
 232 -24 197 -15 165 2 c 0
 133 18 110 46 95 81 c 0
291 63 m 0
 317 63 345 69 369 82 c 0
 396 96 417 117 435 144 c 0
 459 184 478 224 486 262 c 0
 489.882 280.441 491.881 299.352 491.881 318.735 c 0
 491.881 339.294 489.632 360.382 485 382 c 0
 479 410 466 430 446 444 c 0
 425 458 402 465 377 465 c 0
 349 465 322 458 296 446 c 0
 269 432 246 412 227 382 c 1
 216 357 205 334 197 315 c 0
 189 297 182 278 179 262 c 0
 175.894 248.244 174.166 232.519 174.166 215.262 c 0
 174.166 193.629 176.881 169.588 183 144 c 0
 187 117 202 96 221 82 c 0
 240 69 263 63 291 63 c 0
EndSplineSet
EndChar
StartChar: p
Encoding: 112 112 82
OldEncoding: 112
Width: 565
Flags: W
HStem: -24 88<294 318> 470 79<378 409>
DStem: 168 534 153 57 7 -222 94 -222
Fore
94 -222 m 1
 7 -222 l 1
 168 534 l 1
 243 534 l 1
 228 466 l 1
 245 486 274 507 314 530 c 0
 339 543 372 549 409 549 c 0
 449 549 483 543 512 526 c 0
 548 508 572 478 584 435 c 0
 592.721 406.825 598.741 377.301 598.741 345.52 c 0
 598.741 329.926 597.292 313.788 594 297 c 0
 593 288 590 274 587 258 c 0
 578 216 562 174 542 138 c 0
 522 99 497 68 470 46 c 0
 417 0 359 -24 299 -24 c 0
 256 -24 219 -14 192 9 c 0
 173 24 160 39 153 57 c 1
 94 -222 l 1
479 420 m 0
 462.449 452.129 429.783 470.04 381.925 470.04 c 0
 380.628 470.04 379.319 470.026 378 470 c 0
 356 470 335 460 315 453 c 1
 294 441 277 428 264 410 c 0
 230 369 209 324 198 273 c 0
 193.608 251.038 190.823 228.541 190.823 206.685 c 0
 190.823 198.685 191.196 190.771 192 183 c 0
 193 154 199 130 207 116 c 0
 216 99 228 87 247 78 c 0
 263 69 280 64 300 64 c 0
 353 64 392 81 424 116 c 0
 453 148 477 196 490 260 c 0
 495.505 285.164 498.226 308.782 498.226 330.732 c 0
 498.226 364.609 491.743 394.514 479 420 c 0
EndSplineSet
EndChar
StartChar: q
Encoding: 113 113 83
OldEncoding: 113
Width: 565
Flags: W
HStem: -24 88<247 286> 470 79<375 391>
DStem: 430 57 618 534 371 -222 457 -222
Fore
457 -222 m 1
 371 -222 l 1
 430 57 l 1
 419 40 398 24 371 9 c 0
 333 -14 292 -24 247 -24 c 0
 189 -24 142 0 106 46 c 0
 83.0101 76.8721 70.8066 117.236 70.8066 167.659 c 0
 70.8066 194.001 74.1371 223.087 81 255 c 0
 85 273 88 288 91 297 c 0
 108 348 132 393 161 435 c 0
 194 478 228 508 270 526 c 0
 303 543 341 549 381 549 c 0
 420 549 449 543 469 530 c 0
 495 510 514 490 528 466 c 1
 543 534 l 1
 618 534 l 1
 457 -222 l 1
257 420 m 0
 215 378 188 322 177 258 c 0
 171.507 233.283 169.093 210.875 169.093 190.897 c 0
 169.093 159.953 174.885 134.838 184 116 c 0
 200 81 234 64 286 64 c 0
 306 64 329 69 349 78 c 0
 369 87 387 100 403 116 c 0
 430 144 451 183 467 234 c 0
 470 243 472 255 476 272 c 0
 480.45 293.846 482.609 314.055 482.609 333.024 c 0
 482.609 360.945 477.932 386.182 469 410 c 0
 465 428 456 441 438 452 c 0
 422 460 402 470 379 470 c 0
 377.666 470.028 376.336 470.042 375.011 470.042 c 0
 328.673 470.042 288.11 453.055 257 420 c 0
EndSplineSet
EndChar
StartChar: r
Encoding: 114 114 84
OldEncoding: 114
Width: 339
Flags: W
HStem: 0 21G<69 156> 459 90<395 425>
DStem: 183 534 215 278 69 0 156 0
Fore
69 0 m 1
 183 534 l 1
 270 534 l 1
 252 452 l 1
 273 480 299 504 327 522 c 0
 351 538 376 548 395 549 c 2
 444 549 l 1
 425 459 l 1
 394 459 365 456 341 447 c 0
 308 434 282 414 260 388 c 0
 239 360 225 324 215 278 c 2
 156 0 l 1
 69 0 l 1
EndSplineSet
EndChar
StartChar: s
Encoding: 115 115 85
OldEncoding: 115
Width: 508
Flags: W
Fore
68 158 m 1
 150 158 l 1
 149.586 148.473 149.343 140.319 149.343 133.324 c 0
 149.343 123.431 149.828 115.858 151 110 c 0
 152 102 160 92 169 81 c 0
 177 70 195 63 218 54 c 1
 231 52 257 51 295 51 c 1
 326 56 349 63 366 74 c 0
 374 78 385 88 396 102 c 0
 404 114 409 126 411 138 c 0
 412.214 143.552 412.827 148.863 412.827 153.912 c 0
 412.827 177.967 398.928 196.082 370 206 c 0
 358 208 343 212 324 218 c 0
 303 222 285 226 271 231 c 0
 257 234 241 238 223 244 c 0
 206 249 192 255 183 260 c 0
 145.764 273.679 127.584 302.372 127.584 345.202 c 0
 127.584 358.733 129.399 373.675 133 390 c 0
 144 440 170 478 214 507 c 0
 258 536 307 549 363 549 c 0
 474.583 549 530.052 508.597 530.052 427.144 c 0
 530.052 414.43 528.7 400.716 526 386 c 1
 442 386 l 1
 443.301 391.723 443.925 397.379 443.925 402.879 c 0
 443.925 418.52 438.878 432.902 430 444 c 0
 419 459 387 468 337 470 c 1
 283 466 247 447 222 414 c 0
 219 408 215 400 212 388 c 0
 211 383.2 210.52 378.72 210.52 374.552 c 0
 210.52 357.88 218.2 346.2 231 339 c 0
 242 334 252 328 261 326 c 0
 268 322 281 321 298 315 c 0
 314 310 331 304 349 300 c 0
 398 291 435 278 463 260 c 0
 487.083 243.708 499.125 217.382 499.125 179.955 c 0
 499.125 164.543 497.083 147.25 493 128 c 1
 483 100 469 75 446 52 c 0
 424 28 398 10 369 -2 c 0
 341 -14 307 -22 268 -24 c 0
 260.384 -24.3542 253.05 -24.5203 246.004 -24.5203 c 0
 213.269 -24.5203 186.749 -20.9373 167 -16 c 0
 96.9167 -1.5 61.875 40.2546 61.875 106.127 c 0
 61.875 122.028 63.9167 139.333 68 158 c 1
EndSplineSet
EndChar
StartChar: t
Encoding: 116 116 86
OldEncoding: 116
Width: 282
Flags: W
HStem: -24 78<161 230> 456 78<127 185 288 355>
DStem: 185 456 271 456 99 52 192 84 232 678 318 678 202 534 288 534
Fore
318 678 m 1
 288 534 l 1
 372 534 l 1
 355 456 l 1
 271 456 l 1
 192 84 l 2
 191.528 81.6389 191.292 79.4171 191.292 77.3347 c 0
 191.292 61.7782 204.424 54 230 54 c 0
 237 54 250 56 270 57 c 1
 255 -16 l 1
 229 -22 199 -24 161 -24 c 1
 137 -21 118 -10 108 8 c 0
 101.25 20 97.875 31.4375 97.875 41.8906 c 0
 97.875 45.375 98.25 48.75 99 52 c 2
 185 456 l 1
 111 456 l 1
 128 534 l 1
 202 534 l 1
 232 678 l 1
 318 678 l 1
EndSplineSet
EndChar
StartChar: u
Encoding: 117 117 87
OldEncoding: 117
Width: 565
Flags: W
HStem: -24 81<231 254> 0 21G<405 490>
DStem: 180 534 266 534 89 108 185 156 519 534 604 534 457 244 490 0
Fore
490 0 m 1
 405 0 l 1
 417 57 l 1
 388 27 365 9 344 -2 c 0
 313 -15 277 -24 231 -24 c 0
 199 -24 170 -21 149 -12 c 1
 109.635 12.3686 88.718 47.2785 88.718 97.6698 c 0
 88.718 101.043 88.8118 104.486 89 108 c 1
 180 534 l 1
 266 534 l 1
 185 156 l 2
 182.885 145.691 181.819 136.22 181.819 127.496 c 0
 181.819 103.215 190.08 84.7133 207 70 c 0
 220 63 234 57 252 57 c 0
 278 57 298 60 313 63 c 0
 359 78 390 100 414 132 c 0
 433 160 447 198 457 244 c 2
 519 534 l 1
 604 534 l 1
 490 0 l 1
EndSplineSet
EndChar
StartChar: v
Encoding: 118 118 88
OldEncoding: 118
Width: 508
Flags: W
HStem: 0 21G<196 290>
Fore
290 0 m 1
 196 0 l 1
 124 534 l 1
 219 534 l 1
 266 102 l 1
 513 534 l 1
 609 534 l 1
 290 0 l 1
EndSplineSet
EndChar
StartChar: w
Encoding: 119 119 89
OldEncoding: 119
Width: 733
Flags: W
HStem: 0 21G<159 256 466 562>
DStem: 424 534 443 405 232 118 256 0
Fore
159 0 m 1
 122 534 l 1
 216 534 l 1
 232 118 l 1
 424 534 l 1
 530 534 l 1
 541 118 l 1
 738 534 l 1
 834 534 l 1
 562 0 l 1
 466 0 l 1
 443 405 l 1
 256 0 l 1
 159 0 l 1
EndSplineSet
EndChar
StartChar: x
Encoding: 120 120 90
OldEncoding: 120
Width: 508
Flags: W
HStem: 0 21G<16 114 386 482>
DStem: 142 534 240 534 264 273 329 346 264 273 293 200 16 0 114 0 293 200 356 274 386 0 482 0 496 534 594 534 329 346 356 274
Fore
293 200 m 1
 114 0 l 1
 16 0 l 1
 264 273 l 1
 142 534 l 1
 240 534 l 1
 329 346 l 1
 496 534 l 1
 594 534 l 1
 356 274 l 1
 482 0 l 1
 386 0 l 1
 293 200 l 1
EndSplineSet
EndChar
StartChar: y
Encoding: 121 121 91
OldEncoding: 121
Width: 508
Flags: W
HStem: -222 82<53 86>
DStem: 135 534 224 534 193 -9 274 130 193 -9 600 534 145 -93 218 -123 508 534 600 534 274 130 218 -123
Fore
508 534 m 1
 600 534 l 1
 218 -123 l 2
 195 -166 163 -194 126 -208 c 0
 106 -218 81 -222 53 -222 c 0
 34 -222 19 -219 7 -210 c 1
 24 -130 l 1
 35 -135 57 -140 86 -140 c 1
 109 -135 128 -120 145 -93 c 2
 193 -9 l 1
 135 534 l 1
 224 534 l 1
 274 130 l 1
 508 534 l 1
EndSplineSet
EndChar
StartChar: z
Encoding: 122 122 92
OldEncoding: 122
Width: 508
Flags: W
HStem: 0 84<164 465> 448 86<167 439>
DStem: 439 448 551 459 47 69 164 84
Fore
567 534 m 1
 551 459 l 1
 164 84 l 1
 483 84 l 1
 465 0 l 1
 32 0 l 1
 47 69 l 1
 439 448 l 1
 149 448 l 1
 168 534 l 1
 567 534 l 1
EndSplineSet
EndChar
StartChar: braceleft
Encoding: 123 123 93
OldEncoding: 123
Width: 339
Flags: W
DStem: 140 82 221 100 103 -92 183 -80 254 616 329 608 217 444 291 426
Fore
92 226 m 1
 107 298 l 1
 141 304 167 321 181 342 c 0
 195 364 208 399 217 444 c 2
 254 616 l 2
 262 652 279 681 303 705 c 0
 326 728 348 741 365 741 c 2
 440 744 l 1
 426 676 l 1
 378 670 l 2
 364 669 354 664 347 654 c 0
 341 644 333 628 329 608 c 2
 291 426 l 2
 281 380 265 344 245 321 c 0
 223 297 203 278 182 262 c 1
 195 252 208 236 219 210 c 0
 225.273 196.408 228.267 179.81 228.267 160.348 c 0
 228.267 142.582 225.772 122.43 221 100 c 2
 183 -80 l 2
 180.317 -91.8069 179.361 -101.886 179.361 -110.391 c 0
 179.361 -117.733 180.073 -123.903 181 -129 c 0
 183 -140 191 -144 205 -146 c 2
 250 -152 l 1
 236 -218 l 1
 161 -216 l 2
 144 -216 128 -201 115 -178 c 0
 105.244 -162.669 99.8587 -144.425 99.8587 -122.591 c 0
 99.8587 -113.092 100.878 -102.914 103 -92 c 2
 140 82 l 2
 146.515 112.622 149.635 137.301 149.635 156.867 c 0
 149.635 167.332 148.742 176.334 147 184 c 0
 140 207 123 220 92 226 c 1
EndSplineSet
EndChar
StartChar: bar
Encoding: 124 124 94
OldEncoding: 124
Width: 264
Flags: W
DStem: 260 741 320 741 55 -219 115 -219
Fore
320 741 m 1
 115 -219 l 1
 55 -219 l 1
 260 741 l 1
 320 741 l 1
EndSplineSet
EndChar
StartChar: braceright
Encoding: 125 125 95
OldEncoding: 125
Width: 339
Flags: W
DStem: 131 100 203 82 93 -80 166 -92 239 608 317 616 201 426 280 444
Fore
329 298 m 1
 314 226 l 1
 281 220 256 207 240 184 c 0
 226 162 213 129 203 82 c 2
 166 -92 l 2
 161 -116 153 -135 139 -154 c 0
 125 -172 112 -186 98 -198 c 0
 84 -208 71 -213 58 -216 c 2
 -18 -218 l 1
 -4 -152 l 1
 44 -146 l 2
 57 -144 70 -138 77 -128 c 0
 83 -117 88 -102 93 -80 c 2
 131 100 l 2
 141 146 157 183 182 208 c 0
 204 234 224 252 240 262 c 0
 239 262 237 268 230 276 c 0
 221 285 215 297 208 312 c 0
 202 327 196 342 195 362 c 0
 195 380 195 400 201 426 c 2
 239 608 l 2
 241.928 622.641 243.785 635.138 243.785 644.708 c 0
 243.785 648.21 243.536 651.32 243 654 c 0
 240 664 230 669 217 670 c 2
 172 676 l 1
 186 744 l 1
 262 741 l 2
 273 740 284 734 294 724 c 0
 303 712 311 699 317 680 c 0
 319.864 671.407 321.133 661.901 321.133 651.702 c 0
 321.133 640.538 319.613 628.542 317 616 c 2
 280 444 l 2
 274.214 415.071 271.321 390.276 271.321 370.409 c 0
 271.321 359.372 272.214 349.857 274 342 c 0
 280 321 299 304 329 298 c 1
EndSplineSet
EndChar
StartChar: asciitilde
Encoding: 126 126 96
OldEncoding: 126
Width: 592
Flags: W
HStem: 272 68<466 484> 381 65<265 279>
DStem: 298 366 329 432 391 297 445 352
Fore
193 297 m 1
 139 297 l 1
 152 350 172 388 197 410 c 0
 224 434 251 446 279 446 c 0
 299 446 314 442 329 432 c 2
 445 352 l 2
 456 346 468 340 484 340 c 0
 498 340 508 344 519 351 c 0
 533 362 543 382 551 418 c 1
 605 418 l 1
 596 375 578 339 550 312 c 0
 527 285 499 272 466 272 c 0
 445 272 416 278 391 297 c 2
 298 366 l 1
 288 376 277 381 265 381 c 0
 251 381 235 374 222 357 c 0
 208 342 198 322 193 297 c 1
EndSplineSet
EndChar
StartChar: uni0E10.descless
Encoding: 128 63232 98
OldEncoding: 63232
Width: 546
Flags: W
HStem: 0 21G<375 459> 146 50<242 258> 302 52<269 289> 478 62<567 585> 530 56<373 391>
DStem: 447 279 519 284 418 141 459 0
Fore
287 354 m 0
 309 354 329 348 345 336 c 0
 361 324 374 308 379 286 c 2
 418 141 l 1
 447 279 l 2
 451.177 298.956 453.415 315.897 453.415 329.823 c 0
 453.415 345.902 450.431 357.962 444 366 c 0
 433 381 411 394 376 406 c 0
 338 418 299 428 258 434 c 0
 217 442 188 447 165 448 c 1
 197 488 233 520 270 548 c 0
 308 573 349 586 389 586 c 0
 411 586 432 585 446 582 c 0
 461 576 479 572 499 562 c 0
 520 555 535 549 546 546 c 0
 557 543 571 540 583 540 c 0
 603 540 624 546 644 555 c 1
 645 495 l 1
 615 483 588 478 567 478 c 0
 550 478 537 480 526 483 c 0
 515 486 499 494 475 501 c 0
 454 510 437 518 423 522 c 0
 409 526 395 530 379 530 c 0
 362 530 343 524 323 516 c 0
 303 506 291 496 289 492 c 1
 296 490 308 488 322 483 c 0
 336 478 355 472 378 466 c 0
 402 460 421 456 432 453 c 0
 484 440 515 420 524 396 c 0
 527.617 385.55 529.296 373.485 529.296 359.544 c 0
 529.296 338.8 525.579 313.904 519 284 c 2
 459 0 l 1
 375 0 l 1
 375.295 5.31074 375.438 10.578 375.438 15.8273 c 0
 375.438 46.162 370.672 75.9008 363 110 c 0
 355 148 348 178 342 196 c 1
 335 182 320 170 300 159 c 0
 282 152 263 146 243 146 c 0
 211 146 187 156 173 177 c 0
 163.2 191.7 158.3 207.87 158.3 225.51 c 0
 158.3 233.07 159.2 240.9 161 249 c 0
 167 278 181 303 204 324 c 0
 227 344 255 354 287 354 c 0
254 196 m 0
 272 196 286 201 295 212 c 0
 308 224 314 236 317 249 c 0
 318 254 318.556 258.667 318.556 263.037 c 0
 318.556 271.778 316.333 279.333 311 286 c 0
 306 297 294 302 276 302 c 0
 260 302 246 297 235 286 c 0
 224 276 215 264 212 249 c 0
 211.299 245.96 210.98 242.976 210.98 240.045 c 0
 210.98 230.443 214.403 221.428 219 213 c 0
 226 201 238 196 254 196 c 0
EndSplineSet
EndChar
StartChar: uni0E34.left
Encoding: 129 63233 99
OldEncoding: 63233
Width: 0
Flags: W
HStem: 732 51<-374 -302> 862 53<-250 -223>
Fore
-223 915 m 1
 -148 904 -102 876 -80 830 c 0
 -59 782 -49 730 -49 675 c 1
 -65 681 -91 692 -129 704 c 0
 -169 716 -210 722 -251 728 c 0
 -283 730 -312 732 -344 732 c 0
 -381 732 -417 730 -445 729 c 0
 -476 726 -499 722 -511 720 c 1
 -497 754 -475 786 -447 818 c 0
 -417 848 -383 872 -343 890 c 0
 -303 908 -265 915 -223 915 c 1
-247 862 m 1
 -283 862 -314 855 -347 836 c 0
 -378 819 -400 800 -411 778 c 1
 -402 780 -390 780 -374 782 c 0
 -359 783 -338 783 -308 783 c 0
 -282 783 -264 783 -251 782 c 0
 -210 778 -175 771 -152 760 c 0
 -128 753 -115 744 -107 740 c 1
 -125 810 -170 850 -247 862 c 1
EndSplineSet
EndChar
StartChar: uni0E35.left
Encoding: 130 63234 100
OldEncoding: 63234
Width: 0
Flags: W
HStem: 732 51<-341 -268> 862 53<-216 -188>
DStem: -34 982 31 982 -63 849 -19 747
Fore
-63 849 m 1
 -34 982 l 1
 31 982 l 1
 -19 747 l 1
 -19 747 l 1
 -18 747 -17 740 -17 722 c 0
 -15.5858 709.272 -14.1716 697.044 -14.1716 686.73 c 0
 -14.1716 682.458 -14.4142 678.515 -15 675 c 1
 -32 681 -59 692 -96 704 c 0
 -134 716 -175 722 -219 728 c 0
 -249 730 -278 732 -310 732 c 0
 -348 732 -382 730 -411 729 c 0
 -443 726 -465 722 -477 720 c 1
 -463 756 -442 788 -412 819 c 0
 -384 848 -349 872 -309 890 c 0
 -272 908 -232 915 -188 915 c 1
 -160 912 -138 904 -120 896 c 0
 -102 886 -88 876 -78 868 c 0
 -69 860 -65 852 -63 849 c 1
-213 862 m 1
 -239 862 -262 858 -285 849 c 0
 -305 840 -324 831 -342 818 c 0
 -359 806 -369 792 -378 778 c 1
 -368 780 -356 780 -341 782 c 0
 -326 783 -304 783 -275 783 c 0
 -250 783 -230 783 -216 782 c 0
 -175 778 -140 771 -117 760 c 0
 -95 753 -80 744 -74 740 c 1
 -80 768 -92 795 -111 819 c 0
 -131 843 -166 858 -213 862 c 1
EndSplineSet
EndChar
StartChar: uni0E36.left
Encoding: 131 63235 101
OldEncoding: 63235
Width: 0
Flags: W
HStem: 732 51<-374 -302> 862 56<-256 -247> 948 45<-80 -63>
Fore
9 902 m 0
 4 879 -5 861 -21 844 c 0
 -36 826 -52 818 -73 813 c 1
 -68 801 -64 783 -55 758 c 0
 -50.1402 739.949 -47.2084 720.935 -47.2084 701.291 c 0
 -47.2084 692.64 -47.777 683.867 -49 675 c 1
 -65 681 -91 692 -129 704 c 0
 -169 716 -210 722 -251 728 c 0
 -283 730 -312 732 -344 732 c 0
 -381 732 -417 730 -445 729 c 0
 -476 726 -499 722 -511 720 c 1
 -487 778 -451 825 -401 862 c 0
 -349 900 -300 918 -251 918 c 0
 -233 918 -217 916 -205 914 c 0
 -193 910 -182 908 -176 903 c 1
 -171 926 -159 946 -137 964 c 0
 -117 982 -92 993 -65 993 c 0
 -37 993 -14 986 -3 966 c 0
 6.38889 954.444 11.0833 939.238 11.0833 922.263 c 0
 11.0833 915.735 10.3889 908.944 9 902 c 0
-72 948 m 0
 -88 948 -99 944 -109 936 c 0
 -118 927 -123 916 -126 904 c 0
 -126.633 901.467 -126.966 898.633 -126.966 895.657 c 0
 -126.966 889.235 -125.417 882.15 -122 876 c 0
 -114 868 -105 862 -91 862 c 0
 -79 862 -68 868 -58 876 c 0
 -48 885 -42 894 -40 904 c 0
 -39.0712 907.715 -38.6217 911.334 -38.6217 914.828 c 0
 -38.6217 922.619 -40.8575 929.786 -45 936 c 0
 -49 944 -59 948 -72 948 c 0
-247 862 m 1
 -273 862 -296 858 -318 849 c 0
 -340 840 -359 831 -375 818 c 0
 -391 806 -404 792 -411 778 c 1
 -402 780 -390 780 -374 782 c 0
 -359 783 -338 783 -308 783 c 0
 -282 783 -264 783 -251 782 c 0
 -210 778 -175 771 -152 760 c 0
 -128 753 -115 744 -107 740 c 1
 -113 768 -127 794 -144 818 c 0
 -165 840 -199 856 -247 862 c 1
EndSplineSet
EndChar
StartChar: uni0E37.left
Encoding: 132 63236 102
OldEncoding: 63236
Width: 0
Flags: W
HStem: 732 51<-341 -268> 862 56<-222 -211>
DStem: -160 982 -95 982 -175 914 -114 894 -34 982 31 982 -63 848 -19 746
Fore
-19 746 m 1
 -18 746 -17 722 -15 675 c 1
 -32 681 -59 692 -96 704 c 0
 -134 716 -175 722 -219 728 c 0
 -249 730 -278 732 -310 732 c 0
 -348 732 -382 730 -411 729 c 0
 -443 726 -465 722 -477 720 c 1
 -463 758 -441 792 -412 820 c 0
 -383 850 -350 874 -315 891 c 0
 -278 910 -245 918 -211 918 c 0
 -199 918 -186 916 -175 914 c 1
 -160 982 l 1
 -95 982 l 1
 -114 894 l 1
 -90 884 -74 868 -63 848 c 1
 -34 982 l 1
 31 982 l 1
 -19 746 l 1
-213 862 m 1
 -249 862 -280 855 -314 836 c 0
 -345 819 -366 800 -378 778 c 1
 -368 780 -356 780 -341 782 c 0
 -326 783 -304 783 -275 783 c 0
 -250 783 -230 783 -216 782 c 0
 -175 778 -140 771 -117 760 c 0
 -95 753 -80 744 -74 740 c 1
 -90 810 -135 850 -213 862 c 1
EndSplineSet
EndChar
StartChar: ellipsis
Encoding: 133 8230 103
OldEncoding: 8230
Width: 888
VWidth: 2048
Flags: W
HStem: -24 21G<88.1667 134.5>
Fore
784 46 m 1
 775 3 744 -18 695 -24 c 1
 655.93 -24 634.994 -5.07669 634.994 31.3697 c 0
 634.994 35.9684 635.328 40.8461 636 46 c 1
 646 96 676 122 726 122 c 0
 746 122 765 116 774 100 c 1
 781.235 89.55 784.592 75.8691 784.592 58.9574 c 0
 784.592 54.8306 784.392 50.5115 784 46 c 1
492 46 m 1
 483 3 454 -21 401 -24 c 1
 361.59 -24 341.499 -3.83972 341.499 34.9411 c 0
 341.499 38.4733 341.666 42.16 342 46 c 1
 352 96 383 122 432 122 c 0
 454 122 471 116 480 100 c 1
 488.333 86.6667 492.5 73.3333 492.5 56.5278 c 0
 492.5 53.1667 492.333 49.6667 492 46 c 1
198 46 m 0
 188 0 160 -24 109 -24 c 0
 67.3333 -24 46.5 -7.33333 46.5 24.8426 c 0
 46.5 31.2778 47.3333 38.3333 49 46 c 0
 59 96 90 122 140 122 c 0
 181.772 122 200.735 104.558 200.735 70.7721 c 0
 200.735 63.3084 199.809 55.0471 198 46 c 0
EndSplineSet
EndChar
StartChar: uni0E48.low_left
Encoding: 134 63237 104
OldEncoding: 63237
Width: 0
Flags: W
DStem: -85 938 -20 938 -139 681 -74 681
Fore
-139 681 m 1
 -85 938 l 1
 -20 938 l 1
 -74 681 l 1
 -139 681 l 1
EndSplineSet
EndChar
StartChar: uni0E49.low_left
Encoding: 135 63238 105
OldEncoding: 63238
Width: 0
Flags: W
HStem: 656 54<-209 -182> 742 46<-250 -232> 744 44<-235 -230> 879 49<-214 -200>
Fore
-120 831 m 0
 -128 796 -138 770 -153 748 c 0
 -169 730 -180 717 -188 710 c 1
 -165 710 -144 714 -120 718 c 0
 -98 724 -76 734 -52 753 c 0
 -5 786 25 843 42 922 c 1
 112 922 l 1
 87 804 28 724 -62 686 c 0
 -108 666 -158 656 -209 656 c 0
 -229 656 -248 657 -265 662 c 0
 -285 664 -298 666 -304 668 c 1
 -298 670 -284 680 -269 692 c 0
 -254 704 -240 720 -227 746 c 0
 -229 744 -232 744 -235 744 c 0
 -241 742 -246 742 -250 742 c 0
 -262 742 -271 744 -275 746 c 0
 -307.833 755.609 -323.992 776.762 -323.992 808.43 c 0
 -323.992 816.308 -322.992 824.836 -321 834 c 0
 -315 861 -300 884 -278 902 c 0
 -256 921 -231 928 -202 928 c 0
 -169 928 -147 918 -133 900 c 0
 -121.949 885.495 -117.577 870.037 -117.577 853.624 c 0
 -117.577 846.274 -118.453 838.733 -120 831 c 0
-212 879 m 0
 -227 879 -237 874 -248 866 c 0
 -259 858 -266 846 -269 834 c 0
 -269.5 831 -269.75 828.125 -269.75 825.375 c 0
 -269.75 817.125 -267.5 810 -263 804 c 0
 -257 794 -247 788 -232 788 c 0
 -223 788 -213 790 -205 795 c 0
 -196 800 -191 806 -184 812 c 0
 -180 819 -177 825 -175 834 c 0
 -173.964 838.833 -173.405 843.427 -173.405 847.701 c 0
 -173.405 855.808 -175.416 862.762 -180 868 c 0
 -188 876 -195 879 -212 879 c 0
EndSplineSet
EndChar
StartChar: uni0E4A.low_left
Encoding: 136 63239 106
OldEncoding: 63239
Width: 0
Flags: W
HStem: 678 30<-271 -258> 783 30<-250 -239> 856 46<-234 -215 -118 -98>
Fore
-270 678 m 0
 -296 680 -315 692 -328 716 c 0
 -335.276 731.875 -339.927 748.625 -339.927 767.407 c 0
 -339.927 777.021 -338.708 787.166 -336 798 c 0
 -330 826 -313 852 -292 873 c 0
 -273 891 -250 902 -222 902 c 0
 -210 902 -199 900 -190 897 c 0
 -185 891 -176 886 -170 882 c 0
 -166 876 -164 874 -164 873 c 1
 -164 873 l 1
 -159 878 -151 885 -139 891 c 0
 -127 898 -112 902 -98 902 c 0
 -70 902 -53 894 -45 874 c 0
 -40.3441 863.524 -37.7204 850.677 -37.7204 835.263 c 0
 -37.7204 824.191 -39.0739 811.794 -42 798 c 0
 -48 770 -60 746 -80 726 c 1
 -71 729 -62 735 -46 744 c 0
 -32 753 -20 762 -7 774 c 0
 10 796 21 819 26 840 c 0
 27.633 848.165 29.266 860.33 29.266 875.406 c 0
 29.266 878.795 29.1835 882.33 29 886 c 1
 82 904 l 1
 82.5585 900.091 82.8051 896.025 82.8051 891.891 c 0
 82.8051 881.22 81.1623 870.091 79 860 c 0
 69 816 49 778 21 746 c 0
 -16 704 -79 681 -163 681 c 1
 -155 690 -147 699 -136 708 c 0
 -127 717 -118 729 -108 742 c 0
 -100 756 -94 771 -91 788 c 0
 -87.1237 802.73 -85.6515 816.258 -85.6515 827.652 c 0
 -85.6515 830.955 -85.7753 834.078 -86 837 c 0
 -90 849 -100 856 -118 856 c 0
 -130 856 -140 852 -149 844 c 0
 -160 836 -168 830 -171 824 c 1
 -171 824 -172 826 -175 832 c 0
 -179 837 -187 843 -195 848 c 0
 -201 852 -212 856 -224 856 c 0
 -238 856 -249 850 -261 843 c 0
 -270 832 -278 819 -281 804 c 1
 -277 806 -272 808 -263 810 c 0
 -256 812 -249 813 -241 813 c 0
 -220 813 -204 807 -195 794 c 0
 -188.932 785.909 -185.591 775.545 -185.591 762.602 c 0
 -185.591 756.348 -186.371 749.493 -188 742 c 0
 -191 728 -201 712 -217 699 c 0
 -234 686 -250 678 -270 678 c 0
-248 783 m 0
 -260 783 -269 780 -277 772 c 0
 -284 765 -291 756 -293 746 c 0
 -293.438 744.246 -293.637 742.444 -293.637 740.605 c 0
 -293.637 734.054 -291.123 727.027 -288 720 c 0
 -283 712 -276 708 -264 708 c 0
 -252 708 -242 712 -234 720 c 0
 -225 728 -220 735 -217 746 c 0
 -216.5 748.5 -216.25 750.938 -216.25 753.297 c 0
 -216.25 760.375 -218.5 766.75 -223 772 c 0
 -226 780 -236 783 -248 783 c 0
EndSplineSet
EndChar
StartChar: uni0E4B.low_left
Encoding: 137 63240 107
OldEncoding: 63240
Width: 0
Flags: W
HStem: 795 55<-268 -167 -92 10>
DStem: -167 795 -104 795 -191 681 -128 681 -131 964 -68 964 -155 850 -92 850
Fore
-167 795 m 1
 -279 795 l 1
 -267 850 l 1
 -155 850 l 1
 -131 964 l 1
 -68 964 l 1
 -92 850 l 1
 22 850 l 1
 10 795 l 1
 -104 795 l 1
 -128 681 l 1
 -191 681 l 1
 -167 795 l 1
EndSplineSet
EndChar
StartChar: uni0E4C.low_left
Encoding: 138 63241 108
OldEncoding: 63241
Width: 0
Flags: W
HStem: 678 54<-154 -140> 818 44<-126 -115>
Fore
-195 820 m 0
 -192 826 -184 836 -170 846 c 0
 -156 856 -138 862 -115 862 c 0
 -112.341 862.183 -109.759 862.274 -107.251 862.274 c 0
 -82.4003 862.274 -64.8999 853.35 -54 837 c 0
 -45.1218 823.683 -40.0753 808.723 -40.0753 792.122 c 0
 -40.0753 786.284 -40.6992 780.244 -42 774 c 0
 -48 748 -61 728 -81 708 c 0
 -101 690 -126 678 -154 678 c 0
 -156.604 677.873 -159.151 677.81 -161.644 677.81 c 0
 -198.397 677.81 -223.207 691.397 -241 712 c 0
 -252.984 727.509 -259.502 746 -259.502 768.173 c 0
 -259.502 777.453 -258.36 787.379 -256 798 c 0
 -243 862 -207 908 -151 928 c 1
 -126 940 -88 950 -41 952 c 0
 8 956 44 960 63 966 c 0
 84 974 95 992 101 1020 c 1
 163 1020 l 1
 157 992 143 969 124 952 c 0
 106 934 84 922 62 915 c 0
 39 908 3 900 -41 898 c 0
 -88 896 -121 890 -141 882 c 0
 -164 873 -182 852 -195 820 c 0
-124 818 m 0
 -138 818 -149 813 -159 806 c 0
 -170 796 -175 786 -177 774 c 0
 -177.667 771 -178.111 767.778 -178.111 764.518 c 0
 -178.111 758 -176.333 751.333 -171 746 c 0
 -165 738 -156 732 -142 732 c 0
 -130 732 -119 738 -109 746 c 0
 -100 754 -93 765 -91 774 c 0
 -90.4641 777.215 -90.2154 780.287 -90.2154 783.254 c 0
 -90.2154 791.359 -92.0718 798.679 -95 806 c 0
 -101 813 -111 818 -124 818 c 0
EndSplineSet
EndChar
StartChar: uni0E48.low
Encoding: 139 63242 109
OldEncoding: 63242
Width: 0
Flags: W
DStem: 43 938 107 938 -11 681 53 681
Fore
-11 681 m 1
 43 938 l 1
 107 938 l 1
 53 681 l 1
 -11 681 l 1
EndSplineSet
EndChar
StartChar: uni0E49.low
Encoding: 140 63243 110
OldEncoding: 63243
Width: 0
Flags: W
HStem: 656 54<-157 -128> 742 46<-198 -179> 744 44<-182 -175> 879 49<-161 -147>
Fore
-67 831 m 0
 -75 796 -85 770 -101 748 c 0
 -117 730 -127 717 -135 710 c 1
 -111 710 -88 714 -67 718 c 0
 -46 724 -24 734 1 753 c 0
 47 786 77 843 94 922 c 1
 164 922 l 1
 139 804 80 724 -10 686 c 0
 -56 666 -105 656 -157 656 c 0
 -175 656 -194 657 -211 662 c 0
 -229 664 -244 666 -250 668 c 1
 -244 670 -230 680 -215 692 c 0
 -200 704 -186 720 -173 746 c 0
 -176 744 -178 744 -182 744 c 0
 -188 742 -193 742 -198 742 c 0
 -208 742 -217 744 -222 746 c 0
 -254.488 755.746 -271.804 777.367 -271.804 809.79 c 0
 -271.804 817.287 -270.878 825.361 -269 834 c 0
 -263 861 -250 884 -226 902 c 0
 -204 921 -178 928 -149 928 c 0
 -117 928 -95 918 -81 900 c 0
 -69.5887 885.023 -64.7901 869.028 -64.7901 852.016 c 0
 -64.7901 845.175 -65.566 838.17 -67 831 c 0
-159 879 m 0
 -175 879 -188 874 -197 866 c 0
 -208 858 -213 846 -216 834 c 0
 -216.582 830.508 -216.91 827.185 -216.91 824.032 c 0
 -216.91 816.349 -214.963 809.672 -210 804 c 0
 -205 794 -195 788 -179 788 c 0
 -163 788 -152 794 -141 804 c 0
 -130 812 -125 822 -123 834 c 0
 -121.964 838.143 -121.405 842.285 -121.405 846.263 c 0
 -121.405 853.808 -123.416 860.762 -128 866 c 0
 -135 874 -143 879 -159 879 c 0
EndSplineSet
EndChar
StartChar: uni0E4A.low
Encoding: 141 63244 111
OldEncoding: 63244
Width: 0
Flags: W
HStem: 678 30<-203 -190> 783 30<-182 -171> 856 46<-167 -146 -50 -30>
Fore
-202 678 m 0
 -229 680 -247 692 -260 716 c 0
 -267.77 730.245 -272.605 747.006 -272.605 765.739 c 0
 -272.605 775.938 -271.172 786.72 -268 798 c 0
 -262 826 -245 852 -224 873 c 0
 -205 891 -183 902 -154 902 c 0
 -142 902 -131 900 -123 897 c 0
 -115 891 -109 886 -103 882 c 0
 -99 876 -96 874 -96 873 c 1
 -96 873 l 1
 -91 878 -84 885 -72 891 c 0
 -59 898 -45 902 -30 902 c 0
 -3 902 16 894 24 874 c 0
 27.5498 863.351 30.0495 850.251 30.0495 834.494 c 0
 30.0495 823.618 28.8586 811.476 26 798 c 0
 20 772 7 747 -11 726 c 1
 -3 729 9 735 24 744 c 0
 38 753 50 762 60 774 c 0
 76 796 87 820 92 843 c 0
 94.3238 854.619 96.6476 866.238 96.6476 876.927 c 0
 96.6476 880.038 96.4508 883.07 96 886 c 1
 150 904 l 1
 150.25 900.5 150.375 896.875 150.375 893.188 c 0
 150.375 882.125 149.25 870.5 147 860 c 0
 137 816 117 778 90 746 c 0
 51 704 -11 681 -93 681 c 1
 -87 690 -77 699 -69 708 c 0
 -60 717 -51 729 -40 742 c 0
 -33 756 -26 771 -23 788 c 0
 -19.1237 802.73 -17.6515 816.258 -17.6515 827.652 c 0
 -17.6515 830.955 -17.7753 834.078 -18 837 c 0
 -21 849 -31 856 -50 856 c 0
 -62 856 -74 852 -83 844 c 0
 -94 836 -100 830 -103 824 c 1
 -103 824 -103 826 -108 832 c 0
 -112 837 -119 843 -128 848 c 0
 -134 852 -144 856 -157 856 c 0
 -170 856 -182 850 -191 843 c 0
 -203 832 -208 819 -211 804 c 1
 -210 806 -204 808 -196 810 c 0
 -189 812 -181 813 -173 813 c 0
 -153 813 -137 807 -128 794 c 0
 -121.677 785.569 -117.822 774.671 -117.822 760.957 c 0
 -117.822 755.151 -118.513 748.841 -120 742 c 0
 -123 728 -134 712 -149 699 c 0
 -166 686 -183 678 -202 678 c 0
-180 783 m 0
 -191 783 -202 780 -211 772 c 0
 -217 765 -221 756 -223 746 c 0
 -223.828 742.686 -224.314 739.201 -224.314 735.615 c 0
 -224.314 730.544 -223.343 725.272 -221 720 c 0
 -217 712 -207 708 -196 708 c 0
 -184 708 -175 712 -165 720 c 0
 -157 728 -153 735 -150 746 c 0
 -149.367 749.166 -149.034 752.232 -149.034 755.166 c 0
 -149.034 761.499 -150.583 767.216 -154 772 c 0
 -158 780 -168 783 -180 783 c 0
EndSplineSet
EndChar
StartChar: uni0E4B.low
Encoding: 142 63245 112
OldEncoding: 63245
Width: 0
Flags: W
HStem: 795 55<-177 -75 1 101>
DStem: -75 795 -11 795 -99 681 -35 681 -39 964 25 964 -63 850 1 850
Fore
-75 795 m 1
 -188 795 l 1
 -176 850 l 1
 -63 850 l 1
 -39 964 l 1
 25 964 l 1
 1 850 l 1
 113 850 l 1
 101 795 l 1
 -11 795 l 1
 -35 681 l 1
 -99 681 l 1
 -75 795 l 1
EndSplineSet
EndChar
StartChar: uni0E4C.low
Encoding: 143 63246 113
OldEncoding: 63246
Width: 0
Flags: W
HStem: 678 54<-117 -103> 818 44<-89 -78>
Fore
-158 820 m 1
 -152 826 -144 836 -132 846 c 0
 -118 856 -101 862 -78 862 c 0
 -75.2498 862.183 -72.5668 862.274 -69.9542 862.274 c 0
 -44.0672 862.274 -25.0833 853.35 -16 837 c 0
 -7.38643 824.797 -2.89472 811.049 -2.89472 794.646 c 0
 -2.89472 788.197 -3.58899 781.337 -5 774 c 0
 -11 748 -23 728 -44 708 c 0
 -63 690 -88 678 -117 678 c 0
 -119.959 677.856 -122.85 677.784 -125.675 677.784 c 0
 -161.984 677.784 -187.227 689.588 -203 710 c 0
 -214.984 725.509 -221.502 744.994 -221.502 767.754 c 0
 -221.502 777.279 -220.36 787.379 -218 798 c 0
 -207 861 -171 904 -113 928 c 0
 -85 940 -47 950 1 951 c 0
 46 952 80 957 100 964 c 0
 119 970 134 990 141 1020 c 1
 201 1020 l 1
 195 992 180 969 162 952 c 0
 143 934 121 922 100 915 c 0
 76 908 39 900 -4 898 c 0
 -48 896 -83 890 -103 882 c 0
 -124 873 -143 852 -158 820 c 1
-87 818 m 0
 -100 818 -112 813 -120 806 c 0
 -131 796 -136 786 -138 774 c 0
 -139.036 769.857 -139.595 766.073 -139.595 762.522 c 0
 -139.595 755.786 -137.584 749.893 -133 744 c 0
 -128 735 -117 732 -105 732 c 0
 -93 732 -81 738 -72 746 c 0
 -62 754 -56 765 -54 774 c 0
 -53.3944 777.633 -53.0639 781.083 -53.0639 784.405 c 0
 -53.0639 792.055 -54.8167 799.028 -59 806 c 0
 -64 813 -74 818 -87 818 c 0
EndSplineSet
EndChar
StartChar: uni0E0D.descless
Encoding: 144 63247 114
OldEncoding: 63247
Width: 804
Flags: W
HStem: -10 52<198 216> 0 62<358 624> 146 52<228 243> 534 52<382 416>
DStem: 158 300 230 303 114 94 207 192 507 423 578 423 430 62 501 62 768 576 839 576 669 110 740 110
Fore
114 94 m 2
 158 300 l 2
 172 366 204 406 256 423 c 1
 249 430 235 441 214 453 c 0
 195 465 168 472 138 482 c 1
 156 500 187 522 232 548 c 0
 276 573 333 586 401 586 c 0
 522.226 586 582.838 546.084 582.838 465.617 c 0
 582.838 452.491 581.226 438.287 578 423 c 2
 501 62 l 1
 607 62 l 2
 628 62 644 64 651 70 c 1
 658 76 665 90 669 110 c 2
 768 576 l 1
 839 576 l 1
 740 110 l 2
 734 78 725 54 714 39 c 0
 705 24 691 14 672 9 c 0
 655 3 628 0 594 0 c 2
 346 0 l 1
 359 62 l 1
 430 62 l 1
 507 423 l 2
 509.286 433.286 510.429 443 510.429 452.073 c 0
 510.429 474.755 503.286 493.429 489 507 c 0
 469 525 440 534 400 534 c 0
 351 534 297 520 243 492 c 1
 252 488 268 480 291 468 c 0
 315 456 332 441 350 420 c 1
 341 420 332 418 318 414 c 0
 303 408 286 399 267 381 c 0
 249 363 238 338 230 303 c 2
 207 192 l 1
 213 196 225 198 243 198 c 0
 276 198 298 188 312 168 c 0
 319.787 153.135 324.567 136.766 324.567 118.184 c 0
 324.567 110.516 323.753 102.472 322 94 c 0
 316 66 301 42 281 22 c 0
 258 0 232 -10 199 -10 c 0
 169 -10 146 0 130 18 c 0
 117.676 32.499 111.133 49.6258 111.133 69.7613 c 0
 111.133 77.4008 112.075 85.4734 114 94 c 2
209 42 m 0
 227 42 241 48 250 57 c 0
 262 68 269 80 272 94 c 0
 273 98.6667 273.556 103.111 273.556 107.333 c 0
 273.556 115.778 271.333 123.333 266 130 c 0
 260 141 247 146 231 146 c 0
 215 146 201 141 190 130 c 0
 179 120 170 108 167 94 c 0
 166.174 90.1464 165.803 86.4444 165.803 82.873 c 0
 165.803 73.4696 168.376 64.9722 172 57 c 0
 181 48 193 42 209 42 c 0
EndSplineSet
EndChar
StartChar: quoteleft
Encoding: 145 8216 115
OldEncoding: 8216
Width: 204
VWidth: 2048
Flags: W
Fore
137 693 m 0
 147 746 170 788 207 816 c 0
 243 844 282 861 319 868 c 1
 335.024 868 342.331 864.83 342.331 859.901 c 0
 342.331 859.293 342.22 858.659 342 858 c 0
 342 856 340 852 336 849 c 1
 320 844 299 832 269 816 c 0
 240 800 223 780 215 756 c 1
 230 759 l 1
 255 765 l 1
 296.348 759.832 317.66 739.081 317.66 704.026 c 0
 317.66 698.386 317.109 692.375 316 686 c 0
 311 663 298 642 280 627 c 0
 265 610 244 602 220 602 c 0
 164 602 134.721 624.268 134.721 669.442 c 0
 134.721 676.702 135.477 684.554 137 693 c 0
EndSplineSet
EndChar
StartChar: quoteright
Encoding: 146 8217 116
OldEncoding: 8217
Width: 204
VWidth: 2048
Flags: W
Fore
354 760 m 4
 342 706 319 668 282 639 c 4
 246 612 208 596 169 588 c 5
 152.779 588 142.931 590.731 142.931 597.063 c 0
 142.931 597.367 142.954 597.679 143 598 c 4
 144 600 146 603 153 608 c 5
 168 612 190 624 218 640 c 4
 245 654 265 675 277 700 c 5
 258 696 l 5
 237 692 l 5
 196.189 697.83 175.495 716.146 175.495 749.837 c 0
 175.495 756.598 176.329 763.978 178 772 c 4
 183 795 194 813 212 830 c 4
 228 846 249 852 274 852 c 4
 328.05 852 356.338 829.918 356.338 784.492 c 0
 356.338 776.97 355.563 768.808 354 760 c 4
EndSplineSet
EndChar
StartChar: quotedblleft
Encoding: 147 8220 117
OldEncoding: 8220
Width: 382
VWidth: 2048
Flags: W
Fore
348 694 m 0
 359 747 381 790 418 819 c 0
 454 848 493 864 531 872 c 1
 547.221 872 557.069 868.358 557.069 861.944 c 0
 557.069 861.635 557.046 861.321 557 861 c 1
 549 852 l 1
 547 850 l 2
 534 848 512 836 482 818 c 0
 455 804 434 783 425 758 c 1
 441 762 l 1
 463 766 l 1
 506.769 760.851 527.706 741.707 527.706 706.041 c 0
 527.706 700.149 527.134 693.805 526 687 c 0
 521 664 511 646 491 630 c 0
 477 614 454 604 430 604 c 0
 428.984 603.984 427.977 603.977 426.979 603.977 c 0
 372.337 603.977 346.273 627.429 346.273 672.448 c 0
 346.273 679.156 346.851 686.342 348 694 c 0
137 693 m 4
 147 746 170 788 207 816 c 4
 243 844 282 861 319 868 c 5
 335.024 868 342.331 864.83 342.331 859.901 c 0
 342.331 859.293 342.22 858.659 342 858 c 4
 342 856 340 852 336 849 c 5
 320 844 299 832 269 816 c 4
 240 800 223 780 215 756 c 5
 230 759 l 5
 255 765 l 5
 296.348 759.832 317.66 739.081 317.66 704.026 c 0
 317.66 698.386 317.109 692.375 316 686 c 4
 311 663 298 642 280 627 c 4
 265 610 244 602 220 602 c 4
 164 602 134.721 624.268 134.721 669.442 c 0
 134.721 676.702 135.477 684.554 137 693 c 4
EndSplineSet
EndChar
StartChar: quotedblright
Encoding: 148 8221 118
OldEncoding: 8221
Width: 382
VWidth: 2048
Flags: W
Fore
354 760 m 4
 342 708 319 668 282 639 c 4
 246 612 208 596 169 588 c 5
 151.902 588 142.925 590.707 142.925 596.977 c 0
 142.925 597.308 142.95 597.649 143 598 c 4
 144 600 146 603 151 608 c 5
 166 612 189 624 220 640 c 4
 247 654 265 675 277 700 c 5
 260 696 l 5
 237 692 l 5
 196.189 697.83 175.495 716.146 175.495 749.837 c 0
 175.495 756.598 176.329 763.978 178 772 c 4
 183 795 194 813 212 830 c 4
 228 846 249 852 273 852 c 4
 327.925 852 356.335 829.905 356.335 784.45 c 0
 356.335 776.94 355.56 768.792 354 760 c 4
564 760 m 4
 552 706 530 668 492 639 c 4
 456 612 418 596 380 588 c 5
 363.254 588 356.895 590.596 356.895 596.594 c 0
 356.895 597.044 356.93 597.512 357 598 c 4
 358 600 359 603 363 608 c 5
 378 612 401 624 432 640 c 4
 457 654 475 675 487 700 c 5
 470 696 l 5
 447 692 l 5
 406.189 697.83 385.495 716.146 385.495 749.837 c 0
 385.495 756.598 386.329 763.978 388 772 c 4
 393 795 404 813 422 830 c 4
 438 846 459 852 483 852 c 4
 539.248 852 566.443 830.211 566.443 785.394 c 0
 566.443 777.624 565.625 769.161 564 760 c 4
EndSplineSet
EndChar
StartChar: bullet
Encoding: 149 8226 119
OldEncoding: 8226
Width: 304
VWidth: 2048
Flags: W
Fore
181 172 m 0
 130 172 92 190 71 222 c 0
 56.3 245.1 48.95 269.67 48.95 297.768 c 0
 48.95 309.81 50.3 322.5 53 336 c 0
 59 364 71 392 88 416 c 0
 109 441 132 460 157 477 c 0
 185 492 216 498 250 498 c 0
 286 498 315 492 335 477 c 0
 356 460 370 441 379 417 c 1
 382 404.5 383.5 391.25 383.5 377.625 c 0
 383.5 364 382 350 379 336 c 0
 370 291 346 252 311 220 c 0
 277 190 233 172 181 172 c 0
EndSplineSet
EndChar
StartChar: endash
Encoding: 150 8211 120
OldEncoding: 8211
Width: 901
VWidth: 2048
Flags: W
HStem: 290 48<41 941>
Fore
32 290 m 1
 42 338 l 1
 951 338 l 1
 941 290 l 1
 32 290 l 1
EndSplineSet
EndChar
StartChar: emdash
Encoding: 151 8212 121
OldEncoding: 8212
Width: 1804
VWidth: 2048
Flags: W
HStem: 290 48<-13 1844>
Fore
-22 290 m 1
 -12 338 l 1
 1854 338 l 1
 1844 290 l 1
 -22 290 l 1
EndSplineSet
EndChar
StartChar: uni0E31.left
Encoding: 152 63248 122
OldEncoding: 63248
Width: 0
Flags: W
HStem: 681 60<-103 -77> 870 48<-192 -180>
Fore
-300 807 m 1
 -294 838 -281 866 -259 886 c 0
 -237 909 -211 918 -180 918 c 0
 -147 918 -125 909 -111 890 c 0
 -101.2 877.4 -96.3 861.86 -96.3 844.066 c 0
 -96.3 836.44 -97.2 828.4 -99 820 c 0
 -105 792 -121 768 -144 748 c 1
 -139 747 -129 746 -116 744 c 0
 -103 742 -92 741 -86 741 c 0
 -36 742 14 759 61 788 c 0
 110 819 144 856 166 902 c 1
 222 873 l 1
 205 840 180 808 145 780 c 0
 110 752 73 728 28 708 c 0
 -13 690 -59 681 -103 681 c 0
 -163 681 -210 692 -249 710 c 0
 -282.372 727.564 -301.091 754.384 -301.091 791.136 c 0
 -301.091 796.233 -300.731 801.52 -300 807 c 1
-211 771 m 0
 -196 771 -183 777 -172 786 c 0
 -161 795 -154 807 -152 820 c 0
 -150.714 826 -149.796 831.633 -149.796 836.898 c 0
 -149.796 843.918 -151.429 850.286 -156 856 c 0
 -162 864 -175 870 -190 870 c 0
 -205 870 -220 864 -230 856 c 0
 -240 846 -246 834 -249 820 c 0
 -249.5 817 -249.75 814 -249.75 811.031 c 0
 -249.75 802.125 -247.5 793.5 -243 786 c 0
 -237 777 -226 771 -211 771 c 0
EndSplineSet
EndChar
StartChar: uni0E4D.left
Encoding: 153 63249 123
OldEncoding: 63249
Width: 0
Flags: W
HStem: 648 46<-216 -202> 808 48<-182 -168>
Fore
-214 648 m 0
 -248 648 -270 657 -284 680 c 0
 -294.341 694.772 -300.317 711.727 -300.317 731.266 c 0
 -300.317 738.181 -299.568 745.42 -298 753 c 0
 -292 780 -276 804 -254 824 c 0
 -230 846 -204 856 -170 856 c 0
 -139 856 -116 846 -101 825 c 0
 -91.2 811.7 -86.3 795.95 -86.3 777.75 c 0
 -86.3 769.95 -87.2 761.7 -89 753 c 0
 -95 724 -109 699 -132 678 c 0
 -156 657 -183 648 -214 648 c 0
-180 808 m 0
 -198 808 -215 804 -226 792 c 0
 -239 780 -247 768 -250 753 c 0
 -250.875 748.627 -251.324 744.34 -251.324 740.162 c 0
 -251.324 730.008 -248.668 720.502 -243 712 c 0
 -237 700 -222 694 -204 694 c 0
 -186 694 -172 700 -159 712 c 0
 -146 724 -139 738 -136 753 c 0
 -135 756.5 -134.25 760.75 -134.25 765.125 c 0
 -134.25 769.5 -135 774 -137 778 c 0
 -141 786 -145 795 -152 800 c 0
 -159 806 -168 808 -180 808 c 0
EndSplineSet
EndChar
StartChar: uni0E47.left
Encoding: 154 63250 124
OldEncoding: 63250
Width: 0
Flags: W
HStem: 681 39<-141 -127> 762 56<-280 -268> 796 38<-117 -105> 872 46<-161 -127> 876 50<-269 -234>
Fore
-139 681 m 0
 -153 681 -166 686 -179 693 c 0
 -191 702 -205 712 -220 726 c 0
 -231 738 -243 747 -252 754 c 0
 -259 759 -268 762 -280 762 c 0
 -306 760 -324 752 -339 730 c 0
 -351 708 -360 692 -364 678 c 1
 -384 690 -399 708 -408 735 c 0
 -413.254 750.763 -415.782 766.866 -415.782 783.111 c 0
 -415.782 794.693 -414.497 806.346 -412 818 c 0
 -409 834 -405 848 -396 860 c 0
 -369 903 -321 926 -250 926 c 0
 -232 926 -217 926 -208 924 c 0
 -182 921 -159 918 -137 918 c 0
 -107 918 -82 924 -63 936 c 0
 -47 946 -35 964 -29 993 c 1
 25 993 l 1
 16 948 -3 916 -31 898 c 0
 -61 879 -101 872 -157 872 c 0
 -179 872 -206 873 -234 876 c 1
 -273 876 -302 873 -323 864 c 0
 -343 856 -357 843 -362 820 c 0
 -363.036 815.167 -363.595 809.857 -363.595 804.071 c 0
 -363.595 793.096 -361.584 780.405 -357 766 c 1
 -353 774 -341 784 -326 798 c 0
 -312 810 -292 818 -268 818 c 0
 -249 818 -232 812 -219 804 c 0
 -206 794 -197 784 -192 778 c 1
 -173 816 -145 834 -107 834 c 0
 -83 834 -64 826 -53 812 c 0
 -46.9319 801.212 -43.5913 790.424 -43.5913 778.104 c 0
 -43.5913 772.152 -44.3712 765.841 -46 759 c 0
 -50 740 -60 720 -76 705 c 0
 -93 690 -115 681 -139 681 c 0
-131 720 m 0
 -119 720 -107 724 -99 732 c 0
 -92 740 -87 747 -85 759 c 0
 -83.875 763.5 -83.3125 767.578 -83.3125 771.234 c 0
 -83.3125 777.328 -84.875 782.25 -88 786 c 0
 -92 794 -103 796 -115 796 c 0
 -127 796 -134 794 -145 786 c 1
 -153 778 -158 770 -161 759 c 0
 -161.438 756.589 -161.637 754.369 -161.637 752.279 c 0
 -161.637 744.835 -159.123 739.027 -156 732 c 0
 -150 724 -143 720 -131 720 c 0
EndSplineSet
EndChar
StartChar: uni0E48.left
Encoding: 155 63251 125
OldEncoding: 63251
Width: 0
Flags: W
DStem: -11 1248 53 1248 -53 1048 11 1048
Fore
-53 1048 m 1
 -11 1248 l 1
 53 1248 l 1
 11 1048 l 1
 -53 1048 l 1
EndSplineSet
EndChar
StartChar: uni0E49.left
Encoding: 156 63252 126
OldEncoding: 63252
Width: 0
Flags: W
HStem: 999 48<-112 -83> 1074 44<-150 -131> 1078 40<-134 -127> 1200 44<-119 -103>
Fore
-30 1155 m 0
 -35 1125 -48 1101 -60 1083 c 0
 -74 1065 -85 1053 -92 1047 c 1
 -77 1047 -65 1048 -52 1052 c 0
 -40 1053 -28 1054 -15 1059 c 0
 -4 1065 12 1072 30 1084 c 0
 55 1104 73 1124 85 1149 c 0
 96 1174 104 1203 111 1238 c 1
 175 1238 l 1
 152 1131 102 1060 22 1026 c 0
 -18 1006 -62 999 -112 999 c 0
 -132 999 -150 1000 -165 1002 c 0
 -179 1005 -191 1006 -196 1008 c 1
 -189 1012 -178 1018 -163 1029 c 0
 -149 1041 -138 1056 -127 1078 c 1
 -128 1078 -131 1078 -134 1077 c 0
 -140 1074 -146 1074 -150 1074 c 0
 -154 1074 -163 1077 -171 1078 c 0
 -200.227 1087.48 -213.855 1106.94 -213.855 1135.4 c 0
 -213.855 1142.97 -212.891 1151.18 -211 1160 c 0
 -208 1174 -201 1190 -192 1202 c 0
 -182 1215 -168 1226 -154 1234 c 0
 -138 1240 -123 1244 -105 1244 c 0
 -76 1244 -53 1236 -43 1218 c 0
 -33.8849 1204.33 -28.2317 1188.92 -28.2317 1171.79 c 0
 -28.2317 1166.37 -28.798 1160.77 -30 1155 c 0
-114 1200 m 0
 -126 1200 -138 1197 -147 1188 c 0
 -155 1179 -161 1172 -163 1160 c 0
 -164 1156 -164.444 1152.11 -164.444 1148.48 c 0
 -164.444 1141.22 -162.667 1135 -160 1131 c 0
 -154 1122 -143 1118 -131 1118 c 0
 -118 1118 -108 1122 -98 1131 c 0
 -88 1138 -83 1148 -80 1160 c 0
 -79.3944 1163.03 -79.0639 1165.96 -79.0639 1168.84 c 0
 -79.0639 1175.45 -80.8167 1181.72 -85 1188 c 0
 -92 1197 -101 1200 -114 1200 c 0
EndSplineSet
EndChar
StartChar: uni0E4A.left
Encoding: 157 63253 127
OldEncoding: 63253
Width: 0
Flags: W
HStem: 1014 30<-231 -218> 1119 30<-210 -200> 1191 47<-196 -171 -79 -59>
Fore
-230 1014 m 0
 -256 1016 -276 1029 -288 1053 c 0
 -296.146 1068.04 -299.973 1084.25 -299.973 1101.65 c 0
 -299.973 1112.01 -298.614 1122.8 -296 1134 c 0
 -290 1162 -272 1188 -253 1208 c 0
 -234 1227 -211 1238 -183 1238 c 0
 -171 1238 -160 1236 -154 1233 c 0
 -144 1227 -136 1222 -132 1216 c 0
 -128 1212 -124 1209 -124 1209 c 1
 -120 1214 -111 1218 -101 1227 c 0
 -89 1234 -75 1238 -59 1238 c 0
 -18.508 1238 1.97402 1216.78 1.97402 1174.8 c 0
 1.97402 1162.88 0.319627 1149.27 -3 1134 c 0
 -8 1108 -20 1084 -39 1060 c 1
 -30 1065 -18 1071 -4 1080 c 0
 9 1088 21 1098 30 1110 c 0
 48 1131 61 1152 66 1178 c 0
 67.4641 1183.86 68.3923 1194 68.3923 1207.65 c 0
 68.3923 1212.64 68.2679 1218.11 68 1224 c 1
 123 1240 l 1
 123 1230 123 1216 120 1198 c 0
 110 1152 90 1113 60 1082 c 0
 23 1040 -40 1018 -123 1018 c 1
 -116 1026 -107 1034 -96 1044 c 0
 -88 1053 -78 1065 -71 1078 c 0
 -60 1092 -55 1107 -51 1124 c 0
 -48.3333 1137.33 -46.1111 1149.33 -46.1111 1159.41 c 0
 -46.1111 1164.44 -46.6667 1169 -48 1173 c 0
 -50 1185 -61 1191 -79 1191 c 0
 -91 1191 -99 1188 -111 1179 c 0
 -120 1172 -129 1164 -131 1160 c 1
 -134 1164 -139 1172 -145 1179 c 0
 -152 1188 -167 1191 -187 1191 c 0
 -200 1191 -210 1186 -221 1178 c 0
 -231 1170 -237 1156 -241 1138 c 1
 -240 1140 -234 1143 -226 1146 c 0
 -218 1148 -210 1149 -202 1149 c 0
 -179 1149 -163 1143 -154 1131 c 0
 -148.142 1123.97 -145.716 1114.54 -145.716 1103.51 c 0
 -145.716 1095.71 -146.929 1087.11 -149 1078 c 0
 -152 1064 -163 1047 -179 1034 c 0
 -195 1020 -212 1014 -230 1014 c 0
-208 1119 m 0
 -220 1119 -229 1116 -237 1107 c 0
 -247 1098 -251 1090 -253 1082 c 0
 -253.606 1078.67 -253.936 1075.71 -253.936 1072.97 c 0
 -253.936 1066.67 -252.183 1061.58 -248 1056 c 0
 -243 1047 -236 1044 -224 1044 c 0
 -212 1044 -200 1047 -194 1056 c 1
 -187 1060 -181 1070 -178 1082 c 0
 -177.464 1084.68 -177.215 1087.22 -177.215 1089.65 c 0
 -177.215 1096.29 -179.072 1102.14 -182 1108 c 0
 -186 1116 -196 1119 -208 1119 c 0
EndSplineSet
EndChar
StartChar: uni0E4B.left
Encoding: 158 63254 128
OldEncoding: 63254
Width: 0
Flags: W
HStem: 1101 59<-135 -42 35 129>
DStem: -42 1101 22 1101 -60 1018 4 1018 -12 1244 52 1244 -29 1160 35 1160
Fore
-42 1101 m 1
 -147 1101 l 1
 -134 1160 l 1
 -29 1160 l 1
 -12 1244 l 1
 52 1244 l 1
 35 1160 l 1
 142 1160 l 1
 129 1101 l 1
 22 1101 l 1
 4 1018 l 1
 -60 1018 l 1
 -42 1101 l 1
EndSplineSet
EndChar
StartChar: uni0E4C.left
Encoding: 159 63255 129
OldEncoding: 63255
Width: 0
Flags: W
HStem: 948 45<-66 -53>
Fore
-100 1070 m 0
 -98 1074 -88 1083 -78 1092 c 0
 -68 1100 -51 1104 -33 1106 c 1
 -9 1104 8 1096 20 1082 c 0
 27.5966 1070.95 30.9008 1058.95 30.9008 1045.99 c 0
 30.9008 1040.18 30.2376 1034.19 29 1028 c 0
 24 1006 14 988 -3 974 c 0
 -21 957 -41 948 -66 948 c 0
 -68.7334 947.844 -71.3996 947.767 -74.0002 947.767 c 0
 -104.7 947.767 -126.25 958.484 -141 976 c 0
 -150.466 988.171 -155.818 1003.09 -155.818 1021.98 c 0
 -155.818 1031.03 -154.591 1040.99 -152 1052 c 0
 -141 1104 -111 1143 -63 1162 c 0
 -41 1173 -10 1178 31 1179 c 0
 69 1182 99 1186 119 1194 c 0
 137 1198 148 1215 154 1240 c 1
 204 1240 l 1
 198 1215 188 1197 171 1182 c 0
 155 1166 138 1156 118 1150 c 0
 96 1143 65 1137 29 1136 c 0
 -7 1134 -34 1130 -53 1122 c 0
 -73 1116 -89 1098 -100 1070 c 0
-42 1065 m 0
 -65 1065 -79 1053 -84 1029 c 0
 -84.582 1026.38 -84.9099 1023.85 -84.9099 1021.4 c 0
 -84.9099 1015.43 -82.963 1009.96 -78 1005 c 0
 -76 996 -68 993 -57 993 c 0
 -45 993 -36 996 -27 1004 c 0
 -19 1012 -14 1020 -12 1029 c 0
 -11.3668 1032.48 -11.0343 1035.56 -11.0343 1038.37 c 0
 -11.0343 1044.43 -12.5831 1049.22 -16 1054 c 0
 -21 1060 -30 1065 -42 1065 c 0
EndSplineSet
EndChar
StartChar: uni0E01
Encoding: 161 3585 131
OldEncoding: 3585
Width: 615
Flags: W
HStem: 0 21G<94 166 456 526> 525 61<397 431>
DStem: 155 286 228 290 94 0 166 0 541 400 611 400 456 0 526 0
Fore
132 453 m 1
 152 474 188 504 240 537 c 0
 291 570 351 586 422 586 c 0
 464 586 501 579 534 566 c 0
 565 552 590 532 603 504 c 0
 612.467 486.25 616.682 467.099 616.682 446.133 c 0
 616.682 431.665 614.675 416.333 611 400 c 2
 526 0 l 1
 456 0 l 1
 541 400 l 2
 542.923 408.334 543.819 416.155 543.819 423.56 c 0
 543.819 439.258 539.794 453.09 533 466 c 0
 523 484 508 500 486 510 c 0
 465 520 439 525 410 525 c 0
 349 525 292 507 241 470 c 1
 251 468 266 460 288 452 c 0
 310 441 328 426 344 406 c 1
 329 404 308 393 281 376 c 0
 255 360 236 330 228 290 c 2
 166 0 l 1
 94 0 l 1
 155 286 l 2
 162 321 176 346 191 364 c 0
 209 381 228 394 248 404 c 1
 241 410 230 418 209 430 c 0
 190 442 164 452 132 453 c 1
EndSplineSet
EndChar
StartChar: uni0E02
Encoding: 162 3586 132
OldEncoding: 3586
Width: 624
Flags: W
HStem: 0 62<192 435> 339 54<202 230> 532 54<331 345>
DStem: 306 264 376 255 263 62 335 62 588 576 659 576 489 110 560 110
Fore
331 586 m 0
 365 586 395 579 417 566 c 0
 439 550 455 532 465 510 c 0
 471.068 495.167 474.409 479.879 474.409 463.83 c 0
 474.409 456.076 473.629 448.144 472 440 c 0
 467 417 461 400 452 388 c 0
 446 376 437 364 425 350 c 0
 411 334 402 322 394 310 c 0
 387 298 381 279 376 255 c 2
 335 62 l 1
 427 62 l 2
 448 62 466 64 473 70 c 0
 478 76 485 90 489 110 c 2
 588 576 l 1
 659 576 l 1
 560 110 l 2
 551 64 537 34 517 21 c 0
 498 8 462 0 414 0 c 2
 180 0 l 1
 193 62 l 1
 263 62 l 1
 306 264 l 2
 311 285 316 302 325 314 c 0
 330 324 339 336 353 351 c 0
 365 364 377 376 384 388 c 0
 393 400 398 416 404 434 c 0
 405.828 442.53 406.728 450.689 406.728 458.476 c 0
 406.728 476.251 402.04 492.093 393 506 c 0
 377 524 356 532 331 532 c 0
 325 532 317 531 305 530 c 1
 313 526 323 519 338 506 c 0
 344.319 497.958 347.668 486.616 347.668 471.974 c 0
 347.668 461.127 345.83 448.469 342 434 c 0
 336 404 318 380 295 364 c 0
 269 348 238 339 202 339 c 1
 154.373 346.144 130.06 374.081 130.06 423.311 c 0
 130.06 436.101 131.701 450.327 135 466 c 1
 146 501 175 532 214 555 c 0
 254 576 293 586 331 586 c 0
252 498 m 0
 235 498 221 494 209 483 c 0
 199 472 191 460 188 446 c 0
 187.174 442.146 186.803 438.444 186.803 434.894 c 0
 186.803 425.545 189.376 417.247 193 410 c 0
 201 399 213 393 230 393 c 0
 246 393 262 399 271 410 c 0
 283 420 290 432 293 446 c 0
 293.9 450.2 294.35 454.22 294.35 458.087 c 0
 294.35 467.11 291.9 475.3 287 483 c 0
 282 494 268 498 252 498 c 0
EndSplineSet
EndChar
StartChar: uni0E03
Encoding: 163 3587 133
OldEncoding: 3587
Width: 663
Flags: W
HStem: 0 62<231 481> 258 52<185 200> 416 49<216 231>
DStem: 369 370 440 368 303 62 375 62 628 576 698 576 529 110 599 110
Fore
516 478 m 0
 513 466 509 456 501 448 c 0
 496 442 488 435 479 428 c 0
 469 420 462 412 454 404 c 0
 447 394 443 382 440 368 c 2
 375 62 l 1
 466 62 l 2
 487 62 504 64 510 70 c 1
 517 76 525 90 529 110 c 2
 628 576 l 1
 698 576 l 1
 599 110 l 2
 590 64 575 34 556 21 c 0
 539 8 504 0 453 0 c 2
 219 0 l 1
 232 62 l 1
 303 62 l 1
 369 370 l 2
 373 392 377 406 386 418 c 0
 393 429 402 438 409 444 c 0
 416 448 427 456 441 465 c 0
 450 470 453 474 455 483 c 0
 455.46 485.071 455.709 487.301 455.709 489.654 c 0
 455.709 497.523 452.929 506.762 446 516 c 0
 436 525 427 532 417 534 c 1
 337 486 l 1
 267 534 l 1
 242 530 220 516 204 496 c 0
 186 478 176 460 173 446 c 1
 175 448 183 453 191 458 c 0
 202 462 215 465 231 465 c 0
 258 462 283 454 301 440 c 0
 311.513 427.384 317.114 410.839 317.114 390.363 c 0
 317.114 381.625 316.094 372.17 314 362 c 0
 307 328 289 303 265 285 c 0
 239 266 211 258 185 258 c 0
 151 258 124 272 107 297 c 0
 95.8846 314.654 90.3269 334.873 90.3269 358.775 c 0
 90.3269 371.429 91.8846 385.115 95 400 c 0
 101 426 110 452 122 472 c 1
 138 507 165 534 199 556 c 0
 232 576 263 586 284 586 c 1
 349 540 l 1
 425 586 l 1
 451 578 474 564 494 546 c 0
 509.869 530.131 517.554 513.003 517.554 493.617 c 0
 517.554 488.57 517.033 483.37 516 478 c 0
218 416 m 0
 204 416 189 410 178 400 c 0
 165 390 158 378 155 363 c 0
 154.148 359.31 153.7 355.7 153.7 352.17 c 0
 153.7 343.267 156.555 334.877 163 327 c 0
 169 315 182 310 196 310 c 0
 213 310 227 315 239 326 c 0
 250 338 257 350 260 363 c 0
 260.929 367.644 261.378 372 261.378 376.098 c 0
 261.378 385.238 259.142 393.096 255 400 c 0
 247 410 235 416 218 416 c 0
EndSplineSet
EndChar
StartChar: uni0E04
Encoding: 164 3588 134
OldEncoding: 3588
Width: 621
Flags: W
HStem: 0 21G<146 216 462 534> 240 51<329 343> 396 52<357 376> 534 57<389 419>
DStem: 168 104 271 261 146 0 216 0 544 386 617 392 462 0 534 0
Fore
193 381 m 0
 191.4 373.4 190.6 365 190.6 355.992 c 0
 190.6 342.48 192.4 327.6 196 312 c 0
 203 286 205 266 206 250 c 1
 218 304 l 2
 227 348 243 381 271 408 c 0
 299 435 333 448 374 448 c 0
 407 448 432 440 445 418 c 0
 454.558 405.893 458.432 391.349 458.432 374.628 c 0
 458.432 365.108 457.177 354.883 455 344 c 0
 449 315 437 291 414 272 c 0
 391 250 363 240 330 240 c 0
 301 240 283 248 271 261 c 1
 216 0 l 1
 146 0 l 1
 168 104 l 2
 170.913 118.564 172.468 132.45 172.468 145.261 c 0
 172.468 154.441 171.67 163.069 170 171 c 0
 166 190 157 213 145 243 c 0
 133 272 126 296 121 315 c 0
 119.4 322.6 118.6 330.84 118.6 339.848 c 0
 118.6 353.36 120.4 368.6 124 386 c 0
 133 429 153 466 183 496 c 0
 215 530 249 552 292 568 c 0
 332 584 375 591 417 591 c 0
 483 591 536 573 574 538 c 0
 606.298 512.462 622.234 479.027 622.234 436.845 c 0
 622.234 422.867 620.485 407.929 617 392 c 2
 534 0 l 1
 462 0 l 1
 544 386 l 2
 546.678 398.32 548.065 410.065 548.065 421.141 c 0
 548.065 451.422 537.698 476.695 515 495 c 0
 486 520 448 534 400 534 c 0
 351 534 307 520 267 495 c 0
 229 470 203 430 193 381 c 0
363 396 m 0
 346 396 332 392 321 381 c 0
 311 370 303 360 299 344 c 0
 298.299 340.727 297.98 337.563 297.98 334.521 c 0
 297.98 324.553 301.403 315.896 306 309 c 0
 312 297 324 291 341 291 c 0
 359 291 373 297 384 309 c 0
 395 318 402 330 405 344 c 0
 406.223 348.892 406.792 353.223 406.792 357.193 c 0
 406.792 366.208 403.86 373.363 399 381 c 0
 393 392 381 396 363 396 c 0
EndSplineSet
EndChar
StartChar: uni0E05
Encoding: 165 3589 135
OldEncoding: 3589
Width: 621
Flags: W
HStem: 0 21G<146 216 462 534> 240 51<329 343> 396 52<357 376>
DStem: 168 104 271 261 146 0 216 0 525 586 508 526 414 520 402 466 544 386 617 392 462 0 534 0
Fore
124 386 m 0
 132 423 155 462 196 500 c 0
 236 537 279 566 331 586 c 1
 414 520 l 1
 525 586 l 1
 590.358 552.111 622.511 502.596 622.511 439.558 c 0
 622.511 424.47 620.669 408.608 617 392 c 2
 534 0 l 1
 462 0 l 1
 544 386 l 2
 549 410 552 432 553 448 c 0
 552 466 549 480 545 488 c 0
 540 496 535 504 526 510 c 0
 520 518 513 522 508 526 c 1
 402 466 l 1
 402 468 392 474 374 490 c 0
 356 506 336 518 324 526 c 1
 285 510 257 490 237 466 c 0
 216 441 202 414 193 381 c 0
 191.4 373.4 190.6 365 190.6 355.992 c 0
 190.6 342.48 192.4 327.6 196 312 c 0
 203 286 205 266 206 250 c 1
 218 304 l 2
 227 348 243 381 271 408 c 0
 299 435 333 448 374 448 c 0
 407 448 432 440 445 418 c 0
 454.558 405.893 458.432 391.349 458.432 374.628 c 0
 458.432 365.108 457.177 354.883 455 344 c 0
 449 315 437 291 414 272 c 0
 391 250 363 240 330 240 c 0
 301 240 283 248 271 261 c 1
 216 0 l 1
 146 0 l 1
 168 104 l 2
 170.913 118.564 172.468 132.45 172.468 145.261 c 0
 172.468 154.441 171.67 163.069 170 171 c 0
 166 190 157 213 145 243 c 0
 133 272 126 296 121 315 c 0
 119.4 322.6 118.6 330.84 118.6 339.848 c 0
 118.6 353.36 120.4 368.6 124 386 c 0
363 396 m 0
 346 396 332 392 321 381 c 0
 311 370 303 360 299 344 c 0
 298.299 340.727 297.98 337.563 297.98 334.521 c 0
 297.98 324.553 301.403 315.896 306 309 c 0
 312 297 324 291 341 291 c 0
 359 291 373 297 384 309 c 0
 395 318 402 330 405 344 c 0
 406.223 348.892 406.792 353.223 406.792 357.193 c 0
 406.792 366.208 403.86 373.363 399 381 c 0
 393 392 381 396 363 396 c 0
EndSplineSet
EndChar
StartChar: uni0E06
Encoding: 166 3590 136
OldEncoding: 3590
Width: 777
Flags: W
HStem: -10 60<277 291> 0 21G<618 690> 198 52<343 356> 258 52<199 217> 416 49<232 245>
DStem: 345 198 416 195 320 78 394 88 382 370 453 368 356 250 428 250 740 576 812 576 644 120 690 0
Fore
356 250 m 1
 382 370 l 2
 386 390 394 406 401 418 c 0
 407 430 416 440 425 446 c 0
 434 452 443 458 456 465 c 0
 464 470 469 474 471 483 c 0
 471.392 485.158 471.592 487.277 471.592 489.38 c 0
 471.592 498 468.235 506.354 461 516 c 0
 451 525 440 532 432 534 c 1
 351 486 l 1
 280 534 l 1
 257 530 238 516 217 496 c 0
 201 478 190 460 187 446 c 1
 189 448 196 453 205 458 c 0
 215 462 229 465 245 465 c 0
 272 462 297 454 313 438 c 0
 324.739 426.952 330.279 411.135 330.279 391.209 c 0
 330.279 382.278 329.166 372.522 327 362 c 0
 320 328 302 303 279 285 c 0
 252 266 226 258 201 258 c 0
 165 258 139 272 123 297 c 0
 112.333 315 106.556 335.667 106.556 360.185 c 0
 106.556 372.444 108 385.667 111 400 c 0
 116 423 123 447 136 472 c 0
 154 507 180 534 212 556 c 0
 245 576 277 586 297 586 c 1
 363 540 l 1
 440 586 l 1
 465 578 488 564 508 546 c 0
 523.869 530.131 531.554 513.003 531.554 493.617 c 0
 531.554 488.57 531.033 483.37 530 478 c 0
 527 466 523 456 515 448 c 0
 510 442 502 435 493 428 c 0
 482 418 475 412 467 404 c 0
 460 394 456 382 453 368 c 2
 428 250 l 1
 465 248 498 238 530 224 c 0
 558 210 584 194 603 174 c 0
 623 154 637 135 644 120 c 1
 740 576 l 1
 812 576 l 1
 690 0 l 1
 618 0 l 1
 619.312 5.77432 620.005 11.8242 620.005 18.1135 c 0
 620.005 35.7862 614.538 55.3491 602 76 c 0
 586 105 562 132 528 154 c 0
 496 177 457 190 416 195 c 1
 394 88 l 2
 387 57 373 34 354 16 c 0
 334 -2 308 -10 277 -10 c 0
 244 -10 219 2 206 27 c 0
 196.996 43.622 191.83 62.6423 191.83 84.061 c 0
 191.83 93.5681 192.848 103.548 195 114 c 0
 202 148 222 182 251 208 c 0
 280 234 314 249 356 250 c 1
262 64 m 0
 267 54 277 50 289 50 c 0
 307 50 316 60 320 78 c 2
 345 198 l 1
 321 198 301 190 286 174 c 0
 271 158 261 140 256 117 c 0
 254.098 108.249 253.064 100.222 253.064 92.9737 c 0
 253.064 81.1714 255.805 71.4343 262 64 c 0
234 416 m 0
 217 416 203 410 191 400 c 0
 182 392 173 378 170 363 c 0
 169.268 359.827 168.953 356.714 168.953 353.645 c 0
 168.953 344.142 171.976 335.071 175 326 c 0
 183 315 195 310 212 310 c 0
 228 310 244 315 253 326 c 0
 265 336 272 348 275 363 c 0
 276 368 276.556 372.889 276.556 377.481 c 0
 276.556 386.667 274.333 394.667 269 400 c 0
 264 410 250 416 234 416 c 0
EndSplineSet
EndChar
StartChar: uni0E07
Encoding: 167 3591 137
OldEncoding: 3591
Width: 487
Flags: W
HStem: -12 64<306 316> 375 53<374 392> 531 53<406 420>
DStem: 103 362 164 392 224 39 288 70 409 381 502 478 345 80 416 75
Fore
345 80 m 2
 409 381 l 1
 401 376 390 375 376 375 c 0
 342 375 319 386 305 406 c 0
 295.506 420.92 291.07 436.76 291.07 454.143 c 0
 291.07 462.392 292.069 470.989 294 480 c 0
 300 508 314 534 337 555 c 0
 359 573 386 584 420 584 c 0
 440 584 459 578 472 570 c 0
 485 561 496 548 501 532 c 0
 503.639 524.61 504.885 515.548 504.885 505.697 c 0
 504.885 496.885 503.889 487.443 502 478 c 2
 416 75 l 2
 410 48 398 26 377 10 c 0
 356 -4 333 -12 307 -12 c 0
 288 -12 272 -9 258 0 c 0
 245 9 229 21 224 39 c 2
 103 362 l 1
 164 392 l 1
 288 70 l 2
 292 60 301 52 314 52 c 0
 323 52 327 54 335 60 c 0
 341 64 343 70 345 80 c 2
409 531 m 0
 392 531 378 525 368 516 c 0
 355 504 348 492 345 480 c 0
 344.174 476.146 343.803 472.444 343.803 468.894 c 0
 343.803 459.545 346.376 451.247 350 444 c 0
 358 432 370 428 387 428 c 0
 403 428 418 432 430 444 c 0
 441 454 449 466 452 480 c 0
 452.688 482.752 453.008 485.503 453.008 488.255 c 0
 453.008 497.503 449.395 506.752 444 516 c 0
 436 525 423 531 409 531 c 0
EndSplineSet
EndChar
StartChar: uni0E08
Encoding: 168 3592 138
OldEncoding: 3592
Width: 579
Flags: W
HStem: 0 21G<420 492> 210 51<288 299> 364 56<319 335> 532 54<367 396>
DStem: 504 396 576 396 470 234 492 0
Fore
333 420 m 0
 367 420 395 410 414 386 c 0
 434 360 445 330 455 296 c 0
 461 261 469 240 470 234 c 1
 504 396 l 2
 506.709 407.919 508.023 418.957 508.023 429.174 c 0
 508.023 456.676 498.499 478.23 481 495 c 0
 456 519 422 532 375 532 c 0
 372.851 532.057 370.708 532.086 368.57 532.086 c 0
 296.112 532.086 230.367 499.252 175 440 c 1
 137 474 l 1
 159 504 194 530 239 552 c 0
 284 574 335 586 389 586 c 0
 433 586 469 579 501 564 c 0
 533 549 555 530 566 500 c 0
 576.091 481.71 581.011 461.829 581.011 439.103 c 0
 581.011 425.795 579.324 411.511 576 396 c 2
 492 0 l 1
 420 0 l 1
 426.285 28.7333 430.152 60.6916 430.152 93.7031 c 0
 430.152 97.4562 430.102 101.223 430 105 c 0
 430 141 425 174 420 206 c 0
 413 236 405 258 396 273 c 1
 390 262 379 250 362 236 c 0
 344 220 319 212 289 210 c 0
 261 210 237 220 222 240 c 0
 211.487 254.718 205.886 271.402 205.886 291.083 c 0
 205.886 299.482 206.906 308.428 209 318 c 0
 215 350 231 374 253 392 c 0
 275 410 301 420 333 420 c 0
321 364 m 0
 303 364 290 360 280 350 c 0
 268 339 262 327 259 314 c 0
 258.031 309.48 257.48 305.168 257.48 301.065 c 0
 257.48 292.46 259.906 284.771 266 278 c 0
 273 266 285 261 299 261 c 0
 315 261 330 266 341 276 c 0
 351 286 359 298 363 314 c 0
 363.826 317.578 364.197 321.081 364.197 324.508 c 0
 364.197 333.53 361.624 342.028 358 350 c 0
 351 360 338 364 321 364 c 0
EndSplineSet
EndChar
StartChar: uni0E09
Encoding: 169 3593 139
OldEncoding: 3593
Width: 663
Flags: W
HStem: -10 56<535 560> 0 21G<172 244> 195 51<180 197> 351 53<213 229> 531 55<429 450>
DStem: 215 201 307 297 172 0 270 123 511 192 581 192 482 57 553 62 554 396 624 396 523 248 593 248
Fore
307 297 m 2
 270 123 l 1
 304 159 343 186 390 208 c 0
 436 230 480 243 523 248 c 1
 554 396 l 2
 556.869 408.625 558.257 420.262 558.257 430.981 c 0
 558.257 457.622 549.688 478.599 534 495 c 0
 512 519 477 531 431 531 c 0
 392 531 355 520 318 501 c 0
 285 483 256 459 233 434 c 1
 194 470 l 1
 223 501 259 531 301 552 c 0
 346 574 395 586 443 586 c 0
 511 586 561 570 594 536 c 0
 617.674 513.043 629.511 481.853 629.511 443.904 c 0
 629.511 428.955 627.674 412.957 624 396 c 2
 593 248 l 1
 627 240 652 225 667 204 c 0
 675.146 188.962 678.973 170.782 678.973 150.938 c 0
 678.973 139.112 677.614 126.696 675 114 c 0
 668 78 650 48 624 26 c 0
 597 2 568 -10 535 -10 c 0
 516 -10 499 -3 490 9 c 0
 483.626 17.4984 480.262 28.5047 480.262 40.953 c 0
 480.262 46.082 480.833 51.4559 482 57 c 2
 511 192 l 1
 467 183 426 170 385 148 c 0
 345 128 313 104 289 76 c 0
 266 50 249 24 244 0 c 1
 172 0 l 1
 215 201 l 1
 208 196 197 195 182 195 c 0
 149 195 126 206 112 226 c 0
 102.688 241.759 97.4809 258.543 97.4809 277.089 c 0
 97.4809 284.435 98.2978 292.056 100 300 c 0
 106 328 119 352 142 374 c 0
 165 393 192 404 227 404 c 0
 258 404 280 393 295 374 c 0
 304.756 358.669 310.141 341.882 310.141 322.961 c 0
 310.141 314.73 309.122 306.095 307 297 c 2
216 351 m 0
 198 351 184 346 173 336 c 0
 162 326 155 314 151 298 c 0
 150.196 294.249 149.823 290.641 149.823 287.158 c 0
 149.823 277.641 152.608 269.053 157 261 c 0
 163 250 175 246 193 246 c 0
 210 246 224 250 235 261 c 0
 246 273 255 285 257 298 c 0
 258.117 302.468 258.61 306.624 258.61 310.511 c 0
 258.61 320.546 255.325 328.792 251 336 c 0
 245 346 233 351 216 351 c 0
621 114 m 0
 622.754 122.769 623.546 131.346 623.546 139.477 c 0
 623.546 149.892 622.246 159.577 620 168 c 0
 612 182 600 190 581 192 c 1
 553 62 l 2
 552.583 59.7042 552.383 57.6697 552.383 55.8875 c 0
 552.383 49.1307 555.252 46 560 46 c 0
 572 46 585 52 598 66 c 0
 608 80 617 94 621 114 c 0
EndSplineSet
EndChar
StartChar: uni0E0A
Encoding: 170 3594 140
OldEncoding: 3594
Width: 624
Flags: W
HStem: 0 62<192 435> 339 54<202 230> 434 50<471 481.931> 532 54<331 345>
DStem: 306 264 376 255 263 62 335 62 537 332 611 346 489 110 560 110
Fore
554 462 m 1
 558 462 569 460 580 456 c 0
 591 452 601 441 609 422 c 0
 613.287 412.354 615.277 400.41 615.277 386.477 c 0
 615.277 374.41 613.785 360.851 611 346 c 2
 560 110 l 2
 551 64 537 34 517 21 c 0
 498 8 462 0 414 0 c 2
 180 0 l 1
 193 62 l 1
 263 62 l 1
 306 264 l 2
 311 285 316 302 325 314 c 0
 330 324 339 336 353 351 c 0
 365 364 377 376 384 388 c 0
 393 400 398 416 404 434 c 0
 405.828 442.53 406.728 450.689 406.728 458.476 c 0
 406.728 476.251 402.04 492.093 393 506 c 0
 377 524 356 532 331 532 c 0
 325 532 317 531 305 530 c 1
 313 526 323 519 338 506 c 0
 344.319 497.958 347.668 486.616 347.668 471.974 c 0
 347.668 461.127 345.83 448.469 342 434 c 0
 336 404 318 380 295 364 c 0
 269 348 238 339 202 339 c 1
 154.373 346.144 130.06 374.081 130.06 423.311 c 0
 130.06 436.101 131.701 450.327 135 466 c 1
 146 501 175 532 214 555 c 0
 254 576 293 586 331 586 c 0
 357 586 382 582 401 573 c 0
 422 564 438 550 450 536 c 0
 462 520 469 504 471 484 c 1
 489 484 517 494 556 512 c 0
 596 530 639 564 681 618 c 1
 727 586 l 1
 700 548 670 518 636 498 c 0
 598 480 571 468 554 462 c 1
468 434 m 1
 464 416 460 399 451 387 c 0
 444 375 437 362 425 350 c 0
 413 336 402 322 394 309 c 0
 387 296 381 276 376 255 c 2
 335 62 l 1
 427 62 l 2
 448 62 466 64 473 70 c 0
 478 76 485 90 489 110 c 2
 537 332 l 2
 539.598 344.619 540.887 356.067 540.887 366.344 c 0
 540.887 411.448 516.051 434 468 434 c 1
252 498 m 0
 235 498 221 494 209 483 c 0
 199 472 191 460 188 446 c 0
 187.174 442.146 186.803 438.444 186.803 434.894 c 0
 186.803 425.545 189.376 417.247 193 410 c 0
 201 399 213 393 230 393 c 0
 246 393 262 399 271 410 c 0
 283 420 290 432 293 446 c 0
 293.9 450.2 294.35 454.22 294.35 458.087 c 0
 294.35 467.11 291.9 475.3 287 483 c 0
 282 494 268 498 252 498 c 0
EndSplineSet
EndChar
StartChar: uni0E0B
Encoding: 171 3595 141
OldEncoding: 3595
Width: 663
Flags: W
HStem: 0 62<231 483> 258 52<185 200> 416 49<216 231>
DStem: 369 370 440 368 303 62 375 62 580 346 650 346 529 110 599 110
Fore
519 495 m 1
 538 500 569 512 610 534 c 0
 650 555 689 588 725 636 c 1
 770 602 l 1
 750 576 727 550 701 532 c 0
 673 512 650 500 631 492 c 0
 610 482 597 474 588 472 c 1
 604 471 620 460 639 446 c 0
 650.27 435.356 655.66 417.655 655.66 394.124 c 0
 655.66 380.074 653.739 363.945 650 346 c 2
 599 110 l 2
 590 64 575 34 556 21 c 0
 539 8 504 0 453 0 c 2
 219 0 l 1
 232 62 l 1
 303 62 l 1
 369 370 l 2
 375 399 385 417 394 429 c 0
 406 441 422 453 441 465 c 0
 450 470 453 474 455 483 c 0
 455.46 485.071 455.709 487.301 455.709 489.654 c 0
 455.709 497.523 452.929 506.762 446 516 c 0
 436 525 427 532 417 534 c 1
 337 486 l 1
 267 534 l 1
 242 530 220 516 204 496 c 0
 186 478 176 460 173 446 c 1
 175 448 183 453 191 458 c 0
 202 462 215 465 231 465 c 0
 258 462 283 454 301 440 c 0
 311.513 427.384 317.114 410.839 317.114 390.363 c 0
 317.114 381.625 316.094 372.17 314 362 c 0
 307 328 289 303 265 285 c 0
 239 266 211 258 185 258 c 0
 151 258 124 272 107 297 c 0
 95.8846 314.654 90.3269 334.873 90.3269 358.775 c 0
 90.3269 371.429 91.8846 385.115 95 400 c 0
 101 426 110 452 122 472 c 1
 138 507 165 534 199 556 c 0
 232 576 263 586 284 586 c 1
 349 540 l 1
 425 586 l 1
 450 582 468 573 481 560 c 0
 494 546 505 532 510 518 c 0
 515 504 519 496 519 495 c 1
 519 495 l 1
501 446 m 1
 496 441 488 434 479 428 c 0
 467 420 458 414 454 405 c 0
 447 396 444 386 440 368 c 2
 375 62 l 1
 466 62 l 2
 487 62 504 64 510 70 c 1
 517 76 525 90 529 110 c 2
 580 346 l 2
 582.4 357.316 583.595 367.691 583.595 377.115 c 0
 583.595 422.659 555.684 446 501 446 c 1
218 416 m 0
 204 416 189 410 178 400 c 0
 165 390 158 378 155 363 c 0
 154.148 359.31 153.7 355.7 153.7 352.17 c 0
 153.7 343.267 156.555 334.877 163 327 c 0
 169 315 182 310 196 310 c 0
 213 310 227 315 239 326 c 0
 250 338 257 350 260 363 c 0
 260.929 367.644 261.378 372 261.378 376.098 c 0
 261.378 385.238 259.142 393.096 255 400 c 0
 247 410 235 416 218 416 c 0
EndSplineSet
EndChar
StartChar: uni0E0C
Encoding: 172 3596 142
OldEncoding: 3596
Width: 804
Flags: W
HStem: -10 52<198 216> -10 64<414 420> 0 21G<646 717> 146 52<228 243> 534 52<382 420>
DStem: 158 300 230 303 114 94 207 192 451 162 521 154 431 68 502 64 507 423 578 423 462 212 533 210 768 576 839 576 668 104 717 0
Fore
230 303 m 2
 207 192 l 1
 213 196 225 198 243 198 c 0
 276 198 298 188 312 168 c 0
 319.787 153.135 324.567 136.766 324.567 118.184 c 0
 324.567 110.516 323.753 102.472 322 94 c 0
 316 66 301 42 281 22 c 0
 258 0 232 -10 199 -10 c 0
 169 -10 146 0 130 18 c 0
 117.676 32.499 111.133 49.6258 111.133 69.7613 c 0
 111.133 77.4008 112.075 85.4734 114 94 c 2
 158 300 l 2
 172 366 204 406 256 423 c 1
 249 430 235 441 214 453 c 0
 195 465 168 472 138 482 c 1
 156 500 187 522 232 548 c 0
 276 573 333 586 401 586 c 0
 522.226 586 582.838 546.084 582.838 465.617 c 0
 582.838 452.491 581.226 438.287 578 423 c 2
 533 210 l 1
 557 206 584 194 610 174 c 0
 637 154 656 130 668 104 c 1
 768 576 l 1
 839 576 l 1
 717 0 l 1
 646 0 l 1
 642 16 637 34 632 52 c 0
 624 69 610 88 593 108 c 0
 575 128 550 142 521 154 c 1
 502 64 l 2
 491 15 464 -10 418 -10 c 0
 390 -10 369 2 357 24 c 0
 350.94 38.813 347.147 56.3462 347.147 75.6838 c 0
 347.147 85.066 348.04 94.8729 350 105 c 0
 356 134 372 159 390 180 c 0
 411 200 433 210 462 212 c 1
 507 423 l 2
 509.286 433.286 510.429 443 510.429 452.073 c 0
 510.429 474.755 503.286 493.429 489 507 c 0
 469 525 440 534 400 534 c 0
 351 534 297 520 243 492 c 1
 252 488 268 480 291 468 c 0
 315 456 332 441 350 420 c 1
 341 420 332 418 318 414 c 0
 303 408 286 399 267 381 c 0
 249 363 238 338 230 303 c 2
431 68 m 1
 451 162 l 1
 426 158 407 138 399 99 c 0
 397.875 94.5 397.312 90.1406 397.312 86.0273 c 0
 397.312 79.1719 398.875 73 402 68 c 0
 406 60 411 54 416 54 c 0
 423 54 429 60 431 68 c 1
209 42 m 0
 227 42 241 48 250 57 c 0
 262 68 269 80 272 94 c 0
 273 98.6667 273.556 103.111 273.556 107.333 c 0
 273.556 115.778 271.333 123.333 266 130 c 0
 260 141 247 146 231 146 c 0
 215 146 201 141 190 130 c 0
 179 120 170 108 167 94 c 0
 166.174 90.1464 165.803 86.4444 165.803 82.873 c 0
 165.803 73.4696 168.376 64.9722 172 57 c 0
 181 48 193 42 209 42 c 0
EndSplineSet
EndChar
StartChar: uni0E0D
Encoding: 173 3597 143
OldEncoding: 3597
Width: 804
Flags: W
HStem: -288 51<445 464> -288 87<397 451> -110 54<417 430> -10 52<198 216> 0 62<358 624> 146 52<228 243> 534 52<377 422>
DStem: 158 300 230 303 114 94 207 192 507 423 578 423 430 62 501 62 768 576 839 576 669 110 740 110
Fore
704 -60 m 1
 694 -110 673 -153 648 -186 c 0
 622 -222 591 -248 556 -262 c 0
 520 -279 487 -288 451 -288 c 0
 405 -288 368 -274 339 -250 c 0
 314.491 -230.234 302.483 -207.968 302.483 -181.225 c 0
 302.483 -174.143 303.325 -166.747 305 -159 c 0
 311 -132 325 -108 346 -87 c 0
 364.553 -67.5196 390.85 -55.7839 422.497 -55.7839 c 0
 424.966 -55.7839 427.467 -55.8553 430 -56 c 0
 462 -56 484 -68 495 -87 c 0
 504.167 -98.7863 508.189 -113.145 508.189 -129.234 c 0
 508.189 -137.716 507.071 -146.679 505 -156 c 0
 501 -172 496 -188 483 -204 c 0
 472 -219 459 -230 445 -237 c 1
 482 -237 518 -225 555 -204 c 0
 591 -182 618 -132 633 -60 c 1
 704 -60 l 1
114 94 m 2
 158 300 l 2
 172 366 204 406 256 423 c 1
 249 430 235 441 214 453 c 0
 195 465 168 472 138 482 c 1
 156 500 187 522 232 548 c 0
 276 573 333 586 401 586 c 0
 522.226 586 582.838 546.084 582.838 465.617 c 0
 582.838 452.491 581.226 438.287 578 423 c 2
 501 62 l 1
 607 62 l 2
 628 62 644 64 651 70 c 1
 658 76 665 90 669 110 c 2
 768 576 l 1
 839 576 l 1
 740 110 l 2
 734 78 725 54 714 39 c 0
 705 24 691 14 672 9 c 0
 655 3 628 0 594 0 c 2
 346 0 l 1
 359 62 l 1
 430 62 l 1
 507 423 l 2
 509.286 433.286 510.429 443 510.429 452.073 c 0
 510.429 474.755 503.286 493.429 489 507 c 0
 469 525 440 534 400 534 c 0
 351 534 297 520 243 492 c 1
 252 488 268 480 291 468 c 0
 315 456 332 441 350 420 c 1
 341 420 332 418 318 414 c 0
 303 408 286 399 267 381 c 0
 249 363 238 338 230 303 c 2
 207 192 l 1
 213 196 225 198 243 198 c 0
 276 198 298 188 312 168 c 0
 319.787 153.135 324.567 136.766 324.567 118.184 c 0
 324.567 110.516 323.753 102.472 322 94 c 0
 316 66 301 42 281 22 c 0
 258 0 232 -10 199 -10 c 0
 169 -10 146 0 130 18 c 0
 117.676 32.499 111.133 49.6258 111.133 69.7613 c 0
 111.133 77.4008 112.075 85.4734 114 94 c 2
397 -201 m 0
 411 -201 423 -196 432 -188 c 0
 444 -180 448 -168 451 -156 c 0
 451.781 -151.315 452.409 -146.935 452.409 -142.682 c 0
 452.409 -136.04 450.877 -129.706 446 -123 c 0
 440 -116 431 -110 417 -110 c 0
 400 -110 389 -116 379 -123 c 0
 368 -132 361 -144 359 -156 c 0
 358.1 -159.6 357.65 -163.2 357.65 -166.692 c 0
 357.65 -174.84 360.1 -182.4 365 -188 c 0
 372 -196 383 -201 397 -201 c 0
209 42 m 0
 227 42 241 48 250 57 c 0
 262 68 269 80 272 94 c 0
 273 98.6667 273.556 103.111 273.556 107.333 c 0
 273.556 115.778 271.333 123.333 266 130 c 0
 260 141 247 146 231 146 c 0
 215 146 201 141 190 130 c 0
 179 120 170 108 167 94 c 0
 166.174 90.1464 165.803 86.4444 165.803 82.873 c 0
 165.803 73.4696 168.376 64.9722 172 57 c 0
 181 48 193 42 209 42 c 0
EndSplineSet
EndChar
StartChar: uni0E0E
Encoding: 174 3598 144
OldEncoding: 3598
Width: 684
Flags: W
HStem: -292 66<150 176> -120 63<200 222> -10 52<130 143> 146 52<156 174> 525 61<463 495>
DStem: 227 286 299 290 207 192 257 92 611 400 682 400 485 -195 535 -290
Fore
207 192 m 1
 227 286 l 2
 232 309 240 328 251 346 c 0
 259 362 270 375 281 382 c 0
 293 392 307 399 320 404 c 1
 312 410 299 418 279 430 c 0
 260 442 234 452 201 453 c 1
 221 474 259 504 310 537 c 0
 364 570 423 586 493 586 c 0
 559 586 612 572 646 538 c 0
 672.866 514.865 686.923 482.819 686.923 443.109 c 0
 686.923 429.609 685.298 415.223 682 400 c 2
 535 -290 l 1
 464 -290 l 1
 449 -258 428 -231 403 -208 c 0
 378 -186 357 -172 345 -165 c 1
 328 -196 303 -225 267 -252 c 0
 234.519 -276.361 199.595 -292.581 162.229 -292.581 c 0
 158.182 -292.581 154.105 -292.391 150 -292 c 0
 115 -292 88 -282 73 -260 c 0
 60.1877 -243.629 53.9619 -224.218 53.9619 -201.406 c 0
 53.9619 -192.169 54.9826 -182.375 57 -172 c 0
 67 -135 87 -106 117 -87 c 0
 146 -68 182 -57 220 -57 c 0
 252 -57 286 -64 322 -76 c 1
 324 -70 329 -63 336 -48 c 0
 342 -36 347 -18 352 0 c 1
 414 -14 l 1
 409 -32 403 -51 394 -68 c 0
 388 -82 382 -94 378 -104 c 1
 403 -117 425 -132 446 -152 c 0
 468 -170 480 -183 485 -195 c 1
 611 400 l 2
 613.25 409.75 614.375 418.797 614.375 427.299 c 0
 614.375 441.469 611.25 454.125 605 466 c 0
 595 484 578 500 556 510 c 0
 537 520 511 525 481 525 c 0
 421 525 364 507 312 470 c 1
 321 468 336 460 358 452 c 0
 380 441 400 426 414 406 c 1
 400 404 380 393 353 376 c 0
 326 360 307 330 299 290 c 2
 257 92 l 2
 250 63 238 39 214 21 c 0
 192 0 163 -10 130 -10 c 0
 98 -10 76 0 61 21 c 0
 51.4396 34.9729 45.665 52.7316 45.665 72.2876 c 0
 45.665 79.3233 46.4125 86.5916 48 94 c 0
 54 123 69 147 92 168 c 0
 115 188 142 198 174 198 c 0
 188 198 200 196 207 192 c 1
211 -219 m 0
 229 -210 246 -196 260 -178 c 0
 275 -159 284 -146 289 -135 c 1
 259 -126 232 -120 206 -120 c 0
 158 -120 131 -138 123 -172 c 0
 122.236 -175.82 121.91 -179.348 121.91 -182.695 c 0
 121.91 -188.111 122.764 -193.056 124 -198 c 0
 128 -218 146 -226 176 -226 c 0
 188 -226 198 -224 211 -219 c 0
141 42 m 0
 157 42 172 48 184 57 c 0
 196 68 203 80 206 94 c 0
 207 98.6667 207.556 103.111 207.556 107.333 c 0
 207.556 115.778 205.333 123.333 200 130 c 0
 192 141 179 146 163 146 c 0
 148 146 134 141 122 130 c 0
 109 118 103 106 100 94 c 0
 99.1255 90.2105 98.6758 86.5059 98.6758 82.9359 c 0
 98.6758 74.2589 101.332 66.3765 107 60 c 0
 114 48 126 42 141 42 c 0
EndSplineSet
EndChar
StartChar: uni0E0F
Encoding: 175 3599 145
OldEncoding: 3599
Width: 684
Flags: W
HStem: -292 55<122 142> -147 55<156 176> -10 52<130 145> 146 52<156 174> 525 61<463 495>
DStem: 227 286 299 290 207 192 257 92 420 -123 407 -195 327 -201 302 -292 611 400 682 400 482 -206 535 -290
Fore
207 192 m 1
 227 286 l 2
 232 309 240 328 251 346 c 0
 259 362 270 375 281 382 c 0
 293 392 307 399 320 404 c 1
 312 410 299 418 279 430 c 0
 260 442 234 452 201 453 c 1
 221 474 259 504 310 537 c 0
 364 570 423 586 493 586 c 0
 559 586 612 572 646 538 c 0
 672.866 514.865 686.923 482.819 686.923 443.109 c 0
 686.923 429.609 685.298 415.223 682 400 c 2
 535 -290 l 1
 464 -290 l 1
 407 -195 l 1
 302 -292 l 1
 297 -278 290 -262 281 -248 c 0
 273 -232 265 -220 258 -212 c 1
 249 -225 232 -243 208 -262 c 0
 184 -284 156 -292 122 -292 c 0
 94 -292 72 -284 60 -262 c 0
 49.9565 -250.701 45.4294 -235.462 45.4294 -216.777 c 0
 45.4294 -205.696 47.0217 -193.402 50 -180 c 1
 60 -152 75 -129 96 -114 c 0
 119 -99 142 -92 172 -92 c 0
 204 -92 230 -102 256 -120 c 1
 262 -110 270 -93 282 -69 c 0
 293 -48 304 -24 310 0 c 1
 367 -14 l 1
 362 -32 351 -57 335 -90 c 0
 320 -122 307 -146 296 -159 c 1
 298 -159 309 -172 327 -201 c 1
 420 -123 l 1
 482 -206 l 1
 611 400 l 2
 613.25 409.75 614.375 418.797 614.375 427.299 c 0
 614.375 441.469 611.25 454.125 605 466 c 0
 595 484 578 500 556 510 c 0
 537 520 511 525 481 525 c 0
 421 525 364 507 312 470 c 1
 321 468 336 460 358 452 c 0
 380 441 400 426 414 406 c 1
 400 404 380 393 353 376 c 0
 326 360 307 330 299 290 c 2
 257 92 l 2
 250 63 238 39 214 21 c 0
 192 0 163 -10 130 -10 c 0
 98 -10 76 0 61 21 c 0
 51.4396 34.9729 45.665 52.7316 45.665 72.2876 c 0
 45.665 79.3233 46.4125 86.5916 48 94 c 0
 54 123 69 147 92 168 c 0
 115 188 142 198 174 198 c 0
 189 198 200 196 207 192 c 1
167 -230 m 0
 179 -220 192 -208 202 -196 c 0
 213 -184 221 -174 224 -170 c 1
 205 -154 188 -147 165 -147 c 0
 140 -147 120 -158 110 -178 c 1
 108.244 -186.343 107.355 -193.818 107.355 -200.415 c 0
 107.355 -223.866 118.586 -236.22 142 -237 c 0
 150 -237 158 -234 167 -230 c 0
141 42 m 0
 157 42 172 48 184 57 c 0
 196 68 203 80 206 94 c 0
 207 98.6667 207.556 103.111 207.556 107.333 c 0
 207.556 115.778 205.333 123.333 200 130 c 0
 192 141 179 146 163 146 c 0
 148 146 134 141 122 130 c 0
 109 118 103 106 100 94 c 0
 99.1255 90.2105 98.6758 86.5059 98.6758 82.9359 c 0
 98.6758 74.2589 101.332 66.3765 107 60 c 0
 114 48 126 42 141 42 c 0
EndSplineSet
EndChar
StartChar: uni0E10
Encoding: 176 3600 146
OldEncoding: 3600
Width: 546
Flags: W
HStem: -218 41<330 350> -198 45<65 81> -94 42<353 367> 0 21G<375 459> 146 50<242 258> 302 52<269 289> 478 62<567 585> 530 56<369 393>
DStem: 447 279 519 284 418 141 459 0
Fore
287 354 m 0
 309 354 329 348 345 336 c 0
 361 324 374 308 379 286 c 2
 418 141 l 1
 447 279 l 2
 451.177 298.956 453.415 315.897 453.415 329.823 c 0
 453.415 345.902 450.431 357.962 444 366 c 0
 433 381 411 394 376 406 c 0
 338 418 299 428 258 434 c 0
 217 442 188 447 165 448 c 1
 197 488 233 520 270 548 c 0
 308 573 349 586 389 586 c 0
 411 586 432 585 446 582 c 0
 461 576 479 572 499 562 c 0
 520 555 535 549 546 546 c 0
 557 543 571 540 583 540 c 0
 603 540 624 546 644 555 c 1
 645 495 l 1
 615 483 588 478 567 478 c 0
 550 478 537 480 526 483 c 0
 515 486 499 494 475 501 c 0
 454 510 437 518 423 522 c 0
 409 526 395 530 379 530 c 0
 362 530 343 524 323 516 c 0
 303 506 291 496 289 492 c 1
 296 490 308 488 322 483 c 0
 336 478 355 472 378 466 c 0
 402 460 421 456 432 453 c 0
 484 440 515 420 524 396 c 0
 527.617 385.55 529.296 373.485 529.296 359.544 c 0
 529.296 338.8 525.579 313.904 519 284 c 2
 459 0 l 1
 375 0 l 1
 375.295 5.31074 375.438 10.578 375.438 15.8273 c 0
 375.438 46.162 370.672 75.9008 363 110 c 0
 355 148 348 178 342 196 c 1
 335 182 320 170 300 159 c 0
 282 152 263 146 243 146 c 0
 211 146 187 156 173 177 c 0
 163.2 191.7 158.3 207.87 158.3 225.51 c 0
 158.3 233.07 159.2 240.9 161 249 c 0
 167 278 181 303 204 324 c 0
 227 344 255 354 287 354 c 0
337 -250 m 2
 339 -249 341 -243 344 -234 c 0
 348 -225 349 -220 350 -216 c 1
 348 -216 347 -216 344 -216 c 0
 342 -216 336 -216 332 -218 c 0
 306 -218 288 -208 275 -194 c 0
 267.746 -183.449 264.406 -171.594 264.406 -158.721 c 0
 264.406 -152.072 265.297 -145.152 267 -138 c 0
 271 -116 283 -96 301 -78 c 0
 321 -62 341 -52 367 -52 c 0
 393 -52 409 -60 422 -75 c 0
 429.693 -84.6165 433.276 -96.2881 433.276 -110.805 c 0
 433.276 -118.932 432.153 -127.951 430 -138 c 2
 409 -237 l 2
 406 -249 403 -260 397 -266 c 0
 390 -273 385 -278 375 -284 c 0
 367 -288 355 -296 346 -300 c 2
 292 -328 l 1
 236 -286 l 1
 161 -326 l 1
 139 -264 l 1
 115.581 -297.723 83.3875 -318.283 44.0627 -318.283 c 0
 41.4075 -318.283 38.7198 -318.19 36 -318 c 0
 -5.95227 -316.386 -29.0289 -296.548 -29.0289 -260.06 c 0
 -29.0289 -251.321 -27.7052 -241.627 -25 -231 c 0
 -20 -208 -6 -190 14 -174 c 0
 34 -159 55 -153 79 -153 c 0
 101 -153 120 -159 140 -172 c 1
 143 -166 149 -154 157 -135 c 0
 165 -117 172 -92 179 -60 c 1
 231 -60 l 1
 219 -117 200 -168 173 -213 c 1
 190 -255 l 1
 190 -255 197 -250 212 -244 c 0
 226 -236 239 -231 249 -225 c 1
 307 -268 l 1
 337 -250 l 2
340 -177 m 0
 352 -177 363 -172 373 -165 c 0
 383 -156 387 -147 389 -135 c 0
 390.077 -130.693 390.638 -127.03 390.638 -123.642 c 0
 390.638 -117.589 388.847 -112.411 385 -106 c 0
 379 -99 370 -94 358 -94 c 0
 344 -94 333 -99 327 -106 c 1
 315 -116 312 -123 309 -135 c 0
 308.333 -138.667 307.889 -142.222 307.889 -145.667 c 0
 307.889 -152.556 309.667 -159 315 -165 c 1
 317 -172 326 -177 340 -177 c 0
254 196 m 0
 272 196 286 201 295 212 c 0
 308 224 314 236 317 249 c 0
 318 254 318.556 258.667 318.556 263.037 c 0
 318.556 271.778 316.333 279.333 311 286 c 0
 306 297 294 302 276 302 c 0
 260 302 246 297 235 286 c 0
 224 276 215 264 212 249 c 0
 211.299 245.96 210.98 242.976 210.98 240.045 c 0
 210.98 230.443 214.403 221.428 219 213 c 0
 226 201 238 196 254 196 c 0
68 -198 m 0
 54 -198 44 -201 35 -210 c 0
 27 -219 21 -226 19 -237 c 0
 18.5726 -238.923 18.3735 -240.847 18.3735 -242.741 c 0
 18.3735 -249.71 21.0685 -256.282 25 -261 c 0
 30 -270 38 -273 52 -273 c 0
 62 -273 72 -270 82 -262 c 0
 92 -256 99 -249 105 -240 c 0
 110 -232 112 -226 114 -225 c 1
 112 -220 107 -216 100 -208 c 0
 92 -201 81 -198 68 -198 c 0
EndSplineSet
EndChar
StartChar: uni0E11
Encoding: 177 3601 147
OldEncoding: 3601
Width: 798
Flags: W
HStem: 0 21G<290 362 639 710> 258 52<185 200> 416 49<216 231> 512 64<706 724>
DStem: 369 370 440 368 290 0 421 276 734 446 805 446 639 0 710 0
Fore
290 0 m 1
 369 370 l 2
 373 392 377 406 386 418 c 0
 393 429 402 438 409 444 c 0
 416 448 427 456 441 465 c 0
 450 470 453 474 455 483 c 0
 455.46 485.071 455.709 487.301 455.709 489.654 c 0
 455.709 497.523 452.929 506.762 446 516 c 0
 436 525 427 532 417 534 c 1
 337 486 l 1
 267 534 l 1
 242 530 220 516 204 496 c 0
 186 478 176 460 173 446 c 1
 175 448 183 453 191 458 c 0
 202 462 215 465 231 465 c 0
 258 462 283 454 301 440 c 0
 311.513 427.384 317.114 410.839 317.114 390.363 c 0
 317.114 381.625 316.094 372.17 314 362 c 0
 307 328 289 303 265 285 c 0
 239 266 211 258 185 258 c 0
 151 258 124 272 107 297 c 0
 95.8846 314.654 90.3269 334.873 90.3269 358.775 c 0
 90.3269 371.429 91.8846 385.115 95 400 c 0
 101 426 110 452 122 472 c 1
 138 507 165 534 199 556 c 0
 232 576 263 586 284 586 c 1
 349 540 l 1
 425 586 l 1
 451 578 474 564 494 546 c 0
 509.869 530.131 517.554 513.003 517.554 493.617 c 0
 517.554 488.57 517.033 483.37 516 478 c 0
 513 466 509 456 501 448 c 0
 496 442 488 435 479 428 c 0
 469 420 462 412 454 404 c 0
 447 394 443 382 440 368 c 2
 421 276 l 1
 432 298 453 332 484 378 c 0
 513 423 553 468 596 510 c 0
 642 555 682 576 724 576 c 0
 760 576 783 562 796 537 c 0
 805.261 521.565 809.185 504.224 809.185 484.742 c 0
 809.185 472.669 807.678 459.774 805 446 c 2
 710 0 l 1
 639 0 l 1
 734 446 l 2
 736.312 457.305 737.503 467.158 737.503 475.559 c 0
 737.503 499.853 727.549 512 706 512 c 0
 687 512 660 495 628 459 c 0
 594 423 558 380 521 326 c 0
 480 270 447 213 420 156 c 0
 390 99 372 46 362 0 c 1
 290 0 l 1
218 416 m 0
 204 416 189 410 178 400 c 0
 165 390 158 378 155 363 c 0
 154.148 359.31 153.7 355.7 153.7 352.17 c 0
 153.7 343.267 156.555 334.877 163 327 c 0
 169 315 182 310 196 310 c 0
 213 310 227 315 239 326 c 0
 250 338 257 350 260 363 c 0
 260.929 367.644 261.378 372 261.378 376.098 c 0
 261.378 385.238 259.142 393.096 255 400 c 0
 247 410 235 416 218 416 c 0
EndSplineSet
EndChar
StartChar: uni0E12
Encoding: 178 3602 148
OldEncoding: 3602
Width: 850
Flags: W
HStem: -10 64<461 466> 0 21G<138 208 693 762> 387 53<369 384>
DStem: 496 162 567 154 476 68 548 64 525 586 508 526 414 520 402 466 543 381 615 381 507 212 579 210 815 576 884 576 715 104 762 0
Fore
507 212 m 1
 543 381 l 2
 549.4 412.2 552.6 436.36 552.6 456.04 c 0
 552.6 460.96 552.4 465.6 552 470 c 0
 546 490 531 508 508 526 c 1
 402 466 l 1
 402 468 392 474 374 490 c 0
 356 506 336 518 324 526 c 1
 244 490 197 438 182 368 c 0
 178.771 353.146 177.106 337.458 177.106 321.004 c 0
 177.106 286.5 184.427 248.626 200 208 c 0
 212.25 174.75 218.375 149.156 218.375 135.238 c 0
 218.375 133.25 218.25 131.5 218 130 c 1
 234 156 254 178 272 196 c 0
 289 216 300 226 311 234 c 1
 288 240 273 255 264 273 c 0
 256.857 285.857 253.286 301.265 253.286 317.038 c 0
 253.286 323.347 253.857 329.714 255 336 c 0
 261 364 276 388 299 408 c 0
 322 429 352 440 384 440 c 0
 416 440 439 429 452 406 c 0
 462.667 392.667 467.111 377.556 467.111 360.074 c 0
 467.111 351.333 466 342 464 332 c 0
 460 315 454 302 448 290 c 0
 439 278 427 266 418 258 c 0
 407 249 395 238 382 226 c 0
 355 201 330 178 311 156 c 0
 290 134 271 110 254 84 c 0
 237 60 219 30 208 0 c 1
 138 0 l 1
 149 14 154 28 158 46 c 0
 159.309 53.4204 160.047 62.3649 160.047 73 c 0
 160.047 86.7298 158.818 103.277 156 123 c 0
 156.073 123.871 156.108 124.799 156.108 125.786 c 0
 156.108 138.396 150.274 160.467 141 192 c 0
 129 225 120 256 117 285 c 0
 115.278 297.485 114.297 310.154 114.297 323.249 c 0
 114.297 340.571 116.014 358.637 120 378 c 0
 133 426 159 466 196 501 c 0
 234 537 279 566 331 586 c 1
 414 520 l 1
 525 586 l 1
 561 568 585 549 599 531 c 0
 615 512 623 492 624 470 c 0
 624.4 465.4 624.6 460.52 624.6 455.368 c 0
 624.6 434.76 621.4 409.8 615 381 c 2
 579 210 l 1
 604 206 629 194 658 174 c 0
 685 154 704 130 715 104 c 1
 815 576 l 1
 884 576 l 1
 762 0 l 1
 693 0 l 1
 671 81 630 132 567 154 c 1
 548 64 l 2
 537 15 510 -10 464 -10 c 0
 436 -10 416 2 405 24 c 0
 396.909 37.6919 393.467 53.7079 393.467 71.3247 c 0
 393.467 82.0142 394.734 93.2932 397 105 c 0
 403 134 416 159 437 180 c 0
 457 200 480 210 507 212 c 1
372 387 m 0
 356 387 342 381 329 370 c 0
 320 360 311 348 308 334 c 0
 307.268 330.827 306.953 327.714 306.953 324.66 c 0
 306.953 315.202 309.976 306.315 313 298 c 0
 322 286 334 282 350 282 c 0
 368 282 382 286 391 297 c 0
 403 308 410 318 413 334 c 0
 414 339.333 414.556 344.222 414.556 348.667 c 0
 414.556 357.556 412.333 364.667 407 370 c 0
 402 381 390 387 372 387 c 0
476 68 m 1
 496 162 l 1
 472 158 452 138 444 99 c 0
 443.088 95.3537 442.731 91.7997 442.731 88.3942 c 0
 442.731 80.5921 444.608 73.5691 446 68 c 0
 453 60 457 54 463 54 c 0
 467 54 473 60 476 68 c 1
EndSplineSet
EndChar
StartChar: uni0E13
Encoding: 179 3603 149
OldEncoding: 3603
Width: 829
Flags: W
HStem: -32 20G<693.5 717.5> -10 52<198 216> 0 21G<417 488> 146 52<228 243> 534 52<382 420>
DStem: 158 300 230 303 114 94 207 192 507 423 578 423 417 0 514 123 676 186 747 195 647 52 720 64 758 576 828 576 688 244 759 249
Fore
114 94 m 2
 158 300 l 2
 172 366 204 406 256 423 c 1
 249 430 235 441 214 453 c 0
 195 465 168 472 138 482 c 1
 156 500 187 522 232 548 c 0
 276 573 333 586 401 586 c 0
 522.226 586 582.838 546.084 582.838 465.617 c 0
 582.838 452.491 581.226 438.287 578 423 c 2
 514 123 l 1
 565 184 624 225 688 244 c 1
 758 576 l 1
 828 576 l 1
 759 249 l 1
 793 244 817 232 833 210 c 0
 842.196 195.549 847.077 176.784 847.077 154.554 c 0
 847.077 142.941 845.745 130.383 843 117 c 0
 834 75 815 44 788 22 c 0
 760 0 732 -12 703 -12 c 0
 684 -12 667 -8 657 4 c 0
 648.633 12.3667 645.128 22.6779 645.128 34.9335 c 0
 645.128 40.2557 645.789 45.9445 647 52 c 2
 676 186 l 1
 632 171 591 142 558 102 c 0
 521 62 500 27 488 0 c 1
 417 0 l 1
 507 423 l 2
 509.286 433.286 510.429 443 510.429 452.073 c 0
 510.429 474.755 503.286 493.429 489 507 c 0
 469 525 440 534 400 534 c 0
 351 534 297 520 243 492 c 1
 252 488 268 480 291 468 c 0
 315 456 332 441 350 420 c 1
 341 420 332 418 318 414 c 0
 303 408 286 399 267 381 c 0
 249 363 238 338 230 303 c 2
 207 192 l 1
 213 196 225 198 243 198 c 0
 276 198 298 188 312 168 c 0
 319.787 153.135 324.567 136.766 324.567 118.184 c 0
 324.567 110.516 323.753 102.472 322 94 c 0
 316 66 301 42 281 22 c 0
 258 0 232 -10 199 -10 c 0
 169 -10 146 0 130 18 c 0
 117.676 32.499 111.133 49.6258 111.133 69.7613 c 0
 111.133 77.4008 112.075 85.4734 114 94 c 2
720 64 m 2
 719.4 61.6 719.12 59.44 719.12 57.52 c 0
 719.12 49.84 723.6 46 730 46 c 0
 740 46 752 52 762 66 c 0
 776 78 785 94 790 117 c 0
 791.808 126.039 792.728 134.393 792.728 142.012 c 0
 792.728 172.321 778.166 191.004 747 195 c 1
 720 64 l 2
209 42 m 0
 227 42 241 48 250 57 c 0
 262 68 269 80 272 94 c 0
 273 98.6667 273.556 103.111 273.556 107.333 c 0
 273.556 115.778 271.333 123.333 266 130 c 0
 260 141 247 146 231 146 c 0
 215 146 201 141 190 130 c 0
 179 120 170 108 167 94 c 0
 166.174 90.1464 165.803 86.4444 165.803 82.873 c 0
 165.803 73.4696 168.376 64.9722 172 57 c 0
 181 48 193 42 209 42 c 0
EndSplineSet
EndChar
StartChar: uni0E14
Encoding: 180 3604 150
OldEncoding: 3604
Width: 621
Flags: W
HStem: 0 21G<138 208 462 534> 387 53<370 384> 537 53<402 436>
DStem: 544 386 615 381 462 0 534 0
Fore
185 375 m 0
 180.923 357.673 178.924 340 178.924 321.941 c 0
 178.924 286.846 186.474 250.295 201 212 c 0
 210.513 188.216 214.486 166.741 214.486 147.889 c 0
 214.486 138.999 213.602 130.691 212 123 c 1
 232 152 250 174 271 194 c 0
 288 212 300 225 311 234 c 1
 288 240 273 255 264 273 c 0
 256.857 285.857 253.286 301.265 253.286 317.038 c 0
 253.286 323.347 253.857 329.714 255 336 c 0
 261 364 276 388 299 408 c 0
 322 429 352 440 384 440 c 0
 416 440 439 429 452 406 c 0
 462.667 392.667 467.111 377.556 467.111 360.074 c 0
 467.111 351.333 466 342 464 332 c 0
 460 315 454 302 448 290 c 0
 439 278 427 266 418 258 c 0
 407 249 395 238 382 226 c 0
 355 201 330 178 311 156 c 0
 290 134 271 110 254 84 c 0
 237 60 219 30 208 0 c 1
 138 0 l 1
 149 14 154 28 158 46 c 0
 159.309 53.4204 160.047 62.3649 160.047 73 c 0
 160.047 86.7298 158.818 103.277 156 123 c 0
 155 138 150 160 140 194 c 0
 128 226 121 258 118 286 c 0
 116.714 298.429 115.796 311.224 115.796 324.309 c 0
 115.796 341.755 117.429 359.714 122 378 c 0
 136 435 172 486 227 530 c 0
 277 570 345 590 428 590 c 0
 557.751 590 622.333 540.948 622.333 443.432 c 0
 622.333 424.455 619.887 403.643 615 381 c 2
 534 0 l 1
 462 0 l 1
 544 386 l 2
 547.739 404.281 549.752 421.181 549.752 436.772 c 0
 549.752 458.706 545.768 478.049 537 495 c 0
 523 524 483 537 417 537 c 0
 362 537 311 522 267 492 c 0
 224 460 195 422 185 375 c 0
372 387 m 0
 356 387 342 381 329 370 c 0
 320 360 311 348 308 334 c 0
 307.268 330.827 306.953 327.714 306.953 324.66 c 0
 306.953 315.202 309.976 306.315 313 298 c 0
 322 286 334 282 350 282 c 0
 368 282 382 286 391 297 c 0
 403 308 410 318 413 334 c 0
 414 339.333 414.556 344.222 414.556 348.667 c 0
 414.556 357.556 412.333 364.667 407 370 c 0
 402 381 390 387 372 387 c 0
EndSplineSet
EndChar
StartChar: uni0E15
Encoding: 181 3605 151
OldEncoding: 3605
Width: 621
Flags: W
HStem: 0 21G<138 208 462 534> 387 53<369 384>
DStem: 525 586 508 526 414 520 402 466 543 381 615 381 462 0 534 0
Fore
218 130 m 1
 234 156 254 178 272 196 c 0
 289 216 300 226 311 234 c 1
 288 240 273 255 264 273 c 0
 256.857 285.857 253.286 301.265 253.286 317.038 c 0
 253.286 323.347 253.857 329.714 255 336 c 0
 261 364 276 388 299 408 c 0
 322 429 352 440 384 440 c 0
 416 440 439 429 452 406 c 0
 462.667 392.667 467.111 377.556 467.111 360.074 c 0
 467.111 351.333 466 342 464 332 c 0
 460 315 454 302 448 290 c 0
 439 278 427 266 418 258 c 0
 407 249 395 238 382 226 c 0
 355 201 330 178 311 156 c 0
 290 134 271 110 254 84 c 0
 237 60 219 30 208 0 c 1
 138 0 l 1
 149 14 154 28 158 46 c 0
 159.309 53.4204 160.047 62.3649 160.047 73 c 0
 160.047 86.7298 158.818 103.277 156 123 c 0
 156.073 123.871 156.108 124.799 156.108 125.786 c 0
 156.108 138.396 150.274 160.467 141 192 c 0
 129 225 120 256 117 285 c 0
 115.278 297.485 114.297 310.154 114.297 323.249 c 0
 114.297 340.571 116.014 358.637 120 378 c 0
 133 426 159 466 196 501 c 0
 234 537 279 566 331 586 c 1
 414 520 l 1
 525 586 l 1
 561 568 585 549 599 531 c 0
 615 512 623 492 624 470 c 0
 624.4 465.4 624.6 460.52 624.6 455.368 c 0
 624.6 434.76 621.4 409.8 615 381 c 2
 534 0 l 1
 462 0 l 1
 543 381 l 2
 549.4 412.2 552.6 436.36 552.6 456.04 c 0
 552.6 460.96 552.4 465.6 552 470 c 0
 546 490 531 508 508 526 c 1
 402 466 l 1
 402 468 392 474 374 490 c 0
 356 506 336 518 324 526 c 1
 244 490 197 438 182 368 c 0
 178.771 353.146 177.106 337.458 177.106 321.004 c 0
 177.106 286.5 184.427 248.626 200 208 c 0
 212.25 174.75 218.375 149.156 218.375 135.238 c 0
 218.375 133.25 218.25 131.5 218 130 c 1
372 387 m 0
 356 387 342 381 329 370 c 0
 320 360 311 348 308 334 c 0
 307.268 330.827 306.953 327.714 306.953 324.66 c 0
 306.953 315.202 309.976 306.315 313 298 c 0
 322 286 334 282 350 282 c 0
 368 282 382 286 391 297 c 0
 403 308 410 318 413 334 c 0
 414 339.333 414.556 344.222 414.556 348.667 c 0
 414.556 357.556 412.333 364.667 407 370 c 0
 402 381 390 387 372 387 c 0
EndSplineSet
EndChar
StartChar: uni0E16
Encoding: 182 3606 152
OldEncoding: 3606
Width: 615
Flags: W
HStem: -10 52<198 211> 0 21G<456 526> 146 52<226 243> 525 61<398 432>
DStem: 155 286 228 290 114 94 207 192 541 400 611 400 456 0 526 0
Fore
114 94 m 2
 155 286 l 2
 162 321 176 346 191 364 c 0
 209 381 228 394 248 404 c 1
 241 410 230 418 209 430 c 0
 190 442 164 452 132 453 c 1
 152 474 188 504 240 537 c 0
 291 570 351 586 422 586 c 0
 464 586 501 579 534 566 c 0
 565 552 590 532 603 504 c 0
 612.467 486.25 616.682 467.099 616.682 446.133 c 0
 616.682 431.665 614.675 416.333 611 400 c 2
 526 0 l 1
 456 0 l 1
 541 400 l 2
 542.923 408.334 543.819 416.155 543.819 423.56 c 0
 543.819 439.258 539.794 453.09 533 466 c 0
 523 484 508 500 486 510 c 0
 465 520 439 525 410 525 c 0
 349 525 292 507 241 470 c 1
 251 468 266 460 288 452 c 0
 310 441 328 426 344 406 c 1
 329 404 308 393 281 376 c 0
 255 360 236 330 228 290 c 2
 207 192 l 1
 213 196 225 198 243 198 c 0
 276 198 298 188 312 168 c 0
 319.787 153.135 324.567 136.766 324.567 118.184 c 0
 324.567 110.516 323.753 102.472 322 94 c 0
 316 66 301 42 281 22 c 0
 258 0 232 -10 199 -10 c 0
 169 -10 146 0 130 18 c 0
 117.676 32.499 111.133 49.6258 111.133 69.7613 c 0
 111.133 77.4008 112.075 85.4734 114 94 c 2
209 42 m 0
 227 42 241 48 250 57 c 0
 262 68 269 80 272 94 c 0
 273 98.6667 273.556 103.111 273.556 107.333 c 0
 273.556 115.778 271.333 123.333 266 130 c 0
 260 141 247 146 231 146 c 0
 215 146 201 141 190 130 c 0
 179 120 170 108 167 94 c 0
 166.174 90.1464 165.803 86.4444 165.803 82.873 c 0
 165.803 73.4696 168.376 64.9722 172 57 c 0
 181 48 193 42 209 42 c 0
EndSplineSet
EndChar
StartChar: uni0E17
Encoding: 183 3607 153
OldEncoding: 3607
Width: 682
Flags: W
HStem: 0 21G<172 244 522 594> 375 51<219 234> 512 64<590 606> 531 53<251 265>
DStem: 253 380 346 478 172 0 303 276 617 446 689 446 522 0 594 0
Fore
172 0 m 1
 253 380 l 1
 245 376 234 375 221 375 c 0
 188 375 164 386 150 406 c 0
 140.688 421.759 135.481 438.543 135.481 457.089 c 0
 135.481 464.435 136.298 472.056 138 480 c 0
 144 508 159 532 181 552 c 0
 204 573 232 584 265 584 c 0
 286 584 303 578 316 570 c 0
 329 561 340 548 345 532 c 0
 347.639 524.61 348.885 515.548 348.885 505.697 c 0
 348.885 496.885 347.889 487.443 346 478 c 2
 303 276 l 1
 318 298 338 327 361 362 c 0
 382 396 406 430 437 465 c 0
 465 496 492 524 522 546 c 0
 550 566 578 576 606 576 c 0
 632 576 652 570 665 558 c 0
 677 544 685 526 690 508 c 0
 691.754 500.108 692.546 491.447 692.546 482.354 c 0
 692.546 470.708 691.246 458.354 689 446 c 2
 594 0 l 1
 522 0 l 1
 617 446 l 2
 619.266 457.077 620.391 466.76 620.391 475.049 c 0
 620.391 499.683 610.454 512 591 512 c 0
 571 512 546 495 512 459 c 0
 477 423 441 380 403 326 c 0
 365 270 330 213 303 156 c 0
 273 99 254 46 244 0 c 1
 172 0 l 1
254 531 m 0
 236 531 222 525 212 516 c 0
 201 506 193 494 190 478 c 0
 189.1 474.1 188.65 470.29 188.65 466.57 c 0
 188.65 457.89 191.1 449.7 196 442 c 0
 201 430 214 426 232 426 c 0
 249 426 262 430 274 442 c 0
 284 453 293 465 296 478 c 0
 296.804 482.287 297.177 486.287 297.177 490.038 c 0
 297.177 500.287 294.392 508.68 290 516 c 0
 283 525 271 531 254 531 c 0
EndSplineSet
EndChar
StartChar: uni0E18
Encoding: 184 3608 154
OldEncoding: 3608
Width: 550
Flags: W
HStem: 0 62<90 357> 438 21G<176 208> 482 56<544 559> 534 52<333 357>
DStem: 226 368 297 368 161 62 232 62 441 284 513 282 404 110 476 110
Fore
241 484 m 1
 269 483 309 477 365 465 c 0
 418 453 461 429 494 396 c 0
 510 382 519 368 521 351 c 0
 521.354 347.989 521.52 344.758 521.52 341.324 c 0
 521.52 325.373 517.937 305.041 513 282 c 2
 476 110 l 2
 467 64 451 34 433 21 c 0
 414 8 378 0 328 0 c 2
 78 0 l 1
 91 62 l 1
 161 62 l 1
 226 368 l 1
 297 368 l 1
 232 62 l 1
 341 62 l 2
 364 62 380 64 389 70 c 0
 394 76 400 90 404 110 c 2
 441 284 l 2
 444.474 300.502 447.194 316.249 447.194 327.312 c 0
 447.194 328.986 447.132 330.554 447 332 c 0
 444 346 438 357 424 369 c 0
 401 392 369 408 325 420 c 0
 280 432 233 438 183 438 c 0
 169 438 149 435 128 434 c 1
 142 459 169 492 207 531 c 0
 247 568 295 586 355 586 c 0
 391 586 431 578 470 562 c 0
 510 548 537 538 554 538 c 0
 573 538 596 544 616 555 c 1
 632 506 l 1
 600 490 572 482 546 482 c 0
 531 482 513 484 493 492 c 0
 472 498 456 507 439 512 c 0
 424 518 408 522 394 526 c 0
 377 532 362 534 344 534 c 0
 314 534 290 526 275 516 c 0
 255 504 246 494 241 484 c 1
EndSplineSet
EndChar
StartChar: uni0E19
Encoding: 185 3609 155
OldEncoding: 3609
Width: 667
Flags: W
HStem: -12 58<541 570> 0 21G<172 244> 375 53<219 234> 531 53<251 265>
DStem: 253 380 346 478 172 0 267 110 513 195 585 195 483 52 558 64 594 576 666 576 525 250 597 249
Fore
172 0 m 1
 253 380 l 1
 245 376 234 375 221 375 c 0
 188 375 164 386 150 406 c 0
 140.688 421.759 135.481 438.543 135.481 457.089 c 0
 135.481 464.435 136.298 472.056 138 480 c 0
 144 508 159 532 181 552 c 0
 204 573 232 584 265 584 c 0
 286 584 303 578 316 570 c 0
 329 561 340 548 345 532 c 0
 347.639 524.61 348.885 515.548 348.885 505.697 c 0
 348.885 496.885 347.889 487.443 346 478 c 2
 267 110 l 1
 340 186 426 234 525 250 c 1
 594 576 l 1
 666 576 l 1
 597 249 l 1
 631 244 657 232 671 210 c 0
 679.231 196.071 683.854 178.935 683.854 157.83 c 0
 683.854 145.602 682.302 132.041 679 117 c 0
 670 75 653 44 627 22 c 0
 600 0 570 -12 541 -12 c 0
 521 -12 505 -8 495 4 c 0
 486 13 481.5 24.25 481.5 37.75 c 0
 481.5 42.25 482 47 483 52 c 2
 513 195 l 1
 472 188 430 171 394 146 c 0
 356 120 324 93 300 68 c 0
 277 42 256 18 244 0 c 1
 172 0 l 1
254 531 m 0
 239 531 224 525 214 516 c 0
 201 506 193 494 190 480 c 0
 189.1 475.5 188.65 471.27 188.65 467.256 c 0
 188.65 457.89 191.1 449.7 196 442 c 0
 202 432 214 428 232 428 c 0
 249 428 263 432 274 442 c 0
 285 454 293 466 296 480 c 0
 296.766 483.576 297.141 487.022 297.141 490.337 c 0
 297.141 500 293.957 508.554 288 516 c 0
 282 525 269 531 254 531 c 0
558 64 m 2
 557.357 61.4286 557.036 59.1327 557.036 57.1122 c 0
 557.036 49.7041 561.357 46 570 46 c 0
 578 46 589 52 602 66 c 0
 614 80 622 96 627 117 c 0
 628.873 126.364 629.836 134.993 629.836 142.831 c 0
 629.836 172.658 615.884 191.04 585 195 c 1
 558 64 l 2
EndSplineSet
EndChar
StartChar: uni0E1A
Encoding: 186 3610 156
OldEncoding: 3610
Width: 663
Flags: W
HStem: 0 62<116 473> 375 51<219 234> 531 53<251 265>
DStem: 253 380 346 478 185 62 257 62 628 576 698 576 529 110 599 110
Fore
185 62 m 1
 253 380 l 1
 245 376 234 375 221 375 c 0
 188 375 164 386 150 406 c 0
 140.688 421.759 135.481 438.543 135.481 457.089 c 0
 135.481 464.435 136.298 472.056 138 480 c 0
 144 508 159 532 181 552 c 0
 204 573 232 584 265 584 c 0
 286 584 303 578 316 570 c 0
 329 561 340 548 345 532 c 0
 347.639 524.61 348.885 515.548 348.885 505.697 c 0
 348.885 496.885 347.889 487.443 346 478 c 2
 257 62 l 1
 466 62 l 2
 487 62 504 64 510 70 c 1
 517 76 525 90 529 110 c 2
 628 576 l 1
 698 576 l 1
 599 110 l 2
 590 64 575 34 556 21 c 0
 539 8 504 0 453 0 c 2
 104 0 l 1
 117 62 l 1
 185 62 l 1
254 531 m 0
 236 531 222 525 212 516 c 0
 201 506 193 494 190 478 c 0
 189.1 474.1 188.65 470.29 188.65 466.57 c 0
 188.65 457.89 191.1 449.7 196 442 c 0
 201 430 214 426 232 426 c 0
 249 426 262 430 274 442 c 0
 284 453 293 465 296 478 c 0
 296.804 482.287 297.177 486.287 297.177 490.038 c 0
 297.177 500.287 294.392 508.68 290 516 c 0
 283 525 271 531 254 531 c 0
EndSplineSet
EndChar
StartChar: uni0E1B
Encoding: 187 3611 157
OldEncoding: 3611
Width: 663
Flags: W
HStem: 0 62<116 473> 375 53<219 234> 531 53<251 265>
DStem: 253 380 346 478 185 62 257 62 673 784 743 784 529 110 599 110
Fore
185 62 m 1
 253 380 l 1
 245 376 234 375 221 375 c 0
 188 375 164 386 150 406 c 0
 140.688 421.759 135.481 438.543 135.481 457.089 c 0
 135.481 464.435 136.298 472.056 138 480 c 0
 144 508 159 532 181 552 c 0
 204 573 232 584 265 584 c 0
 286 584 303 578 316 570 c 0
 329 561 340 548 345 532 c 0
 347.639 524.61 348.885 515.548 348.885 505.697 c 0
 348.885 496.885 347.889 487.443 346 478 c 2
 257 62 l 1
 466 62 l 2
 487 62 504 64 510 70 c 1
 517 76 525 90 529 110 c 2
 673 784 l 1
 743 784 l 1
 599 110 l 2
 590 64 575 34 556 21 c 0
 539 8 504 0 453 0 c 2
 104 0 l 1
 117 62 l 1
 185 62 l 1
254 531 m 0
 239 531 224 525 214 516 c 0
 201 506 193 494 190 480 c 0
 189.1 475.5 188.65 471.27 188.65 467.256 c 0
 188.65 457.89 191.1 449.7 196 442 c 0
 202 432 214 428 232 428 c 0
 249 428 263 432 274 442 c 0
 285 454 293 466 296 480 c 0
 296.766 483.576 297.141 487.022 297.141 490.337 c 0
 297.141 500 293.957 508.554 288 516 c 0
 282 525 269 531 254 531 c 0
EndSplineSet
EndChar
StartChar: uni0E1C
Encoding: 188 3612 158
OldEncoding: 3612
Width: 634
Flags: W
HStem: 0 21G<88 159 477 548> 375 51<270 285> 531 53<303 316>
DStem: 190 478 240 381 88 0 190 148 370 244 386 322 464 105 508 148 386 322 370 244 190 148 217 105 599 576 670 576 508 148 548 0
Fore
240 381 m 1
 190 148 l 1
 386 322 l 1
 508 148 l 1
 599 576 l 1
 670 576 l 1
 548 0 l 1
 477 0 l 1
 480.411 15.6901 482.077 29.9841 482.077 43.0011 c 0
 482.077 68.147 475.86 88.5272 464 105 c 2
 370 244 l 1
 217 105 l 2
 188 80 168 44 159 0 c 1
 88 0 l 1
 190 478 l 2
 196 508 210 534 234 555 c 0
 256 573 283 584 316 584 c 0
 349 584 372 573 387 552 c 0
 396.8 538 401.7 522.04 401.7 504.12 c 0
 401.7 496.44 400.8 488.4 399 480 c 0
 393 452 379 426 356 405 c 0
 332 386 304 375 272 375 c 0
 262 375 251 376 240 381 c 1
283 426 m 0
 299 426 313 430 326 442 c 0
 337 454 345 466 348 478 c 0
 348.804 482.287 349.177 486.287 349.177 490.038 c 0
 349.177 500.287 346.392 508.68 342 516 c 0
 334 525 321 531 305 531 c 0
 290 531 274 525 263 516 c 0
 251 504 245 492 242 478 c 0
 241.071 474.285 240.622 470.57 240.622 466.855 c 0
 240.622 458.57 242.857 450.285 247 442 c 0
 253 430 268 426 283 426 c 0
EndSplineSet
EndChar
StartChar: uni0E1D
Encoding: 189 3613 159
OldEncoding: 3613
Width: 634
Flags: W
HStem: 0 21G<88 159 477 548> 375 53<270 285> 531 53<303 316>
DStem: 190 478 240 381 88 0 190 148 370 244 386 322 464 105 508 148 386 322 370 244 190 148 217 105 644 784 715 784 508 148 548 0
Fore
240 381 m 1
 190 148 l 1
 386 322 l 1
 508 148 l 1
 644 784 l 1
 715 784 l 1
 548 0 l 1
 477 0 l 1
 480.411 15.6901 482.077 29.9841 482.077 43.0011 c 0
 482.077 68.147 475.86 88.5272 464 105 c 2
 370 244 l 1
 217 105 l 2
 188 80 168 44 159 0 c 1
 88 0 l 1
 190 478 l 2
 196 508 210 534 234 555 c 0
 256 573 283 584 316 584 c 0
 349 584 372 573 387 552 c 0
 396.8 538 401.7 522.04 401.7 504.12 c 0
 401.7 496.44 400.8 488.4 399 480 c 0
 393 452 379 426 356 405 c 0
 332 386 304 375 272 375 c 0
 262 375 251 376 240 381 c 1
283 428 m 0
 299 428 314 432 326 444 c 0
 337 454 345 466 348 480 c 0
 348.701 482.806 349.02 485.611 349.02 488.417 c 0
 349.02 497.611 345.597 506.806 341 516 c 0
 332 525 320 531 305 531 c 0
 290 531 274 525 264 516 c 0
 251 504 245 492 242 480 c 0
 241.071 475.666 240.622 471.523 240.622 467.573 c 0
 240.622 458.762 242.857 450.904 247 444 c 0
 254 432 268 428 283 428 c 0
EndSplineSet
EndChar
StartChar: uni0E1E
Encoding: 190 3614 160
OldEncoding: 3614
Width: 735
Flags: W
HStem: 0 21G<172 244 586 657> 375 53<219 234> 531 53<251 265>
DStem: 253 380 346 478 172 0 284 186 510 440 538 576 588 70 625 184 538 576 510 440 284 186 273 70 708 576 779 576 625 184 657 0
Fore
172 0 m 1
 253 380 l 1
 245 376 234 375 221 375 c 0
 188 375 164 386 150 406 c 0
 140.688 421.759 135.481 438.543 135.481 457.089 c 0
 135.481 464.435 136.298 472.056 138 480 c 0
 144 508 159 532 181 552 c 0
 204 573 232 584 265 584 c 0
 286 584 303 578 316 570 c 0
 329 561 340 548 345 532 c 0
 347.639 524.61 348.885 515.548 348.885 505.697 c 0
 348.885 496.885 347.889 487.443 346 478 c 2
 284 186 l 1
 538 576 l 1
 625 184 l 1
 708 576 l 1
 779 576 l 1
 657 0 l 1
 586 0 l 1
 588 8 589 16 592 32 c 0
 592.451 35.6065 592.648 39.0097 592.648 42.2326 c 0
 592.648 53.3081 590.324 62.254 588 70 c 2
 510 440 l 1
 273 70 l 2
 265 60 259 46 255 32 c 0
 249 16 248 8 244 0 c 1
 172 0 l 1
254 531 m 0
 239 531 224 525 214 516 c 0
 201 506 193 494 190 480 c 0
 189.1 475.5 188.65 471.27 188.65 467.256 c 0
 188.65 457.89 191.1 449.7 196 442 c 0
 202 432 214 428 232 428 c 0
 249 428 263 432 274 442 c 0
 285 454 293 466 296 480 c 0
 296.766 483.576 297.141 487.022 297.141 490.337 c 0
 297.141 500 293.957 508.554 288 516 c 0
 282 525 269 531 254 531 c 0
EndSplineSet
EndChar
StartChar: uni0E1F
Encoding: 191 3615 161
OldEncoding: 3615
Width: 735
Flags: W
HStem: 0 21G<172 244 586 657> 375 51<219 234> 531 53<251 265>
DStem: 253 380 346 478 172 0 284 186 510 440 538 576 588 70 625 184 538 576 510 440 284 186 273 70 753 784 824 784 625 184 657 0
Fore
172 0 m 1
 253 380 l 1
 245 376 234 375 221 375 c 0
 188 375 164 386 150 406 c 0
 140.688 421.759 135.481 438.543 135.481 457.089 c 0
 135.481 464.435 136.298 472.056 138 480 c 0
 144 508 159 532 181 552 c 0
 204 573 232 584 265 584 c 0
 286 584 303 578 316 570 c 0
 329 561 340 548 345 532 c 0
 347.639 524.61 348.885 515.548 348.885 505.697 c 0
 348.885 496.885 347.889 487.443 346 478 c 2
 284 186 l 1
 538 576 l 1
 625 184 l 1
 753 784 l 1
 824 784 l 1
 657 0 l 1
 586 0 l 1
 588 8 589 16 592 32 c 0
 592.451 35.6065 592.648 39.0097 592.648 42.2326 c 0
 592.648 53.3081 590.324 62.254 588 70 c 2
 510 440 l 1
 273 70 l 2
 265 60 259 46 255 32 c 0
 249 16 248 8 244 0 c 1
 172 0 l 1
254 531 m 0
 236 531 222 525 212 516 c 0
 201 506 193 494 190 478 c 0
 189.1 474.1 188.65 470.29 188.65 466.57 c 0
 188.65 457.89 191.1 449.7 196 442 c 0
 201 430 214 426 232 426 c 0
 249 426 262 430 274 442 c 0
 284 453 293 465 296 478 c 0
 296.804 482.287 297.177 486.287 297.177 490.038 c 0
 297.177 500.287 294.392 508.68 290 516 c 0
 283 525 271 531 254 531 c 0
EndSplineSet
EndChar
StartChar: uni0E20
Encoding: 192 3616 162
OldEncoding: 3616
Width: 684
Flags: W
HStem: -10 52<130 143> 0 21G<526 597> 146 52<156 174> 525 61<476 495>
DStem: 227 286 299 290 207 192 257 92 611 400 682 400 526 0 597 0
Fore
207 192 m 1
 227 286 l 2
 232 309 240 328 251 346 c 0
 259 362 270 375 281 382 c 0
 293 392 307 399 320 404 c 1
 312 410 299 418 279 430 c 0
 260 442 234 452 201 453 c 1
 221 474 259 504 310 537 c 0
 364 570 423 586 493 586 c 0
 559 586 612 572 646 538 c 0
 672.866 514.865 686.923 482.819 686.923 443.109 c 0
 686.923 429.609 685.298 415.223 682 400 c 2
 597 0 l 1
 526 0 l 1
 611 400 l 2
 613.25 409.75 614.375 418.797 614.375 427.299 c 0
 614.375 441.469 611.25 454.125 605 466 c 0
 595 484 578 500 556 510 c 0
 537 520 511 525 481 525 c 0
 421 525 364 507 312 470 c 1
 321 468 336 460 358 452 c 0
 380 441 400 426 414 406 c 1
 400 404 380 393 353 376 c 0
 326 360 307 330 299 290 c 2
 257 92 l 2
 250 63 238 39 214 21 c 0
 192 0 163 -10 130 -10 c 0
 98 -10 76 0 61 21 c 0
 51.4396 34.9729 45.665 52.7316 45.665 72.2876 c 0
 45.665 79.3233 46.4125 86.5916 48 94 c 0
 54 123 69 147 92 168 c 0
 115 188 142 198 174 198 c 0
 189 198 200 196 207 192 c 1
141 42 m 0
 157 42 172 48 184 57 c 0
 196 68 203 80 206 94 c 0
 207 98.6667 207.556 103.111 207.556 107.333 c 0
 207.556 115.778 205.333 123.333 200 130 c 0
 192 141 179 146 163 146 c 0
 148 146 134 141 122 130 c 0
 109 118 103 106 100 94 c 0
 99.1255 90.2105 98.6758 86.5059 98.6758 82.9359 c 0
 98.6758 74.2589 101.332 66.3765 107 60 c 0
 114 48 126 42 141 42 c 0
EndSplineSet
EndChar
StartChar: uni0E21
Encoding: 193 3617 163
OldEncoding: 3617
Width: 660
Flags: W
HStem: -10 60<160 173> 0 21G<501 573> 198 52<224 239> 375 51<233 251> 531 53<265 278>
DStem: 228 198 299 195 203 78 277 88 267 380 360 478 239 250 311 250 623 576 695 576 527 120 573 0
Fore
239 250 m 1
 267 380 l 1
 258 376 248 375 234 375 c 0
 202 375 178 386 164 405 c 0
 154.96 419.603 150.272 436.623 150.272 455.052 c 0
 150.272 463.126 151.172 471.47 153 480 c 0
 159 508 173 532 195 552 c 0
 218 573 246 584 278 584 c 0
 298 584 317 578 329 570 c 0
 343 561 353 548 359 532 c 0
 362 525 363.25 516.5 363.25 507.25 c 0
 363.25 498 362 488 360 478 c 2
 311 250 l 1
 349 248 380 237 411 224 c 0
 440 208 467 194 485 174 c 0
 505 154 519 135 527 120 c 1
 623 576 l 1
 695 576 l 1
 573 0 l 1
 501 0 l 1
 502.148 5.05275 502.716 10.3165 502.716 15.767 c 0
 502.716 34.0484 496.325 54.4308 484 76 c 0
 468 105 444 132 411 154 c 0
 378 177 340 190 299 195 c 1
 277 88 l 2
 270 57 256 34 237 16 c 0
 218 -2 192 -10 160 -10 c 0
 127 -10 102 2 88 27 c 0
 79.2635 43.129 74.5917 61.5161 74.5917 82.1615 c 0
 74.5917 92.2365 75.7043 102.849 78 114 c 0
 85 148 105 182 132 208 c 0
 160 234 197 249 239 250 c 1
144 64 m 0
 151 54 159 50 171 50 c 0
 189 50 199 60 203 78 c 2
 228 198 l 1
 204 198 184 190 169 174 c 0
 154 158 144 140 139 117 c 0
 136.929 107.473 135.716 98.804 135.716 91.0639 c 0
 135.716 80.1178 138.142 71.0294 144 64 c 0
267 531 m 0
 253 531 238 525 226 516 c 0
 213 504 207 492 204 478 c 0
 203.1 474.4 202.65 470.8 202.65 467.2 c 0
 202.65 458.8 205.1 450.4 210 442 c 0
 217 430 231 426 245 426 c 0
 262 426 275 430 288 442 c 0
 297 453 306 465 309 478 c 0
 309.826 482.404 310.197 486.505 310.197 490.345 c 0
 310.197 500.455 307.624 508.753 304 516 c 0
 296 525 284 531 267 531 c 0
EndSplineSet
EndChar
StartChar: uni0E22
Encoding: 194 3618 164
OldEncoding: 3618
Width: 589
Flags: W
HStem: 0 62<159 405> 240 63<310 325> 388 52<290 302> 537 49<320 333>
DStem: 105 141 176 141 75 0 159 62 552 576 623 576 453 110 524 110
Fore
228 273 m 1
 195 285 172 303 160 330 c 0
 151.46 346.471 147.757 364.43 147.757 383.197 c 0
 147.757 395.194 149.27 407.521 152 420 c 0
 161 462 182 501 219 536 c 0
 253 570 291 586 333 586 c 0
 365 586 386 576 403 558 c 0
 410.536 543.612 414.787 527.816 414.787 510.612 c 0
 414.787 502.706 413.889 494.502 412 486 c 0
 407 459 392 435 373 417 c 0
 349 399 320 388 290 388 c 0
 268 388 253 392 243 400 c 0
 233 408 226 416 223 420 c 1
 220.885 409.691 219.819 400.011 219.819 390.996 c 0
 219.819 365.908 228.08 345.978 245 332 c 0
 267 314 294 303 325 303 c 1
 312 240 l 1
 275 240 244 232 222 213 c 0
 197 195 182 171 176 141 c 2
 159 62 l 1
 391 62 l 2
 413 62 430 64 437 70 c 0
 444 76 449 90 453 110 c 2
 552 576 l 1
 623 576 l 1
 524 110 l 2
 515 64 501 34 482 21 c 0
 462 8 428 0 378 0 c 2
 75 0 l 1
 105 141 l 2
 111 170 121 192 133 210 c 0
 144 226 159 240 173 249 c 0
 187 258 198 264 209 268 c 0
 216 270 224 272 228 273 c 1
302 440 m 0
 334 441 355 456 362 488 c 0
 362.697 492.528 363.151 496.935 363.151 501.221 c 0
 363.151 509.239 361.562 516.832 357 524 c 0
 350 532 338 537 322 537 c 0
 308 537 295 532 283 524 c 0
 274 513 265 501 263 488 c 0
 262.284 485.374 261.967 482.691 261.967 479.979 c 0
 261.967 471.328 265.194 462.374 269 454 c 0
 276 444 288 440 302 440 c 0
EndSplineSet
EndChar
StartChar: uni0E23
Encoding: 195 3619 165
OldEncoding: 3619
Width: 529
Flags: W
HStem: -10 52<318 332> 146 52<343 362> 478 62<531 549> 531 55<338 362>
DStem: 411 279 483 284 393 194 443 92
Fore
483 284 m 2
 443 92 l 2
 436 60 420 36 396 16 c 0
 375 -2 348 -10 319 -10 c 0
 286 -10 262 0 249 22 c 0
 238.434 36.0874 233.326 52.1593 233.326 69.8664 c 0
 233.326 77.2982 234.226 85.018 236 93 c 0
 242 122 256 146 280 168 c 0
 302 188 328 198 360 198 c 0
 368 198 380 196 393 194 c 1
 411 279 l 2
 416.17 301.158 419.158 319.498 419.158 334.825 c 0
 419.158 340.248 418.784 345.295 418 350 c 0
 416 366 407 378 396 387 c 0
 384 393 364 400 341 406 c 0
 301 418 262 428 221 434 c 0
 182 441 152 446 131 448 c 1
 161 488 198 520 234 548 c 0
 274 573 313 586 355 586 c 0
 375 586 396 585 410 582 c 0
 425 576 444 572 463 562 c 0
 484 555 499 549 510 546 c 0
 521 543 535 540 547 540 c 0
 568 540 588 546 610 555 c 1
 611 495 l 1
 580 483 554 478 531 478 c 0
 514 478 501 480 491 483 c 0
 479 486 465 494 441 504 c 0
 418 512 398 519 385 524 c 0
 373 530 357 531 343 531 c 0
 323 531 304 525 282 518 c 0
 262 507 248 498 246 492 c 1
 246 492 l 1
 246 492 296 478 396 453 c 0
 448 441 478 422 488 396 c 0
 491.267 385.383 492.866 373.099 492.866 358.875 c 0
 492.866 338.265 489.508 313.583 483 284 c 2
330 42 m 0
 347 42 361 48 372 57 c 0
 382 68 391 80 394 94 c 0
 394.804 97.7513 395.177 101.359 395.177 104.823 c 0
 395.177 114.287 392.392 122.679 388 130 c 0
 381 141 369 146 352 146 c 0
 335 146 321 141 312 130 c 0
 298 118 291 106 288 94 c 0
 287.25 90.75 286.875 87.5625 286.875 84.4688 c 0
 286.875 75.1875 290.25 66.75 297 60 c 0
 301 48 313 42 330 42 c 0
EndSplineSet
EndChar
StartChar: uni0E24
Encoding: 196 3620 166
OldEncoding: 3620
Width: 615
Flags: W
HStem: -10 52<198 211> 146 52<226 243> 525 61<391 432>
DStem: 155 286 228 290 114 94 207 192 541 400 611 400 392 -300 462 -300
Fore
114 94 m 2
 155 286 l 2
 162 321 176 346 191 364 c 0
 209 381 228 394 248 404 c 1
 241 410 230 418 209 430 c 0
 190 442 164 452 132 453 c 1
 152 474 188 504 240 537 c 0
 291 570 351 586 422 586 c 0
 464 586 501 579 534 566 c 0
 565 552 590 532 603 504 c 0
 612.467 486.25 616.682 467.099 616.682 446.133 c 0
 616.682 431.665 614.675 416.333 611 400 c 2
 462 -300 l 1
 392 -300 l 1
 541 400 l 2
 542.923 408.334 543.819 416.155 543.819 423.56 c 0
 543.819 439.258 539.794 453.09 533 466 c 0
 523 484 508 500 486 510 c 0
 465 520 439 525 410 525 c 0
 349 525 292 507 241 470 c 1
 251 468 266 460 288 452 c 0
 310 441 328 426 344 406 c 1
 329 404 308 393 281 376 c 0
 255 360 236 330 228 290 c 2
 207 192 l 1
 213 196 225 198 243 198 c 0
 276 198 298 188 312 168 c 0
 319.787 153.135 324.567 136.766 324.567 118.184 c 0
 324.567 110.516 323.753 102.472 322 94 c 0
 316 66 301 42 281 22 c 0
 258 0 232 -10 199 -10 c 0
 169 -10 146 0 130 18 c 0
 117.676 32.499 111.133 49.6258 111.133 69.7613 c 0
 111.133 77.4008 112.075 85.4734 114 94 c 2
209 42 m 0
 227 42 241 48 250 57 c 0
 262 68 269 80 272 94 c 0
 273 98.6667 273.556 103.111 273.556 107.333 c 0
 273.556 115.778 271.333 123.333 266 130 c 0
 260 141 247 146 231 146 c 0
 215 146 201 141 190 130 c 0
 179 120 170 108 167 94 c 0
 166.174 90.1464 165.803 86.4444 165.803 82.873 c 0
 165.803 73.4696 168.376 64.9722 172 57 c 0
 181 48 193 42 209 42 c 0
EndSplineSet
EndChar
StartChar: uni0E25
Encoding: 197 3621 167
OldEncoding: 3621
Width: 592
Flags: W
HStem: -10 50<196 209> 0 21G<434 506> 146 52<227 242> 364 59<296 300> 531 55<378 412>
DStem: 518 396 590 396 476 198 506 0
Fore
296 364 m 1
 247 360 213 316 196 237 c 0
 193 222 191 206 187 184 c 1
 192 186 196 190 206 194 c 0
 214 196 225 198 240 198 c 0
 273 198 296 188 310 168 c 0
 319.312 152.958 324.519 136.376 324.519 117.521 c 0
 324.519 110.052 323.702 102.227 322 94 c 0
 316 64 300 39 278 21 c 0
 256 0 229 -10 196 -10 c 0
 164 -10 141 0 127 22 c 0
 114.575 41.5246 107.664 62.6245 107.664 86.6976 c 0
 107.664 89.7496 107.775 92.8495 108 96 c 0
 111 135 119 184 132 240 c 0
 143 291 165 334 194 366 c 0
 223 400 255 418 298 423 c 1
 345 423 378 408 405 380 c 0
 430 350 448 314 458 274 c 0
 468 234 473 208 476 198 c 1
 518 396 l 2
 520.62 407.529 521.867 418.165 521.867 428.016 c 0
 521.867 455.764 511.974 477.288 495 495 c 0
 472 519 435 531 389 531 c 0
 313 531 246 500 188 440 c 1
 151 474 l 1
 173 504 207 530 255 552 c 0
 300 574 350 586 404 586 c 0
 471 586 521 570 556 537 c 0
 582.304 514.349 595.262 482.622 595.262 442.989 c 0
 595.262 428.38 593.501 412.698 590 396 c 2
 506 0 l 1
 434 0 l 1
 436.422 12.7166 437.744 28.7334 437.744 48.4945 c 0
 437.744 61.3667 437.183 75.8276 436 92 c 0
 432 130 424 172 412 216 c 0
 401 258 384 292 365 322 c 0
 347 351 321 364 296 364 c 1
229 146 m 0
 214 146 200 141 187 130 c 0
 178 120 169 108 166 93 c 0
 165.174 89.4217 164.803 85.9191 164.803 82.4923 c 0
 164.803 73.4696 167.376 64.9722 171 57 c 0
 180 46 192 40 207 40 c 0
 225 40 240 46 249 57 c 0
 260 68 267 80 270 93 c 0
 271.036 98.1781 271.595 102.999 271.595 107.503 c 0
 271.595 116.047 269.584 123.452 265 130 c 0
 260 141 247 146 229 146 c 0
EndSplineSet
EndChar
StartChar: uni0E26
Encoding: 198 3622 168
OldEncoding: 3622
Width: 684
Flags: W
HStem: -10 52<130 143> 146 52<156 174> 525 61<463 495>
DStem: 227 286 299 290 207 192 257 92 611 400 682 400 462 -300 533 -300
Fore
207 192 m 1
 227 286 l 2
 232 309 240 328 251 346 c 0
 259 362 270 375 281 382 c 0
 293 392 307 399 320 404 c 1
 312 410 299 418 279 430 c 0
 260 442 234 452 201 453 c 1
 221 474 259 504 310 537 c 0
 364 570 423 586 493 586 c 0
 559 586 612 572 646 538 c 0
 672.866 514.865 686.923 482.819 686.923 443.109 c 0
 686.923 429.609 685.298 415.223 682 400 c 2
 533 -300 l 1
 462 -300 l 1
 611 400 l 2
 613.25 409.75 614.375 418.797 614.375 427.299 c 0
 614.375 441.469 611.25 454.125 605 466 c 0
 595 484 578 500 556 510 c 0
 537 520 511 525 481 525 c 0
 421 525 364 507 312 470 c 1
 321 468 336 460 358 452 c 0
 380 441 400 426 414 406 c 1
 400 404 380 393 353 376 c 0
 326 360 307 330 299 290 c 2
 257 92 l 2
 250 63 238 39 214 21 c 0
 192 0 163 -10 130 -10 c 0
 98 -10 76 0 61 21 c 0
 51.4396 34.9729 45.665 52.7316 45.665 72.2876 c 0
 45.665 79.3233 46.4125 86.5916 48 94 c 0
 54 123 69 147 92 168 c 0
 115 188 142 198 174 198 c 0
 189 198 200 196 207 192 c 1
141 42 m 0
 157 42 172 48 184 57 c 0
 196 68 203 80 206 94 c 0
 207 98.6667 207.556 103.111 207.556 107.333 c 0
 207.556 115.778 205.333 123.333 200 130 c 0
 192 141 179 146 163 146 c 0
 148 146 134 141 122 130 c 0
 109 118 103 106 100 94 c 0
 99.1255 90.2105 98.6758 86.5059 98.6758 82.9359 c 0
 98.6758 74.2589 101.332 66.3765 107 60 c 0
 114 48 126 42 141 42 c 0
EndSplineSet
EndChar
StartChar: uni0E27
Encoding: 199 3623 169
OldEncoding: 3623
Width: 562
Flags: W
HStem: -10 52<367 385> 146 52<398 413> 531 55<351 385>
DStem: 488 396 556 396 445 194 492 94
Fore
556 396 m 2
 492 94 l 2
 486 66 474 42 453 22 c 0
 434 0 404 -10 368 -10 c 0
 337 -10 314 0 300 21 c 0
 289.143 34.7523 283.525 52.1719 283.525 71.3627 c 0
 283.525 78.6857 284.343 86.2665 286 94 c 0
 292 123 305 147 328 168 c 0
 350 188 378 198 411 198 c 0
 422 198 434 196 445 194 c 1
 488 396 l 2
 490.967 409.055 492.438 421.23 492.438 432.472 c 0
 492.438 459.12 484.176 480.528 468 496 c 0
 445 520 410 531 363 531 c 0
 325 531 288 520 250 501 c 0
 217 483 188 459 166 434 c 1
 128 470 l 1
 144 490 165 508 192 526 c 0
 216 544 245 558 277 570 c 0
 310 582 344 586 375 586 c 0
 441 586 491 570 526 536 c 0
 550.149 513.271 561.686 482.471 561.686 445.032 c 0
 561.686 429.76 559.766 413.384 556 396 c 2
400 146 m 0
 385 146 370 141 360 130 c 0
 347 118 339 106 336 94 c 0
 335.299 90.9605 334.98 87.9756 334.98 85.071 c 0
 334.98 75.5526 338.403 66.8957 343 60 c 0
 350 48 363 42 378 42 c 0
 396 42 410 48 420 57 c 0
 431 68 439 80 442 94 c 0
 442.9 98.2 443.35 102.22 443.35 106.06 c 0
 443.35 115.02 440.9 123 436 130 c 0
 430 141 418 146 400 146 c 0
EndSplineSet
EndChar
StartChar: uni0E28
Encoding: 200 3624 170
OldEncoding: 3624
Width: 621
Flags: W
HStem: 0 21G<146 216 462 534> 240 51<329 343> 396 52<357 376> 534 56<389 423>
DStem: 168 104 271 261 146 0 216 0 544 386 617 392 462 0 534 0
Fore
593 524 m 1
 599 531 609 543 620 560 c 0
 632 574 644 591 654 612 c 1
 709 579 l 1
 697 556 684 534 665 516 c 0
 643 495 627 480 618 471 c 1
 621.105 460.355 622.439 449.12 622.439 437.47 c 0
 622.439 422.852 620.339 407.581 617 392 c 2
 534 0 l 1
 462 0 l 1
 544 386 l 2
 547 400 548 412 549 422 c 1
 541 417 525 408 505 399 c 0
 486 388 471 381 458 378 c 1
 458.333 376.667 458.444 375.111 458.444 373.444 c 0
 458.444 370.111 458 366.333 458 363 c 0
 458 356 456 348 454 339 c 0
 448 310 435 288 409 270 c 0
 387 250 360 240 330 240 c 0
 301 240 283 248 271 261 c 1
 216 0 l 1
 146 0 l 1
 168 104 l 2
 170.913 118.564 172.468 132.45 172.468 145.261 c 0
 172.468 154.441 171.67 163.069 170 171 c 0
 166 190 157 213 145 243 c 0
 133 272 126 296 121 315 c 0
 119.4 322.6 118.6 330.84 118.6 339.848 c 0
 118.6 353.36 120.4 368.6 124 386 c 0
 133 429 153 466 181 496 c 0
 213 530 247 550 290 566 c 0
 331 582 373 590 415 590 c 0
 494 590 555 568 593 524 c 1
534 470 m 1
 528 482 515 495 495 510 c 0
 475 525 444 534 404 534 c 0
 378 534 350 530 323 520 c 0
 292 510 264 494 241 471 c 0
 215 447 201 417 193 381 c 0
 191.4 373.4 190.6 365 190.6 355.992 c 0
 190.6 342.48 192.4 327.6 196 312 c 0
 203 286 205 266 206 250 c 1
 218 304 l 2
 227 348 243 381 271 408 c 0
 299 435 333 448 374 448 c 0
 391 448 404 447 412 444 c 0
 422 440 430 434 435 428 c 0
 441 422 443 418 443 418 c 1
 456 422 471 429 488 440 c 0
 505 448 521 459 534 470 c 1
363 396 m 0
 346 396 332 392 321 381 c 0
 311 370 303 360 299 344 c 0
 298.299 340.727 297.98 337.563 297.98 334.521 c 0
 297.98 324.553 301.403 315.896 306 309 c 0
 312 297 324 291 341 291 c 0
 359 291 373 297 384 309 c 0
 395 318 402 330 405 344 c 0
 406.223 348.892 406.792 353.223 406.792 357.193 c 0
 406.792 366.208 403.86 373.363 399 381 c 0
 393 392 381 396 363 396 c 0
EndSplineSet
EndChar
StartChar: uni0E29
Encoding: 201 3625 171
OldEncoding: 3625
Width: 681
Flags: W
HStem: 0 62<116 482> 208 53<503 529.063> 369 45<451 466> 375 51<219 234> 531 53<251 265>
DStem: 253 380 346 478 185 62 257 62 551 212 626 234 529 110 599 110 628 576 698 576 562 262 638 290
Fore
626 234 m 1
 599 110 l 2
 590 64 575 34 556 21 c 0
 539 8 504 0 453 0 c 2
 104 0 l 1
 117 62 l 1
 185 62 l 1
 253 380 l 1
 245 376 234 375 221 375 c 0
 188 375 164 386 150 406 c 0
 140.688 421.759 135.481 438.543 135.481 457.089 c 0
 135.481 464.435 136.298 472.056 138 480 c 0
 144 508 159 532 181 552 c 0
 204 573 232 584 265 584 c 0
 286 584 303 578 316 570 c 0
 329 561 340 548 345 532 c 0
 347.639 524.61 348.885 515.548 348.885 505.697 c 0
 348.885 496.885 347.889 487.443 346 478 c 2
 257 62 l 1
 466 62 l 2
 487 62 504 64 510 70 c 1
 517 76 525 90 529 110 c 2
 551 212 l 1
 541 210 526 208 503 208 c 0
 461 210 423 219 390 236 c 0
 363.803 249.099 352.35 271.58 352.35 301.25 c 0
 352.35 307.822 352.912 314.747 354 322 c 0
 359 344 370 366 391 386 c 0
 410 404 434 414 466 414 c 0
 498 414 520 405 530 388 c 0
 539.085 374.722 543.286 360.467 543.286 344.895 c 0
 543.286 338.184 542.506 331.228 541 324 c 0
 535 296 523 274 501 261 c 1
 521 261 541 261 562 262 c 1
 628 576 l 1
 698 576 l 1
 638 290 l 1
 651 298 664 312 680 330 c 0
 696 348 706 374 714 406 c 1
 772 406 l 1
 762 357 744 321 717 297 c 0
 692 274 662 252 626 234 c 1
437 278 m 0
 446 278 453 279 465 285 c 0
 472 290 479 296 482 302 c 0
 488 309 490 315 492 324 c 0
 493.077 329.025 493.638 333.534 493.638 337.621 c 0
 493.638 344.92 491.847 350.871 488 356 c 0
 481 364 471 369 456 369 c 0
 441 369 429 364 420 356 c 0
 410 348 403 336 401 324 c 0
 400.071 320.285 399.622 316.762 399.622 313.341 c 0
 399.622 305.712 401.858 298.595 406 291 c 0
 412 284 422 278 437 278 c 0
254 531 m 0
 236 531 222 525 212 516 c 0
 201 506 193 494 190 478 c 0
 189.1 474.1 188.65 470.29 188.65 466.57 c 0
 188.65 457.89 191.1 449.7 196 442 c 0
 201 430 214 426 232 426 c 0
 249 426 262 430 274 442 c 0
 284 453 293 465 296 478 c 0
 296.804 482.287 297.177 486.287 297.177 490.038 c 0
 297.177 500.287 294.392 508.68 290 516 c 0
 283 525 271 531 254 531 c 0
EndSplineSet
EndChar
StartChar: uni0E2A
Encoding: 202 3626 172
OldEncoding: 3626
Width: 592
Flags: W
HStem: -10 50<196 209> 0 21G<434 506> 146 52<227 242> 364 59<296 300> 531 55<377 412>
DStem: 518 396 590 396 476 198 506 0
Fore
229 146 m 0
 214 146 200 141 187 130 c 0
 178 120 169 108 166 93 c 0
 165.174 89.4217 164.803 85.9191 164.803 82.4923 c 0
 164.803 73.4696 167.376 64.9722 171 57 c 0
 180 46 192 40 207 40 c 0
 225 40 240 46 249 57 c 0
 260 68 267 80 270 93 c 0
 271.036 98.1781 271.595 102.999 271.595 107.503 c 0
 271.595 116.047 269.584 123.452 265 130 c 0
 260 141 247 146 229 146 c 0
515 466 m 1
 514 460 499 444 470 414 c 0
 444 386 428 366 427 362 c 1
 437 346 445 326 452 303 c 0
 460 282 463 261 469 243 c 0
 471 224 473 208 476 198 c 1
 518 396 l 2
 520.435 406.553 521.553 416.447 521.553 425.95 c 0
 521.553 439.859 519.159 452.93 515 466 c 1
403 402 m 2
 406 402 421 418 450 452 c 0
 479 483 493 498 493 498 c 1
 473 520 437 531 389 531 c 0
 313 531 246 500 188 440 c 1
 151 474 l 1
 173 504 207 530 255 552 c 0
 300 574 350 586 404 586 c 0
 455 586 497 576 532 556 c 0
 535 556 549 570 571 596 c 0
 592 621 607 634 613 634 c 0
 614 632 619 628 628 624 c 0
 637 616 643 610 650 604 c 0
 655.754 601.123 657.887 598.246 657.887 594.625 c 0
 657.887 593.212 657.562 591.685 657 590 c 1
 647 579 632 564 610 544 c 0
 586 525 576 516 575 513 c 0
 588.333 493 595 469 595 441 c 0
 595 427 593.333 412 590 396 c 2
 506 0 l 1
 434 0 l 1
 436.422 12.7166 437.744 28.7334 437.744 48.4945 c 0
 437.744 61.3667 437.183 75.8276 436 92 c 0
 432 130 424 172 412 216 c 0
 401 258 384 292 365 322 c 0
 347 351 321 364 296 364 c 1
 247 360 213 316 196 237 c 0
 193 222 191 206 187 184 c 1
 192 186 196 190 206 194 c 0
 214 196 225 198 240 198 c 0
 273 198 296 188 310 168 c 0
 319.312 152.958 324.519 136.376 324.519 117.521 c 0
 324.519 110.052 323.702 102.227 322 94 c 0
 316 64 300 39 278 21 c 0
 256 0 229 -10 196 -10 c 0
 164 -10 141 0 127 22 c 0
 114.575 41.5246 107.664 62.6245 107.664 86.6976 c 0
 107.664 89.7496 107.775 92.8495 108 96 c 0
 111 135 119 184 132 240 c 0
 143 291 165 334 194 366 c 0
 223 400 255 418 298 423 c 1
 334 423 359 418 372 410 c 1
 372 410 375 410 379 408 c 0
 384 406 390 406 396 405 c 0
 401 404 403 402 403 402 c 2
EndSplineSet
EndChar
StartChar: uni0E2B
Encoding: 203 3627 173
OldEncoding: 3627
Width: 681
Flags: W
HStem: 0 21G<172 244 524 594> 375 51<219 234> 531 53<248 265 598 614>
DStem: 253 380 346 478 172 0 290 216 582 273 652 273 524 0 594 0
Fore
172 0 m 1
 253 380 l 1
 245 376 234 375 221 375 c 0
 188 375 164 386 150 406 c 0
 140.688 421.759 135.481 438.543 135.481 457.089 c 0
 135.481 464.435 136.298 472.056 138 480 c 0
 144 508 159 532 181 552 c 0
 204 573 232 584 265 584 c 0
 286 584 303 578 316 570 c 0
 329 561 340 548 345 532 c 0
 347.639 524.61 348.885 515.548 348.885 505.697 c 0
 348.885 496.885 347.889 487.443 346 478 c 2
 290 216 l 1
 320 264 356 302 403 334 c 0
 446 364 481 387 504 396 c 1
 488.162 410.398 480.617 427.905 480.617 450.014 c 0
 480.617 458.617 481.759 467.916 484 478 c 0
 490 507 506 531 529 552 c 0
 552 573 582 584 614 584 c 0
 648 584 671 573 685 552 c 0
 695.082 537.597 700.497 521.119 700.497 502.567 c 0
 700.497 495.358 699.679 487.836 698 480 c 0
 694 460 684 444 673 428 c 0
 659 410 642 396 622 388 c 1
 631 386 641 375 649 356 c 0
 654.153 346.266 657.012 333.253 657.012 316.586 c 0
 657.012 304.145 655.419 289.669 652 273 c 2
 594 0 l 1
 524 0 l 1
 582 273 l 2
 585.189 287.122 586.925 299.583 586.925 310.195 c 0
 586.925 322.879 584.445 332.922 579 340 c 0
 570 352 563 362 555 364 c 1
 475 327 406 274 352 208 c 0
 294 142 261 80 249 22 c 2
 244 0 l 1
 172 0 l 1
603 532 m 0
 587 532 572 526 563 518 c 0
 550 507 543 495 540 480 c 0
 539.125 475.919 538.676 472.008 538.676 468.267 c 0
 538.676 459.174 541.332 451.085 547 444 c 0
 552 432 565 428 581 428 c 0
 598 428 612 432 624 444 c 0
 634 454 642 466 645 480 c 0
 645.826 484.129 646.197 488.03 646.197 491.746 c 0
 646.197 501.53 643.624 510.028 640 518 c 0
 632 526 620 532 603 532 c 0
254 531 m 0
 236 531 222 525 212 516 c 0
 201 506 193 494 190 478 c 0
 189.1 474.1 188.65 470.29 188.65 466.57 c 0
 188.65 457.89 191.1 449.7 196 442 c 0
 201 430 214 426 232 426 c 0
 249 426 262 430 274 442 c 0
 284 453 293 465 296 478 c 0
 296.804 482.287 297.177 486.287 297.177 490.038 c 0
 297.177 500.287 294.392 508.68 290 516 c 0
 283 525 271 531 254 531 c 0
EndSplineSet
EndChar
StartChar: uni0E2C
Encoding: 204 3628 174
OldEncoding: 3628
Width: 735
Flags: W
HStem: 0 21G<172 244 576 648> 375 51<219 234> 482 49<664.382 677> 531 53<251 265> 618 46<690 707>
DStem: 253 380 346 478 172 0 283 184 500 406 531 550 581 70 615 184 531 550 500 406 283 184 273 70 678 482 753 495 615 184 648 0
Fore
172 0 m 1
 253 380 l 1
 245 376 234 375 221 375 c 0
 188 375 164 386 150 406 c 0
 140.688 421.759 135.481 438.543 135.481 457.089 c 0
 135.481 464.435 136.298 472.056 138 480 c 0
 144 508 159 532 181 552 c 0
 204 573 232 584 265 584 c 0
 286 584 303 578 316 570 c 0
 329 561 340 548 345 532 c 0
 347.639 524.61 348.885 515.548 348.885 505.697 c 0
 348.885 496.885 347.889 487.443 346 478 c 2
 283 184 l 1
 531 550 l 1
 615 184 l 1
 678 482 l 1
 642 482 617 490 603 508 c 0
 593.96 519.821 589.272 534.543 589.272 551.831 c 0
 589.272 559.404 590.172 567.47 592 576 c 0
 598 602 610 622 632 639 c 0
 655 656 678 664 707 664 c 0
 732 664 751 656 764 638 c 0
 772.737 624.559 777.408 610.215 777.408 593.147 c 0
 777.408 584.817 776.296 575.839 774 566 c 1
 784 570 797 578 813 591 c 0
 828 604 843 624 855 648 c 1
 897 618 l 1
 881 586 859 561 828 538 c 0
 798 518 772 501 753 495 c 1
 648 0 l 1
 576 0 l 2
 575.236 0 574.91 0.583592 574.91 1.86223 c 0
 574.91 3.93112 575.764 7.81966 577 14 c 0
 579 22 580 32 581 44 c 0
 581.5 50 581.75 55.5 581.75 60 c 0
 581.75 64.5 581.5 68 581 70 c 2
 500 406 l 1
 273 70 l 2
 265 60 259 48 255 34 c 0
 250 18 248 8 244 0 c 1
 172 0 l 1
254 531 m 0
 236 531 222 525 212 516 c 0
 201 506 193 494 190 478 c 0
 189.1 474.1 188.65 470.29 188.65 466.57 c 0
 188.65 457.89 191.1 449.7 196 442 c 0
 201 430 214 426 232 426 c 0
 249 426 262 430 274 442 c 0
 284 453 293 465 296 478 c 0
 296.804 482.287 297.177 486.287 297.177 490.038 c 0
 297.177 500.287 294.392 508.68 290 516 c 0
 283 525 271 531 254 531 c 0
674 531 m 0
 689 531 700 536 712 544 c 0
 719 552 723 562 726 574 c 0
 727.392 579.569 728.138 585.138 728.138 590.508 c 0
 728.138 596.708 727.144 602.641 725 608 c 0
 717 615 707 618 692 618 c 0
 679 618 668 614 659 604 c 0
 649 597 644 586 641 574 c 0
 640 570 639.444 566.222 639.444 562.667 c 0
 639.444 555.556 641.667 549.333 647 544 c 0
 651 536 661 531 674 531 c 0
EndSplineSet
EndChar
StartChar: uni0E2D
Encoding: 205 3629 175
OldEncoding: 3629
Width: 607
Flags: W
HStem: 0 62<209 420> 206 52<243 257> 362 52<275 289> 532 54<395 419>
DStem: 160 309 211 212 117 110 189 110 532 396 604 396 471 110 543 110
Fore
211 212 m 1
 189 110 l 2
 187.4 102 186.6 94.96 186.6 89.008 c 0
 186.6 80.08 188.4 73.6 192 70 c 1
 196 64 209 62 232 62 c 2
 409 62 l 2
 431 62 448 64 456 70 c 0
 462 76 467 90 471 110 c 2
 532 396 l 2
 534.822 408.417 536.211 419.878 536.211 430.451 c 0
 536.211 457.344 527.227 478.491 510 495 c 0
 485 519 449 532 403 532 c 0
 400.908 532.057 398.819 532.086 396.732 532.086 c 0
 325.998 532.086 258.338 499.252 202 440 c 1
 165 474 l 1
 188 504 223 530 269 552 c 0
 314 574 363 586 417 586 c 0
 461 586 498 579 530 564 c 0
 561 549 584 530 598 500 c 0
 605.267 482.439 609.233 463.411 609.233 441.806 c 0
 609.233 427.733 607.55 412.567 604 396 c 2
 543 110 l 2
 534 64 519 34 500 21 c 0
 482 8 446 0 396 0 c 2
 219 0 l 2
 183 0 159 3 143 9 c 0
 126 14 117 24 114 39 c 1
 112.4 45 111.6 52.44 111.6 61.256 c 0
 111.6 74.48 113.4 90.8 117 110 c 2
 160 309 l 2
 162 322 171 338 180 352 c 0
 188 368 203 382 222 394 c 0
 239 406 262 414 289 414 c 0
 322 414 346 404 359 382 c 0
 368.914 369.442 373.149 354.701 373.149 337.775 c 0
 373.149 329.091 372.034 319.833 370 310 c 0
 364 282 351 256 328 236 c 0
 306 216 278 206 245 206 c 0
 240 206 228 207 211 212 c 1
255 258 m 0
 271 258 286 262 296 274 c 0
 308 284 315 296 318 309 c 0
 318.9 313.5 319.35 317.73 319.35 321.717 c 0
 319.35 331.02 316.9 339 312 346 c 0
 307 356 295 362 277 362 c 0
 260 362 246 356 234 348 c 0
 225 338 216 326 213 310 c 0
 212.174 306.146 211.803 302.444 211.803 298.873 c 0
 211.803 289.47 214.376 280.972 218 273 c 0
 227 262 239 258 255 258 c 0
EndSplineSet
EndChar
StartChar: uni0E2E
Encoding: 206 3630 176
OldEncoding: 3630
Width: 607
Flags: W
HStem: 0 62<217 416> 148 52<232 248> 304 53<263 279> 386 56<334 384> 534 52<369 416>
DStem: 539 428 615 448 471 110 543 110
Fore
117 110 m 2
 147 250 l 2
 152 274 167 298 186 322 c 0
 208 346 238 357 277 357 c 0
 310 357 334 348 348 327 c 0
 357.167 314.559 361.189 299.974 361.189 283.246 c 0
 361.189 274.426 360.071 265.011 358 255 c 0
 352 225 340 201 316 180 c 0
 294 159 265 148 232 148 c 0
 221 148 210 152 199 156 c 1
 189 110 l 2
 187.4 102 186.6 94.96 186.6 89.008 c 0
 186.6 80.08 188.4 73.6 192 70 c 1
 196 64 209 62 232 62 c 2
 409 62 l 2
 431 62 448 64 456 70 c 0
 462 76 467 90 471 110 c 2
 539 428 l 1
 527 417 500 406 463 399 c 0
 423 390 390 386 358 386 c 0
 307 386 264 393 225 410 c 0
 190.871 425.358 175.67 445.084 175.67 469.179 c 0
 175.67 473.323 176.119 477.597 177 482 c 0
 183 506 196 525 221 540 c 0
 247 556 275 568 308 576 c 0
 343 584 373 586 401 586 c 0
 446 586 481 582 509 573 c 0
 536 564 557 552 573 540 c 0
 584.389 531.458 593.076 525.619 593.076 524.191 c 0
 593.076 524.115 593.051 524.051 593 524 c 1
 593 524 l 1
 620 546 645 568 665 590 c 1
 707 550 l 1
 687 530 669 510 651 496 c 0
 634 483 620 474 612 470 c 1
 614.162 467.117 615.805 462.675 615.805 456.301 c 0
 615.805 453.831 615.558 451.072 615 448 c 1
 543 110 l 2
 534 64 519 34 500 21 c 0
 482 8 446 0 396 0 c 2
 219 0 l 2
 183 0 159 3 143 9 c 0
 126 14 117 24 114 39 c 1
 112.4 45 111.6 52.44 111.6 61.256 c 0
 111.6 74.48 113.4 90.8 117 110 c 2
370 442 m 0
 398 442 427 446 452 453 c 0
 477 458 497 462 514 470 c 0
 529 477 536 480 536 482 c 0
 530 490 516 501 496 516 c 0
 472 526 436 534 390 534 c 0
 358 534 326 531 297 522 c 0
 268 513 252 501 249 484 c 0
 248.617 482.21 248.425 480.478 248.425 478.803 c 0
 248.425 454.268 289.497 442 370 442 c 0
243 200 m 0
 261 200 275 206 284 216 c 0
 296 226 303 238 306 252 c 0
 306.9 256.8 307.35 261.15 307.35 265.185 c 0
 307.35 274.6 304.9 282.3 300 290 c 0
 295 300 283 304 265 304 c 0
 249 304 235 300 222 290 c 0
 213 282 204 268 201 252 c 0
 199.857 247.714 199.367 243.673 199.367 239.878 c 0
 199.367 230.388 202.429 222.429 206 216 c 0
 215 206 227 200 243 200 c 0
EndSplineSet
EndChar
StartChar: uni0E2F
Encoding: 207 3631 177
OldEncoding: 3631
Width: 565
Flags: W
HStem: 260 62<286 311> 381 49<255 273> 534 52<286 302>
DStem: 486 378 600 576 446 186 516 180
Fore
297 586 m 0
 332 586 354 576 368 558 c 0
 377.494 543.758 381.93 528.137 381.93 510.512 c 0
 381.93 502.148 380.931 493.333 379 484 c 0
 373 458 358 434 337 414 c 0
 314 392 289 381 261 381 c 0
 246 381 234 382 224 388 c 0
 217 392 212 394 207 396 c 1
 212 376 223 360 238 344 c 0
 253 328 275 322 302 322 c 0
 334 322 367 334 397 357 c 0
 427 381 456 412 482 452 c 0
 504 490 519 531 528 576 c 1
 600 576 l 1
 516 180 l 2
 504 122 482 78 445 48 c 0
 409 16 360 -8 292 -22 c 1
 288 42 l 1
 341 54 379 70 401 90 c 1
 422 108 436 141 446 186 c 2
 486 378 l 1
 464 339 435 309 401 290 c 0
 365 270 328 260 292 260 c 0
 255 260 222 270 194 291 c 0
 166 314 149 342 144 378 c 0
 144 396 145 417 150 440 c 0
 158 480 174 516 198 544 c 0
 224 573 255 586 297 586 c 0
268 430 m 0
 285 430 299 435 311 446 c 0
 321 456 329 468 333 483 c 0
 333.392 485.55 333.592 488.061 333.592 490.535 c 0
 333.592 500.669 330.235 510.158 323 519 c 0
 319 530 306 534 291 534 c 0
 274 534 260 530 250 519 c 0
 238 508 231 496 229 483 c 0
 227.667 478 227 473.333 227 468.963 c 0
 227 460.222 229.667 452.667 235 446 c 0
 239 435 251 430 268 430 c 0
EndSplineSet
EndChar
StartChar: uni0E30
Encoding: 208 3632 178
OldEncoding: 3632
Width: 469
Flags: W
HStem: 0 21G<166.5 214.5> 162 46<169 183> 422 20G<221.5 237.5> 540 46<248 262>
Fore
272 378 m 0
 220 378 182 388 162 410 c 0
 145.535 425.681 137.061 445.05 137.061 467.144 c 0
 137.061 473.229 137.704 479.521 139 486 c 0
 145 513 160 537 183 558 c 0
 204 576 231 586 260 586 c 0
 296 586 319 578 332 560 c 0
 341.513 546.409 345.486 532.357 345.486 516.901 c 0
 345.486 509.612 344.602 502.012 343 494 c 0
 338 472 328 453 311 434 c 1
 329 434 356 442 389 459 c 0
 423 478 446 518 458 576 c 1
 528 576 l 1
 520 534 504 496 480 468 c 0
 457 440 427 416 393 400 c 0
 356 386 317 378 272 378 c 0
192 0 m 0
 141 0 104 10 82 32 c 0
 65.535 49.2491 57.0615 68.9571 57.0615 90.16 c 0
 57.0615 96 57.7043 101.953 59 108 c 0
 64 134 80 158 102 178 c 0
 122.404 196.549 147.108 208.217 172.923 208.217 c 0
 174.942 208.217 176.968 208.145 179 208 c 0
 204 208 223 201 236 194 c 0
 249 184 257 172 264 159 c 0
 265.257 153.555 265.811 147.583 265.811 141.453 c 0
 265.811 132.947 264.743 124.136 263 116 c 0
 258 93 248 75 231 56 c 1
 249 56 276 64 308 82 c 0
 342 100 366 140 378 198 c 1
 448 198 l 1
 439 156 424 118 400 90 c 0
 376 60 347 38 313 22 c 0
 276 8 237 0 192 0 c 0
169 162 m 0
 154 162 142 158 131 148 c 0
 122 140 115 128 112 114 c 0
 111.515 111.088 111.265 108.177 111.265 105.294 c 0
 111.265 96.2944 113.698 87.5736 119 80 c 0
 125 69 134 64 149 64 c 0
 166 64 180 69 189 78 c 0
 201 88 205 100 208 114 c 0
 209.234 120.172 210.13 125.835 210.13 130.852 c 0
 210.13 138.028 208.297 143.88 203 148 c 0
 199 158 186 162 169 162 c 0
250 540 m 0
 235 540 222 536 212 526 c 0
 202 518 196 506 193 492 c 0
 192.1 488.4 191.65 484.8 191.65 481.254 c 0
 191.65 472.98 194.1 465 199 458 c 0
 205 447 214 442 229 442 c 0
 246 442 260 447 269 458 c 0
 281 466 286 478 289 492 c 0
 289.986 497.261 290.486 502.09 290.486 506.486 c 0
 290.486 528.829 277.574 540 250 540 c 0
EndSplineSet
EndChar
StartChar: uni0E31
Encoding: 209 3633 179
OldEncoding: 3633
Width: 0
Flags: W
HStem: 681 60<13 29> 870 48<-77 -65>
Fore
-185 807 m 1
 -179 838 -166 866 -144 886 c 0
 -122 909 -96 918 -65 918 c 0
 -31 918 -11 909 5 890 c 0
 14.8551 875.921 19.2594 860.852 19.2594 844.093 c 0
 19.2594 837.045 18.4803 829.698 17 822 c 0
 11 794 -4 770 -31 748 c 1
 -25 747 -15 746 -1 744 c 0
 12 742 23 741 29 741 c 0
 62 742 96 752 126 762 c 0
 161 777 191 794 218 819 c 0
 245 843 266 870 282 902 c 1
 334 873 l 1
 318 838 292 808 259 780 c 0
 224 752 187 729 143 710 c 0
 101 692 57 681 13 681 c 0
 10.6679 680.961 8.35242 680.942 6.05356 680.942 c 0
 -50.7925 680.942 -97.477 692.7 -134 710 c 0
 -168.568 727.727 -185.852 754.882 -185.852 792.161 c 0
 -185.852 796.941 -185.568 801.886 -185 807 c 1
-96 771 m 0
 -80 771 -67 777 -57 784 c 0
 -47 795 -40 807 -38 820 c 0
 -36.583 825.668 -35.919 830.834 -35.919 835.498 c 0
 -35.919 844 -38.1255 850.834 -42 856 c 0
 -48 864 -59 870 -75 870 c 0
 -89 870 -102 864 -114 856 c 0
 -123 848 -131 836 -135 820 c 0
 -135.427 817.436 -135.626 814.871 -135.626 812.326 c 0
 -135.626 802.963 -132.932 793.863 -129 786 c 0
 -121 777 -110 771 -96 771 c 0
EndSplineSet
EndChar
StartChar: uni0E32
Encoding: 210 3634 180
OldEncoding: 3634
Width: 501
Flags: W
HStem: 0 21G<342 414> 534 52<327 345>
DStem: 431 420 503 417 342 0 414 0
Fore
120 459 m 1
 150 500 182 532 217 555 c 0
 250 576 291 586 343 586 c 0
 401 586 446 572 475 543 c 0
 495.789 520.726 507.207 491.837 507.207 456.333 c 0
 507.207 444.018 505.833 430.907 503 417 c 2
 414 0 l 1
 342 0 l 1
 431 420 l 2
 433.388 430.744 434.528 440.953 434.528 450.522 c 0
 434.528 473.016 428.225 491.969 417 506 c 0
 397 525 369 534 332 534 c 0
 298 534 268 525 238 507 c 0
 209 488 185 462 167 434 c 1
 160 440 151 442 145 447 c 0
 136 452 127 454 120 459 c 1
EndSplineSet
EndChar
